<svg width="448pt" height="247pt" viewBox="0 0 448 247" xmlns="http://www.w3.org/2000/svg" xmlns:xlink="http://www.w3.org/1999/xlink"><defs><symbol id="a" overflow="visible"><path d="M3.266 0H2.53v-5.594a3.359 3.359 0 0 1-.625.422c-.137.063-.281.133-.437.203-.149.063-.293.11-.438.14v-.75c.164-.038.336-.097.516-.171.176-.082.351-.172.531-.266.176-.093.344-.191.5-.297.156-.101.29-.207.406-.312h.282z"/></symbol><symbol id="c" overflow="visible"><path d="M3.484-4.781a1.32 1.32 0 0 0-.093-.516 1.057 1.057 0 0 0-.25-.36.907.907 0 0 0-.375-.218 1.44 1.44 0 0 0-.47-.078c-.148 0-.292.023-.437.062a1.674 1.674 0 0 0-.406.157c-.125.074-.25.156-.375.25a2.75 2.75 0 0 0-.328.312v-.797c.207-.195.438-.347.688-.453.257-.101.578-.156.953-.156.257 0 .5.039.718.11.227.074.426.187.594.343.164.148.297.328.39.547.095.21.141.453.141.734 0 .262-.03.496-.093.703-.055.211-.141.407-.266.594a2.79 2.79 0 0 1-.437.516c-.18.168-.391.34-.641.515-.305.22-.555.407-.75.563-.2.148-.356.289-.469.422-.117.137-.2.273-.25.406a1.566 1.566 0 0 0-.062.469h3.218V0H.5v-.328c0-.27.023-.508.078-.719a1.92 1.92 0 0 1 .297-.61c.145-.187.328-.374.547-.562.226-.187.504-.398.828-.64.238-.164.438-.328.594-.485s.281-.304.375-.453c.094-.156.16-.312.203-.469.039-.164.062-.336.062-.515z"/></symbol><symbol id="e" overflow="visible"><path d="M4.297-1.828c0 .293-.059.558-.172.797a1.641 1.641 0 0 1-.453.61c-.2.167-.438.296-.719.39s-.59.14-.922.14C1.414.11.926-.004.562-.234v-.797c.426.344.926.515 1.5.515.22 0 .415-.023.594-.078.188-.062.344-.144.469-.25a1.22 1.22 0 0 0 .312-.406c.07-.156.11-.328.11-.516 0-.843-.606-1.265-1.813-1.265h-.53v-.625h.515c1.062 0 1.594-.399 1.594-1.203 0-.727-.407-1.094-1.22-1.094-.46 0-.89.152-1.296.453v-.719c.414-.238.91-.36 1.484-.36.27 0 .516.04.735.11.218.074.406.18.562.313.156.136.274.297.36.484.082.188.124.399.124.625 0 .856-.43 1.406-1.28 1.656v.016c.218.023.421.074.609.156.187.086.347.196.484.328.133.125.238.282.313.47.07.179.109.374.109.593z"/></symbol><symbol id="g" overflow="visible"><path d="M3.844-6.484v4.28h.828v.688h-.828V0h-.735v-1.516H.063v-.64A28.62 28.62 0 0 0 1.75-4.281c.258-.375.5-.75.719-1.125.226-.375.422-.735.578-1.078zM.906-2.204H3.11v-3.171c-.23.398-.449.75-.656 1.062-.2.313-.39.594-.578.844-.18.25-.352.48-.516.688-.156.21-.308.402-.453.578z"/></symbol><symbol id="h" overflow="visible"><path d="M4.375-1.984c0 .324-.059.617-.172.875-.105.25-.258.468-.453.656-.2.18-.438.32-.719.422-.281.093-.601.14-.953.14C1.473.11 1.023.02.734-.156v-.782c.446.282.899.422 1.36.422.226 0 .437-.035.625-.109.195-.07.36-.164.484-.281.133-.125.238-.274.313-.453.07-.176.109-.368.109-.579 0-.414-.148-.742-.438-.984-.28-.238-.695-.36-1.234-.36h-.266c-.093 0-.195.009-.296.016-.094 0-.188.008-.282.016-.093 0-.18.008-.25.016l.22-3.25h3v.671h-2.36l-.125 1.907c.093-.008.191-.016.297-.016h.296c.344 0 .649.047.922.14.27.087.5.212.688.376.187.168.328.37.422.61.101.241.156.51.156.812z"/></symbol><symbol id="j" overflow="visible"><path d="M4.61-2.063c0 .325-.055.622-.157.891a1.913 1.913 0 0 1-.422.688c-.18.187-.39.336-.64.437a2.15 2.15 0 0 1-.813.156c-.324 0-.617-.07-.875-.203a1.788 1.788 0 0 1-.656-.578 2.86 2.86 0 0 1-.406-.937A4.944 4.944 0 0 1 .5-2.844c0-.562.063-1.07.188-1.531.125-.469.3-.863.53-1.187.227-.32.505-.57.829-.75a2.299 2.299 0 0 1 1.094-.266c.445 0 .804.059 1.078.172v.703a2.386 2.386 0 0 0-1.063-.25c-.281 0-.543.07-.781.203-.23.125-.43.309-.594.547-.168.23-.297.512-.39.844a4.465 4.465 0 0 0-.125 1.11h.015c.301-.532.797-.798 1.485-.798.281 0 .535.047.765.14.227.095.422.231.578.407.165.18.29.39.375.64.082.243.125.508.125.798zm-.75.11c0-.227-.032-.43-.094-.61a1.173 1.173 0 0 0-.25-.468.976.976 0 0 0-.391-.281 1.29 1.29 0 0 0-.531-.11c-.18 0-.344.04-.5.11a1.087 1.087 0 0 0-.406.28 1.35 1.35 0 0 0-.282.407 1.339 1.339 0 0 0-.093.5c0 .23.03.445.093.64.063.188.149.356.266.5.113.15.25.262.406.344.164.086.344.125.531.125s.352-.035.5-.109c.157-.07.286-.172.391-.297.113-.125.203-.273.266-.453a1.71 1.71 0 0 0 .093-.578z"/></symbol><symbol id="l" overflow="visible"><path d="M4.563-6.047a8.872 8.872 0 0 0-.36.64c-.137.262-.289.555-.453.876a28.5 28.5 0 0 0-.484 1.015c-.157.368-.309.746-.453 1.14-.137.4-.258.798-.36 1.204-.105.398-.183.79-.234 1.172h-.797c.05-.383.133-.774.25-1.172.113-.406.238-.8.375-1.187.144-.383.297-.754.453-1.11.164-.363.32-.695.469-1 .156-.3.297-.566.422-.797.125-.226.222-.41.296-.547H.437v-.672h4.125z"/></symbol><symbol id="n" overflow="visible"><path d="M.406-1.813c0-.164.024-.332.078-.5a1.59 1.59 0 0 1 .235-.484c.101-.156.226-.297.375-.422.144-.125.316-.222.515-.297a1.913 1.913 0 0 1-.672-.593 1.445 1.445 0 0 1-.25-.829c0-.226.047-.44.141-.64.094-.207.219-.383.375-.531.164-.157.36-.27.578-.344.227-.082.469-.125.719-.125.27 0 .516.043.734.125.22.086.41.2.578.344.165.148.29.324.375.53.094.2.141.415.141.641 0 .305-.086.579-.25.829a2.004 2.004 0 0 1-.656.593 1.748 1.748 0 0 1 .86.719c.1.149.179.309.234.484.062.168.093.336.093.5 0 .293-.054.56-.156.797-.105.23-.25.43-.437.594-.18.168-.399.297-.657.39C3.098.064 2.812.11 2.5.11c-.305 0-.586-.047-.844-.14A2.048 2.048 0 0 1 1-.421a1.69 1.69 0 0 1-.438-.595 1.947 1.947 0 0 1-.156-.796zm.797-.062c0 .21.031.398.094.563.062.156.148.292.266.406.113.117.25.203.406.265.164.063.347.094.547.094.187 0 .359-.031.515-.094.164-.062.305-.148.422-.265.113-.114.203-.254.266-.422a1.53 1.53 0 0 0 .094-.547c0-.176-.032-.344-.094-.5s-.153-.29-.266-.406a1.33 1.33 0 0 0-.406-.297 1.346 1.346 0 0 0-1.063 0 1.202 1.202 0 0 0-.406.265 1.33 1.33 0 0 0-.281.422 1.376 1.376 0 0 0-.094.516zm.235-3c0 .156.023.305.078.438.062.125.14.242.234.343a1.094 1.094 0 0 0 .766.297c.144 0 .28-.023.406-.078.133-.063.25-.14.344-.234a.973.973 0 0 0 .234-.328c.063-.133.094-.282.094-.438s-.031-.297-.094-.422a.961.961 0 0 0-.234-.344.961.961 0 0 0-.344-.234.9.9 0 0 0-.406-.094 1.056 1.056 0 0 0-1 .672 1.122 1.122 0 0 0-.078.422z"/></symbol><symbol id="p" overflow="visible"><path d="M4.531-3.625c0 .594-.058 1.125-.172 1.594-.117.46-.289.851-.515 1.172-.23.312-.508.554-.828.718-.325.165-.696.25-1.11.25-.43 0-.805-.074-1.125-.218v-.72c.352.212.735.313 1.14.313.29 0 .552-.054.782-.171.227-.125.422-.301.578-.532.164-.238.29-.523.375-.86.082-.331.125-.718.125-1.155h-.015c-.282.554-.762.828-1.438.828a2.12 2.12 0 0 1-.781-.14 1.75 1.75 0 0 1-.594-.423 1.863 1.863 0 0 1-.39-.625 2.332 2.332 0 0 1-.141-.828c0-.32.05-.613.156-.875.102-.27.25-.5.438-.687s.406-.332.656-.438c.258-.101.535-.156.828-.156.332 0 .625.07.875.203.25.125.457.313.625.563.176.25.305.558.39.921.094.368.141.79.141 1.266zm-.797-.672c0-.25-.03-.473-.093-.672a1.653 1.653 0 0 0-.266-.531 1.145 1.145 0 0 0-.422-.328 1.094 1.094 0 0 0-.516-.125c-.18 0-.343.039-.5.11a1.053 1.053 0 0 0-.39.296 1.275 1.275 0 0 0-.266.453c-.062.18-.094.371-.094.578 0 .23.032.434.094.61.063.18.149.328.266.453.113.125.25.226.406.297.156.062.332.094.531.094.176 0 .336-.032.485-.094a1.216 1.216 0 0 0 .672-.656c.062-.145.093-.305.093-.485z"/></symbol><symbol id="r" overflow="visible"><path d="M4.61-3.266c0 .543-.055 1.024-.157 1.438a3.25 3.25 0 0 1-.422 1.062 1.77 1.77 0 0 1-.672.657 1.936 1.936 0 0 1-.921.218c-.325 0-.618-.07-.875-.203a1.878 1.878 0 0 1-.641-.625 3.249 3.249 0 0 1-.406-1.015A6.524 6.524 0 0 1 .39-3.11c0-.563.047-1.055.14-1.485.094-.437.227-.8.407-1.094.187-.3.414-.523.687-.671.281-.145.594-.22.938-.22 1.363 0 2.046 1.106 2.046 3.313zm-.766.079c0-1.844-.438-2.766-1.313-2.766-.93 0-1.39.937-1.39 2.812 0 1.75.453 2.625 1.36 2.625.894 0 1.343-.89 1.343-2.671z"/></symbol><symbol id="y" overflow="visible"><path d="M5.86 0h-.844l-.672-1.813h-2.75L.938 0H.094l2.484-6.484h.797zM4.093-2.5L3.078-5.25a1.792 1.792 0 0 1-.11-.438h-.015c-.031.18-.07.325-.11.438l-1 2.75z"/></symbol><symbol id="z" overflow="visible"><path d="M.844 0v-6.484h1.844c.562 0 1.003.14 1.328.421.332.274.5.625.5 1.063 0 .375-.102.7-.297.969-.2.273-.477.465-.828.578v.015c.437.055.785.22 1.047.5.27.274.406.633.406 1.079 0 .554-.203 1-.61 1.343-.398.344-.898.516-1.5.516zm.765-5.797v2.094h.782c.414 0 .738-.098.968-.297.239-.195.36-.477.36-.844 0-.633-.414-.953-1.235-.953zm0 2.781v2.328h1.032c.445 0 .789-.101 1.03-.312.25-.207.376-.5.376-.875 0-.758-.524-1.14-1.563-1.14z"/></symbol><symbol id="A" overflow="visible"><path d="M5.25-.266c-.469.25-1.063.375-1.781.375-.918 0-1.656-.296-2.219-.89C.695-1.375.422-2.148.422-3.11c0-1.04.312-1.88.937-2.516.625-.633 1.414-.953 2.375-.953.614 0 1.118.09 1.516.266v.796a3.079 3.079 0 0 0-1.531-.39c-.742 0-1.344.25-1.813.75-.46.5-.687 1.168-.687 2 0 .781.21 1.406.64 1.875.438.469 1.004.703 1.703.703.657 0 1.22-.14 1.688-.422z"/></symbol><symbol id="B" overflow="visible"><path d="M.844 0v-6.484H2.64c2.28 0 3.422 1.058 3.422 3.171 0 1-.32 1.805-.954 2.407C4.473-.301 3.625 0 2.563 0zm.765-5.797v5.11h.97c.843 0 1.5-.223 1.968-.672.476-.457.719-1.102.719-1.938 0-1.664-.883-2.5-2.64-2.5z"/></symbol><symbol id="C" overflow="visible"><path d="M4.281 0H.844v-6.484H4.14v.687H1.609v2.156h2.344v.688H1.61v2.265h2.672z"/></symbol><symbol id="D" overflow="visible"><path d="M4.14-5.797H1.61v2.25h2.343v.672H1.61V0H.844v-6.484H4.14z"/></symbol><symbol id="E" overflow="visible"><path d="M5.688-.438C5.038-.07 4.316.11 3.515.11c-.918 0-1.664-.296-2.235-.89-.574-.602-.86-1.395-.86-2.375 0-1 .317-1.817.954-2.453.633-.645 1.437-.97 2.406-.97.707 0 1.3.118 1.781.345v.828c-.523-.332-1.14-.5-1.86-.5-.73 0-1.327.25-1.796.75-.46.5-.687 1.152-.687 1.953 0 .812.21 1.453.64 1.922.438.469 1.024.703 1.766.703.5 0 .937-.098 1.312-.297v-1.812H3.515v-.688h2.172z"/></symbol><symbol id="F" overflow="visible"><path d="M5.719 0h-.766v-2.953H1.61V0H.844v-6.484h.765v2.843h3.344v-2.843h.766z"/></symbol><symbol id="G" overflow="visible"><path d="M1.61 0H.843v-6.484h.765z"/></symbol><symbol id="H" overflow="visible"><path d="M4.469-1.906c0 .336-.063.625-.188.875s-.297.465-.515.64c-.211.168-.453.293-.735.375A3.292 3.292 0 0 1 1.5.047a4.221 4.221 0 0 1-.5-.11 2.004 2.004 0 0 1-.36-.156 2.61 2.61 0 0 1-.218-.156.353.353 0 0 1-.094-.187 2.629 2.629 0 0 1-.015-.344v-.25c.007-.07.02-.13.03-.172.02-.05.04-.082.063-.094A.179.179 0 0 1 .5-1.453c.04 0 .102.027.188.078.082.055.19.117.328.188.132.062.289.12.468.171.188.055.399.079.641.079.156 0 .297-.016.422-.047.125-.04.226-.094.312-.157a.685.685 0 0 0 .188-.265.767.767 0 0 0 .078-.344A.53.53 0 0 0 3-2.11a1.21 1.21 0 0 0-.297-.28 2.286 2.286 0 0 0-.437-.22c-.157-.07-.325-.148-.5-.234a8.779 8.779 0 0 1-.5-.265 2.186 2.186 0 0 1-.422-.36 1.968 1.968 0 0 1-.313-.5 1.866 1.866 0 0 1-.11-.687c0-.301.056-.567.173-.797a1.6 1.6 0 0 1 .453-.578c.187-.156.41-.27.672-.344.27-.07.55-.11.844-.11.144 0 .289.012.437.032.156.023.297.055.422.094.133.043.254.09.36.14.1.043.171.078.202.11s.051.062.063.093c.02.024.031.055.031.094a.582.582 0 0 1 .016.14c.008.055.015.122.015.204 0 .094-.007.18-.015.25a.806.806 0 0 1-.016.156.15.15 0 0 1-.062.094c-.024.023-.047.031-.078.031s-.09-.02-.172-.062a4.03 4.03 0 0 0-.297-.157 3.048 3.048 0 0 0-.406-.14 1.482 1.482 0 0 0-.485-.078c-.148 0-.273.023-.375.062a.69.69 0 0 0-.265.14.797.797 0 0 0-.157.22.76.76 0 0 0-.047.265c0 .149.036.274.11.375.082.106.187.2.312.281.133.075.282.149.438.22.164.073.332.151.5.234.176.074.347.164.515.265.164.094.313.215.438.36.125.136.223.296.297.484.082.187.125.414.125.672z"/></symbol><symbol id="I" overflow="visible"><path d="M3.953-.875c0 .094-.008.172-.016.234a.7.7 0 0 1-.015.141.88.88 0 0 0-.031.094.439.439 0 0 1-.079.094c-.042.03-.109.078-.203.14a1.594 1.594 0 0 1-.328.14c-.117.04-.246.071-.39.094a2.472 2.472 0 0 1-1.344-.11A1.586 1.586 0 0 1 .89-.515a2.102 2.102 0 0 1-.407-.75A3.594 3.594 0 0 1 .36-2.28c0-.438.051-.817.157-1.14.113-.321.27-.587.468-.798.196-.207.426-.363.688-.468.27-.102.566-.157.89-.157.133 0 .266.016.391.047.125.024.238.055.344.094.113.031.21.074.297.125a.711.711 0 0 1 .187.14c.04.032.067.06.078.079.02.023.032.054.032.093a.841.841 0 0 1 .015.157c.008.054.016.12.016.203 0 .187-.016.324-.047.406-.031.074-.074.11-.125.11a.3.3 0 0 1-.172-.063 1.87 1.87 0 0 0-.234-.156 1.254 1.254 0 0 0-.297-.157 1.334 1.334 0 0 0-.422-.062c-.324 0-.574.125-.75.375-.168.242-.25.601-.25 1.078 0 .242.02.453.062.64.04.18.102.329.188.454a.82.82 0 0 0 .312.265c.133.063.286.094.454.094.164 0 .312-.023.437-.078.125-.05.227-.11.313-.172a2.3 2.3 0 0 0 .234-.172c.062-.05.117-.078.172-.078.02 0 .039.012.062.031.02.012.036.043.047.094.008.043.02.102.031.172.008.062.016.148.016.25z"/></symbol><symbol id="J" overflow="visible"><path d="M4.813-.172a.179.179 0 0 1-.032.094c-.011.023-.043.043-.093.062-.043.012-.106.02-.188.032a3.176 3.176 0 0 1-.61 0c-.074-.012-.136-.02-.187-.032a.26.26 0 0 1-.094-.062.15.15 0 0 1-.03-.094v-2.5c0-.219-.017-.383-.048-.5a.885.885 0 0 0-.14-.312.477.477 0 0 0-.22-.203.68.68 0 0 0-.327-.079.861.861 0 0 0-.485.172 2.86 2.86 0 0 0-.5.5v2.922a.179.179 0 0 1-.03.094.31.31 0 0 1-.11.062c-.043.012-.106.02-.188.032a2.77 2.77 0 0 1-.594 0C.863.004.801-.004.75-.016a.26.26 0 0 1-.094-.062.15.15 0 0 1-.031-.094v-6.484a.1.1 0 0 1 .031-.078.15.15 0 0 1 .094-.063.935.935 0 0 1 .187-.047 3.032 3.032 0 0 1 .594 0 .72.72 0 0 1 .188.047c.05.012.086.031.11.063.019.023.03.047.03.078v2.437c.22-.207.438-.363.657-.468a1.61 1.61 0 0 1 .687-.157c.3 0 .55.055.75.157.207.093.375.23.5.406.133.168.227.367.281.594.051.23.079.507.079.828z"/></symbol><symbol id="K" overflow="visible"><path d="M5.063-2.406c0 .375-.055.719-.157 1.031-.093.305-.242.57-.437.797-.2.219-.45.39-.75.515A3.03 3.03 0 0 1 2.656.11c-.398 0-.742-.054-1.031-.156a2.085 2.085 0 0 1-.719-.469 1.993 1.993 0 0 1-.422-.765A3.827 3.827 0 0 1 .36-2.328c0-.375.047-.711.141-1.016.102-.312.254-.578.453-.797.195-.226.445-.398.75-.515.3-.125.656-.188 1.063-.188a3 3 0 0 1 1.015.157c.29.105.532.261.719.468.195.211.336.465.422.766.094.305.14.652.14 1.047zm-1.266.047a2.77 2.77 0 0 0-.063-.594 1.367 1.367 0 0 0-.171-.484.93.93 0 0 0-.329-.313 1.12 1.12 0 0 0-.515-.11c-.188 0-.352.04-.485.11a.86.86 0 0 0-.343.297 1.528 1.528 0 0 0-.203.469c-.043.18-.063.382-.063.61 0 .218.016.42.047.608.039.18.101.336.187.47a.814.814 0 0 0 .329.312c.132.074.304.11.515.11.188 0 .348-.032.485-.095a.92.92 0 0 0 .328-.297c.093-.132.16-.289.203-.468a2.38 2.38 0 0 0 .078-.625z"/></symbol><symbol id="L" overflow="visible"><path d="M1.86-.172a.179.179 0 0 1-.032.094.31.31 0 0 1-.11.062c-.042.012-.105.02-.187.032a2.77 2.77 0 0 1-.593 0C.863.004.8-.004.75-.016a.26.26 0 0 1-.094-.062.15.15 0 0 1-.031-.094v-6.484a.1.1 0 0 1 .031-.078.15.15 0 0 1 .094-.063.935.935 0 0 1 .188-.047 3.032 3.032 0 0 1 .593 0 .72.72 0 0 1 .188.047c.05.012.086.031.11.063.019.023.03.046.03.078z"/></symbol><symbol id="N" overflow="visible"><path d="M5.922-.484c.039.117.066.21.078.28.008.075-.008.126-.047.157-.031.031-.094.05-.187.063a4.714 4.714 0 0 1-.782 0c-.093 0-.168-.008-.218-.016a.26.26 0 0 1-.094-.063.252.252 0 0 1-.047-.109l-.437-1.281H1.797L1.39-.203a.402.402 0 0 1-.047.11.24.24 0 0 1-.11.077.51.51 0 0 1-.203.032 3.713 3.713 0 0 1-.687 0 .389.389 0 0 1-.188-.063C.126-.086.113-.144.126-.219A1.31 1.31 0 0 1 .202-.5l1.969-5.656a.53.53 0 0 1 .062-.125.21.21 0 0 1 .125-.078.791.791 0 0 1 .235-.032c.101-.007.238-.015.406-.015.195 0 .352.008.469.015a.93.93 0 0 1 .265.032c.063.011.11.039.141.078a.392.392 0 0 1 .078.14zM2.984-5.156l-.906 2.703h1.813z"/></symbol><symbol id="P" overflow="visible"><path d="M3.219-.594c0 .137-.012.246-.031.328-.012.075-.032.125-.063.157s-.078.062-.14.093c-.055.02-.122.036-.204.047a1.91 1.91 0 0 1-.25.047 2.858 2.858 0 0 1-.265.016c-.25 0-.465-.032-.64-.094a1.172 1.172 0 0 1-.454-.281 1.383 1.383 0 0 1-.266-.485 2.646 2.646 0 0 1-.078-.703v-2.25H.313c-.063 0-.118-.035-.157-.11a1.257 1.257 0 0 1-.047-.405c0-.094.004-.172.016-.235.008-.062.02-.113.031-.156.02-.04.04-.066.063-.078a.179.179 0 0 1 .094-.031h.515v-.985a.1.1 0 0 1 .031-.078.15.15 0 0 1 .094-.062.935.935 0 0 1 .188-.047 3.176 3.176 0 0 1 .61 0 .72.72 0 0 1 .187.047c.05.011.082.03.093.062.02.024.032.047.032.078v.985h.968c.032 0 .055.011.078.03.032.013.051.04.063.079a.37.37 0 0 1 .031.156c.008.063.016.14.016.235 0 .187-.016.324-.047.406-.031.074-.078.11-.14.11h-.97v2.062c0 .242.036.422.11.547.082.117.223.172.422.172a1.255 1.255 0 0 0 .313-.047L3-1.031c.031-.02.055-.031.078-.031.02 0 .04.011.063.03.02.012.035.032.047.063a.582.582 0 0 1 .015.14c.008.063.016.141.016.235z"/></symbol><symbol id="Q" overflow="visible"><path d="M4.797-.172a.179.179 0 0 1-.031.094.355.355 0 0 1-.094.062c-.031.012-.086.02-.156.032a2.019 2.019 0 0 1-.516 0c-.062-.012-.117-.02-.156-.032a.26.26 0 0 1-.094-.062.263.263 0 0 1-.016-.094v-.5c-.25.262-.5.461-.75.594a1.73 1.73 0 0 1-.78.187c-.306 0-.56-.047-.766-.14a1.37 1.37 0 0 1-.485-.407 1.708 1.708 0 0 1-.281-.593 3.69 3.69 0 0 1-.078-.844v-2.688a.1.1 0 0 1 .031-.078.15.15 0 0 1 .094-.062.935.935 0 0 1 .187-.047 2.628 2.628 0 0 1 .594 0c.082.012.148.027.203.047.05.012.082.031.094.062.02.024.031.047.031.079v2.484c0 .23.016.406.047.531.031.117.078.219.14.313a.69.69 0 0 0 .235.203.78.78 0 0 0 .797-.11c.156-.113.328-.28.516-.5v-2.922c0-.03.003-.054.015-.078a.15.15 0 0 1 .094-.062.935.935 0 0 1 .187-.047 2.77 2.77 0 0 1 .61 0 .72.72 0 0 1 .187.047c.051.012.086.031.11.062.02.024.03.047.03.078z"/></symbol><symbol id="R" overflow="visible"><path d="M4.797-.172c0 .043-.012.074-.031.094a.355.355 0 0 1-.25.094 2.019 2.019 0 0 1-.5 0 .358.358 0 0 1-.25-.094c-.024-.02-.032-.05-.032-.094v-.484c-.218.242-.453.43-.703.562-.25.133-.527.203-.828.203-.336 0-.62-.062-.86-.187A1.665 1.665 0 0 1 .782-.61a2.136 2.136 0 0 1-.312-.766 4.434 4.434 0 0 1-.094-.938c0-.382.04-.734.125-1.046.082-.313.203-.579.36-.797.163-.219.367-.383.609-.5a1.76 1.76 0 0 1 .828-.188c.238 0 .457.055.656.156.207.094.41.243.61.438v-2.39c0-.032.003-.055.015-.079a.15.15 0 0 1 .094-.062.935.935 0 0 1 .187-.047 2.77 2.77 0 0 1 .61 0 .72.72 0 0 1 .187.047c.051.011.086.031.11.062.02.024.03.047.03.078zM3.563-3.109a2.764 2.764 0 0 0-.516-.5.856.856 0 0 0-.516-.188.678.678 0 0 0-.406.125.954.954 0 0 0-.281.328 1.574 1.574 0 0 0-.172.438c-.031.168-.047.34-.047.515 0 .188.016.371.047.547.031.168.078.32.14.453.07.137.16.246.266.328a.7.7 0 0 0 .438.125.933.933 0 0 0 .25-.03 1.235 1.235 0 0 0 .5-.344c.093-.094.191-.204.296-.329z"/></symbol><symbol id="S" overflow="visible"><path d="M4.688-2.5c0 .156-.04.273-.11.344-.062.074-.156.11-.281.11H1.625c0 .187.02.359.062.515.051.148.125.277.22.39a.834.834 0 0 0 .374.235c.156.054.336.078.547.078.219 0 .406-.016.563-.047.164-.031.304-.063.421-.094.125-.039.227-.078.313-.11a.583.583 0 0 1 .187-.046c.032 0 .055.008.079.016.02.011.035.03.046.062a.516.516 0 0 1 .016.125c.008.055.016.121.016.203v.188a.7.7 0 0 1-.016.14.179.179 0 0 1-.031.094.238.238 0 0 1-.047.063.6.6 0 0 1-.172.093 2.197 2.197 0 0 1-.375.125 6.192 6.192 0 0 1-.5.078c-.187.032-.39.047-.61.047-.398 0-.741-.047-1.03-.14A1.85 1.85 0 0 1 .5-1.234a3.758 3.758 0 0 1-.14-1.078c0-.395.05-.75.156-1.063.101-.312.25-.578.437-.797.195-.219.43-.383.703-.5.282-.113.598-.172.953-.172.364 0 .676.059.938.172.258.106.473.258.64.453.176.188.301.414.376.672.082.262.125.547.125.86zm-1.204-.344c.008-.351-.062-.629-.218-.828-.149-.195-.375-.297-.688-.297a.93.93 0 0 0-.422.094.689.689 0 0 0-.281.234 1.224 1.224 0 0 0-.172.36c-.043.136-.07.281-.078.437z"/></symbol><symbol id="T" overflow="visible"><path d="M4.813-.172a.179.179 0 0 1-.032.094c-.011.023-.043.043-.093.062-.043.012-.106.02-.188.032a3.176 3.176 0 0 1-.61 0c-.074-.012-.136-.02-.187-.032a.26.26 0 0 1-.094-.062.15.15 0 0 1-.03-.094v-2.5c0-.219-.017-.383-.048-.5a.885.885 0 0 0-.14-.312.477.477 0 0 0-.22-.203.68.68 0 0 0-.327-.079.861.861 0 0 0-.485.172 2.86 2.86 0 0 0-.5.5v2.922a.179.179 0 0 1-.03.094.31.31 0 0 1-.11.062c-.043.012-.106.02-.188.032a2.77 2.77 0 0 1-.594 0C.863.004.801-.004.75-.016a.26.26 0 0 1-.094-.062.15.15 0 0 1-.031-.094v-4.39c0-.032.004-.055.016-.079a.15.15 0 0 1 .093-.062.621.621 0 0 1 .157-.047 2.019 2.019 0 0 1 .516 0c.07.012.124.027.155.047.04.012.07.031.094.062.02.024.031.047.031.079v.5c.239-.258.485-.454.735-.579a1.64 1.64 0 0 1 .781-.203c.3 0 .55.055.75.157.207.093.375.226.5.39.133.168.227.367.281.594.051.23.078.5.078.812z"/></symbol><symbol id="U" overflow="visible"><path d="M5.953-.453c0 .074-.016.14-.047.203a.345.345 0 0 1-.11.156.532.532 0 0 1-.155.078.497.497 0 0 1-.172.032h-.563c-.117 0-.215-.012-.297-.032a.844.844 0 0 1-.234-.125 1.635 1.635 0 0 1-.203-.25 4.909 4.909 0 0 1-.219-.406L2.375-3.78a12.57 12.57 0 0 1-.547-1.172c.008.242.016.48.016.719.008.23.015.468.015.718v3.328a.179.179 0 0 1-.03.094c-.013.031-.044.059-.095.078-.043.012-.101.02-.172.032a2.77 2.77 0 0 1-.578 0C.91.004.852-.004.812-.016A.21.21 0 0 1 .72-.094a.15.15 0 0 1-.032-.094v-5.734c0-.144.047-.254.141-.328a.485.485 0 0 1 .328-.125h.703c.125 0 .227.012.313.031a.607.607 0 0 1 .219.11c.07.043.14.109.203.203.062.086.125.187.187.312l1.235 2.344c.07.137.144.273.218.406.07.137.141.278.203.422.063.137.125.274.188.406l.187.375a35.036 35.036 0 0 1-.03-.718v-3.704a.1.1 0 0 1 .03-.078.239.239 0 0 1 .094-.078.522.522 0 0 1 .188-.031 2.71 2.71 0 0 1 .562 0c.082 0 .145.012.188.031.039.024.066.047.078.078.02.024.031.047.031.078z"/></symbol><symbol id="V" overflow="visible"><path d="M4.36-.156a.165.165 0 0 1-.047.125.39.39 0 0 1-.157.047 2.64 2.64 0 0 1-.312.015c-.149 0-.258-.008-.328-.015a.347.347 0 0 1-.141-.047c-.023-.032-.031-.07-.031-.125V-.5a2.12 2.12 0 0 1-.625.453c-.23.102-.485.156-.766.156-.23 0-.445-.03-.64-.093-.2-.051-.372-.133-.516-.25a1.38 1.38 0 0 1-.328-.454 1.477 1.477 0 0 1-.125-.625c0-.257.05-.484.156-.671.102-.188.254-.344.453-.47.195-.124.442-.21.735-.265a5.1 5.1 0 0 1 1.03-.094h.438v-.265c0-.133-.015-.254-.047-.36a.752.752 0 0 0-.14-.265.542.542 0 0 0-.266-.156 1.388 1.388 0 0 0-.39-.047 1.9 1.9 0 0 0-.563.078 2.315 2.315 0 0 0-.422.156c-.125.055-.23.106-.312.156a.483.483 0 0 1-.203.063.15.15 0 0 1-.094-.031.371.371 0 0 1-.078-.11.995.995 0 0 1-.032-.156 1.1 1.1 0 0 1-.015-.203c0-.102.004-.18.015-.235a.53.53 0 0 1 .094-.171.895.895 0 0 1 .25-.157c.113-.062.25-.113.406-.156a3.416 3.416 0 0 1 1.063-.172c.344 0 .633.04.875.11.25.062.453.168.61.312.163.137.28.313.343.531.07.22.11.48.11.782zM3.155-2.031h-.484c-.2 0-.371.015-.516.047a.875.875 0 0 0-.343.125.581.581 0 0 0-.188.218.619.619 0 0 0-.062.282c0 .187.054.336.171.437.114.106.274.156.485.156.176 0 .336-.039.484-.125.145-.093.297-.222.453-.39z"/></symbol><symbol id="W" overflow="visible"><path d="M7.61-.172a.179.179 0 0 1-.032.094c-.012.023-.043.043-.094.062-.043.012-.105.02-.187.032a2.77 2.77 0 0 1-.61 0c-.074-.012-.136-.02-.187-.032a.26.26 0 0 1-.094-.062.15.15 0 0 1-.031-.094v-2.61c0-.144-.016-.273-.047-.39a.751.751 0 0 0-.125-.312.477.477 0 0 0-.219-.204.598.598 0 0 0-.312-.078c-.149 0-.297.059-.453.172a3.145 3.145 0 0 0-.485.5v2.922a.179.179 0 0 1-.03.094.31.31 0 0 1-.11.062c-.043.012-.106.02-.188.032a2.627 2.627 0 0 1-.593 0c-.075-.012-.137-.02-.188-.032a.26.26 0 0 1-.094-.062.15.15 0 0 1-.031-.094v-2.61c0-.144-.016-.273-.047-.39a.751.751 0 0 0-.125-.312.477.477 0 0 0-.219-.204.598.598 0 0 0-.312-.078c-.149 0-.297.059-.453.172a3.145 3.145 0 0 0-.485.5v2.922a.179.179 0 0 1-.03.094.31.31 0 0 1-.11.062c-.043.012-.106.02-.188.032a2.77 2.77 0 0 1-.593 0C.863.004.8-.004.75-.016a.26.26 0 0 1-.094-.062.15.15 0 0 1-.031-.094v-4.39c0-.032.004-.055.016-.079a.15.15 0 0 1 .093-.062.621.621 0 0 1 .157-.047 2.019 2.019 0 0 1 .516 0c.07.012.124.027.155.047.04.012.07.031.094.062.02.024.031.047.031.079v.5c.239-.258.477-.454.72-.579.238-.132.491-.203.765-.203.176 0 .336.024.484.063.145.031.27.086.375.156.114.074.211.164.297.266.082.093.156.199.219.312.125-.133.25-.254.375-.36.125-.1.25-.187.375-.25s.25-.109.375-.14.25-.047.375-.047c.289 0 .535.055.734.157.207.093.367.226.485.39.125.168.21.367.265.594.051.23.078.469.078.719z"/></symbol><symbol id="Z" overflow="visible"><path d="M3.438-4.156c0 .117-.008.215-.016.297a.888.888 0 0 1-.016.172.21.21 0 0 1-.047.093.213.213 0 0 1-.093.016.212.212 0 0 1-.079-.016l-.109-.03-.14-.032a.463.463 0 0 0-.376.015.956.956 0 0 0-.203.141 1.321 1.321 0 0 0-.234.234 2.772 2.772 0 0 0-.266.36v2.734a.179.179 0 0 1-.03.094.31.31 0 0 1-.11.062c-.043.012-.106.02-.188.032a2.77 2.77 0 0 1-.594 0C.863.004.801-.004.75-.016a.26.26 0 0 1-.094-.062.15.15 0 0 1-.031-.094v-4.39c0-.032.004-.055.016-.079a.15.15 0 0 1 .093-.062.621.621 0 0 1 .157-.047 2.019 2.019 0 0 1 .516 0c.07.012.124.027.155.047.04.012.07.031.094.062.02.024.031.047.031.079v.546c.114-.164.22-.3.313-.406.102-.101.203-.187.297-.25s.18-.101.265-.125a.885.885 0 0 1 .282-.047c.039 0 .086.008.14.016.051 0 .102.008.157.016.05.011.097.027.14.046.04.012.067.028.078.047.02.012.036.028.047.047.008.024.016.047.016.078a.684.684 0 0 1 .015.157v.28z"/></symbol><symbol id="aO" overflow="visible"><path d="M5.313-1.906c0 .219-.032.422-.094.61a1.639 1.639 0 0 1-.656.859c-.149.093-.313.18-.5.25a3.56 3.56 0 0 1-.594.14C3.258-.016 3.03 0 2.78 0H1.078a.452.452 0 0 1-.281-.094C.723-.156.687-.258.687-.406V-5.97c0-.144.036-.25.11-.312a.452.452 0 0 1 .281-.094h1.61c.382 0 .71.031.984.094.27.062.5.164.687.297.188.136.329.308.422.515.102.2.157.438.157.72 0 .147-.024.292-.063.437a1.644 1.644 0 0 1-.172.375c-.074.105-.168.199-.281.28-.106.087-.23.157-.375.22.176.03.344.09.5.171.156.075.285.18.39.313.114.125.204.277.266.453.07.18.11.375.11.594zM3.64-4.594a.9.9 0 0 0-.063-.343.605.605 0 0 0-.187-.25.653.653 0 0 0-.297-.157 1.51 1.51 0 0 0-.469-.062h-.656v1.656h.718c.188 0 .336-.02.454-.063A.931.931 0 0 0 3.42-4c.071-.07.126-.16.157-.266a.908.908 0 0 0 .063-.328zm.328 2.72a.968.968 0 0 0-.078-.392.782.782 0 0 0-.22-.28.95.95 0 0 0-.359-.188 2.306 2.306 0 0 0-.578-.063H1.97v1.813h.937c.176 0 .328-.02.453-.063a.862.862 0 0 0 .313-.172.762.762 0 0 0 .219-.265.942.942 0 0 0 .078-.39z"/></symbol><symbol id="ab" overflow="visible"><path d="M5.64-2.36c0 .387-.058.735-.171 1.047a2.157 2.157 0 0 1-.485.766 2.12 2.12 0 0 1-.765.484 3.249 3.249 0 0 1-1.031.157c-.356 0-.68-.055-.97-.157a2.056 2.056 0 0 1-.734-.453A1.931 1.931 0 0 1 1-1.25a3.157 3.157 0 0 1-.156-1.047V-6.25c0-.02.004-.04.015-.063.008-.019.032-.035.063-.046.031-.008.07-.02.125-.032a1.296 1.296 0 0 1 .547.031c.031.012.05.028.062.047.02.024.032.043.032.063v3.86c0 .292.03.546.093.765.07.219.176.402.313.547.144.148.312.262.5.344.195.074.414.109.656.109.238 0 .453-.035.64-.11.196-.07.364-.179.5-.327.133-.145.235-.32.298-.532.07-.218.109-.468.109-.75V-6.25c0-.02.004-.039.016-.062a.22.22 0 0 1 .078-.047c.03-.008.07-.02.125-.032a1.3 1.3 0 0 1 .406 0l.125.032c.031.011.05.027.062.047.02.023.032.043.032.062z"/></symbol><symbol id="ac" overflow="visible"><path d="M3.063-.453a.791.791 0 0 1-.032.234.237.237 0 0 1-.062.125.62.62 0 0 1-.11.078c-.054.02-.117.036-.187.047-.063.008-.133.02-.203.032A2.134 2.134 0 0 1 1.64 0a.95.95 0 0 1-.391-.281 1.203 1.203 0 0 1-.234-.469 3.047 3.047 0 0 1-.063-.672v-2.594H.328c-.055 0-.094-.023-.125-.078a.495.495 0 0 1-.047-.25.73.73 0 0 1 .047-.266c.02-.03.04-.05.063-.062a.164.164 0 0 1 .062-.016h.625v-1.046c0-.032.004-.051.016-.063.008-.02.031-.035.062-.047a.38.38 0 0 1 .125-.047 1.204 1.204 0 0 1 .39 0c.052.012.095.028.126.047.031.012.05.028.062.047.02.012.032.031.032.063v1.046H2.89c.03 0 .054.008.078.016.02.012.035.031.047.063a.21.21 0 0 1 .03.109.841.841 0 0 1 .016.156c0 .117-.015.2-.046.25-.032.055-.075.078-.125.078H1.766v2.485c0 .304.039.531.125.687.093.156.254.235.484.235a.997.997 0 0 0 .203-.016l.156-.047.125-.047a.179.179 0 0 1 .094-.031c.008 0 .02.008.031.016.02.011.036.027.047.046a.291.291 0 0 1 .016.094c.008.043.015.09.015.14z"/></symbol><symbol id="ad" overflow="visible"><path d="M3.531-1.328c0 .23-.043.433-.125.61-.086.179-.203.327-.36.452A1.553 1.553 0 0 1 2.5 0a2.47 2.47 0 0 1-1.156.047 3.93 3.93 0 0 1-.375-.078 1.999 1.999 0 0 1-.297-.125A1.111 1.111 0 0 1 .5-.266a.34.34 0 0 1-.078-.14 1.326 1.326 0 0 1-.016-.235v-.156a.375.375 0 0 1 .031-.11.132.132 0 0 1 .032-.062c.02-.008.039-.015.062-.015.04 0 .094.027.156.078.07.043.16.09.266.14a1.814 1.814 0 0 0 .86.203c.132 0 .257-.007.374-.03.114-.032.211-.071.297-.126a.624.624 0 0 0 .188-.219c.039-.093.062-.203.062-.328s-.03-.226-.093-.312a.916.916 0 0 0-.25-.219 2.07 2.07 0 0 0-.36-.187c-.137-.051-.273-.102-.406-.157-.137-.062-.273-.125-.406-.187a1.363 1.363 0 0 1-.36-.266 1.363 1.363 0 0 1-.265-.36A1.293 1.293 0 0 1 .5-3.468c0-.164.031-.328.094-.484.07-.164.175-.305.312-.422.133-.125.301-.223.5-.297A2.224 2.224 0 0 1 2.47-4.75c.125.023.234.047.328.078a.814.814 0 0 1 .234.094c.07.031.125.062.156.094.04.023.067.043.079.062a.231.231 0 0 1 .015.078.291.291 0 0 1 .016.094.516.516 0 0 1 .015.125.7.7 0 0 1-.015.14.433.433 0 0 1-.016.11.091.091 0 0 1-.047.047c-.011.012-.027.015-.047.015a.36.36 0 0 1-.14-.046 1.311 1.311 0 0 0-.219-.125 1.795 1.795 0 0 0-.312-.11 1.268 1.268 0 0 0-.407-.062c-.136 0-.257.015-.36.047a.69.69 0 0 0-.265.14.627.627 0 0 0-.156.203.724.724 0 0 0-.047.25c0 .137.031.246.094.328.07.086.16.165.266.235.101.062.222.12.359.172.133.054.27.11.406.172.145.054.285.117.422.187.133.063.254.149.36.25.101.094.187.215.25.36.062.136.093.296.093.484z"/></symbol><symbol id="ae" overflow="visible"><path d="M2.781 0l-.594 1.625c-.023.05-.074.094-.156.125a1.08 1.08 0 0 1-.36.047c-.093 0-.167-.008-.218-.016a.38.38 0 0 1-.125-.047.162.162 0 0 1-.047-.078c0-.031.008-.07.031-.11L1.922 0a.22.22 0 0 1-.094-.063.15.15 0 0 1-.031-.093L.203-4.391a.554.554 0 0 1-.031-.172c0-.039.008-.07.031-.093a.38.38 0 0 1 .125-.047c.063-.008.145-.016.25-.016.094 0 .164.008.219.016.062 0 .11.012.14.031A.1.1 0 0 1 1-4.609c.02.023.039.054.062.093L2.328-.969h.016l1.218-3.578c.02-.062.04-.098.063-.11a.38.38 0 0 1 .125-.046c.062-.008.144-.016.25-.016.094 0 .164.008.219.016a.277.277 0 0 1 .125.047.111.111 0 0 1 .047.093.549.549 0 0 1-.032.157z"/></symbol><symbol id="af" overflow="visible"><path d="M4.875-2.39c0 .367-.047.699-.14 1-.094.304-.235.562-.423.78s-.43.391-.718.516c-.281.125-.61.188-.985.188-.367 0-.683-.055-.953-.156A1.847 1.847 0 0 1 .97-.547a2.102 2.102 0 0 1-.406-.75 3.536 3.536 0 0 1-.125-1c0-.363.046-.695.14-1 .094-.3.235-.562.422-.781.195-.227.438-.399.719-.516.281-.125.61-.187.984-.187.363 0 .68.058.953.172.27.105.492.261.672.468.188.211.32.461.406.75.094.293.141.625.141 1zm-.86.046c0-.238-.023-.46-.062-.672a1.583 1.583 0 0 0-.219-.562 1.154 1.154 0 0 0-.422-.375c-.167-.094-.382-.14-.64-.14-.242 0-.45.042-.625.124a1.167 1.167 0 0 0-.422.36c-.117.156-.2.343-.25.562-.055.211-.078.438-.078.688s.02.484.062.703c.04.21.114.39.22.547.1.156.241.28.421.375.176.093.395.14.656.14.227 0 .43-.039.61-.125.175-.082.316-.203.422-.36.113-.155.195-.335.25-.546.05-.219.078-.457.078-.719z"/></symbol><symbol id="ag" overflow="visible"><path d="M5.094-.125a.164.164 0 0 1-.016.063c0 .023-.023.042-.062.062a.582.582 0 0 1-.14.016 1.65 1.65 0 0 1-.438 0A.49.49 0 0 1 4.313 0a.323.323 0 0 1-.079-.063.252.252 0 0 1-.046-.109l-.594-1.5a2.61 2.61 0 0 0-.219-.469 1.576 1.576 0 0 0-.266-.375.928.928 0 0 0-.359-.234 1.152 1.152 0 0 0-.484-.094h-.563v2.719c0 .023-.012.043-.031.063a.088.088 0 0 1-.063.046c-.03.012-.078.02-.14.032a1.388 1.388 0 0 1-.406 0C1.008.004.969-.004.938-.016a.146.146 0 0 1-.079-.046.115.115 0 0 1-.015-.063v-5.906c0-.125.031-.211.094-.266a.375.375 0 0 1 .218-.078h1.36c.164 0 .3.008.406.016.102 0 .195.008.281.015.25.043.469.11.656.203s.344.215.47.36c.132.137.234.297.296.484.063.18.094.375.094.594s-.031.414-.094.578a1.32 1.32 0 0 1-.25.453 1.773 1.773 0 0 1-.39.344 2.271 2.271 0 0 1-.5.234 1.352 1.352 0 0 1 .531.438c.07.094.14.203.203.328.07.125.14.273.203.437L5-.484c.04.117.066.199.078.25.008.043.016.078.016.109zM3.828-4.609c0-.25-.058-.457-.172-.625-.117-.176-.304-.301-.562-.375a2.636 2.636 0 0 0-.281-.047 5.416 5.416 0 0 0-.407-.016h-.703v2.14h.828c.22 0 .407-.023.563-.077a.995.995 0 0 0 .656-.563c.05-.133.078-.281.078-.437z"/></symbol><symbol id="ai" overflow="visible"><path d="M4.61-3.438c0 .274-.024.555-.063.844-.031.281-.09.555-.172.813a3.15 3.15 0 0 1-.312.734c-.125.23-.293.43-.5.594a2.33 2.33 0 0 1-.72.406c-.273.094-.593.14-.968.14-.137 0-.273-.011-.406-.03A1.753 1.753 0 0 1 1.109 0C1.004-.031.914-.055.844-.078a.752.752 0 0 1-.172-.094.212.212 0 0 1-.063-.125A.95.95 0 0 1 .594-.5v-.172c0-.039.004-.07.015-.094a.091.091 0 0 1 .047-.046c.02-.008.04-.016.063-.016.039 0 .094.015.156.047.063.023.145.047.25.078.102.023.223.047.36.078.132.023.285.031.453.031.312 0 .582-.062.812-.187.227-.125.414-.285.563-.485.144-.207.253-.445.328-.718.07-.282.109-.57.109-.875a2.84 2.84 0 0 1-.625.28c-.242.075-.516.11-.828.11-.356 0-.656-.047-.906-.14A1.416 1.416 0 0 1 .813-3 1.422 1.422 0 0 1 .5-3.594a3.001 3.001 0 0 1-.094-.765c0-.282.04-.547.125-.797.082-.258.207-.485.375-.672.176-.195.399-.352.672-.469.27-.113.594-.172.969-.172.258 0 .492.04.703.11.207.062.383.156.531.28.157.126.285.278.39.454.102.18.188.383.25.61.063.23.11.48.142.75.03.261.046.538.046.827zm-.876-.093c0-.426-.027-.781-.078-1.063a2.024 2.024 0 0 0-.25-.703.92.92 0 0 0-.39-.375 1.164 1.164 0 0 0-.547-.125c-.219 0-.406.043-.563.125a.959.959 0 0 0-.36.313 1.436 1.436 0 0 0-.218.437 1.886 1.886 0 0 0-.062.5c0 .2.02.383.062.547.04.156.102.293.188.406.093.106.21.188.359.25.156.063.344.094.563.094.238 0 .472-.035.703-.11.226-.07.425-.171.593-.296z"/></symbol><symbol id="aj" overflow="visible"><path d="M4.531-2.047c0 .344-.062.652-.187.922a1.988 1.988 0 0 1-.485.672c-.21.18-.46.312-.75.406-.293.094-.617.14-.968.14-.2 0-.387-.015-.563-.046a2.68 2.68 0 0 1-.812-.219.981.981 0 0 1-.172-.094.14.14 0 0 1-.047-.062.311.311 0 0 1-.031-.063A.308.308 0 0 1 .5-.5v-.313A.73.73 0 0 1 .53-.922a.088.088 0 0 1 .047-.062A.164.164 0 0 1 .641-1c.03 0 .078.023.14.062.07.043.164.09.281.141.125.043.27.086.438.125.176.043.383.063.625.063.219 0 .414-.024.594-.079.187-.05.347-.128.484-.234.133-.113.238-.254.313-.422.07-.176.109-.383.109-.625 0-.207-.031-.39-.094-.547s-.164-.285-.297-.39a1.296 1.296 0 0 0-.515-.219c-.2-.05-.438-.078-.72-.078-.198 0-.37.012-.515.031a5.089 5.089 0 0 1-.406.016c-.094 0-.164-.02-.203-.063-.031-.039-.047-.117-.047-.234v-2.61c0-.101.02-.18.063-.234.05-.05.128-.078.234-.078h2.812c.032 0 .055.012.079.031a.1.1 0 0 1 .062.063c.02.023.031.058.031.109a.841.841 0 0 1 .016.156c0 .125-.016.219-.047.282s-.078.093-.14.093H1.561v1.797c.114-.02.227-.031.344-.031a6.61 6.61 0 0 1 .422-.016c.363 0 .68.047.953.14.281.087.508.212.688.376.187.156.328.352.422.578.093.219.14.469.14.75z"/></symbol><symbol id="an" overflow="visible"><path d="M5.672-.344a.48.48 0 0 1-.031.172.359.359 0 0 1-.094.11.728.728 0 0 1-.11.062.729.729 0 0 1-.124.016H5.03c-.086 0-.156-.012-.218-.032s-.125-.05-.188-.093a2.132 2.132 0 0 1-.172-.188 3.47 3.47 0 0 1-.187-.328L2.25-4.25a15.982 15.982 0 0 1-.61-1.187h-.015c.008.242.016.484.016.734.007.242.015.48.015.719v3.859c0 .023-.011.043-.031.063a.088.088 0 0 1-.062.046c-.032.012-.075.02-.125.032a1.296 1.296 0 0 1-.391 0C.992.004.953-.004.922-.016a.14.14 0 0 1-.063-.046.115.115 0 0 1-.015-.063v-5.89c0-.126.035-.211.11-.266a.345.345 0 0 1 .234-.094h.406c.094 0 .172.012.234.031.07.012.13.04.172.078.05.032.102.086.156.157.051.062.102.148.157.25l1.546 2.797c.094.18.18.351.266.515.094.156.18.313.266.469.082.156.16.312.234.469l.25.453c0-.258-.008-.531-.016-.813v-4.265c0-.02.004-.04.016-.063a.22.22 0 0 1 .078-.047.227.227 0 0 1 .125-.03 1.3 1.3 0 0 1 .203-.017c.063 0 .118.008.172.016.063 0 .102.012.125.031.031.012.051.028.063.047.02.024.031.043.031.063z"/></symbol><symbol id="ao" overflow="visible"><path d="M4.094-.125c0 .043-.016.074-.047.094-.024.023-.059.035-.11.047a1.3 1.3 0 0 1-.39 0 .31.31 0 0 1-.125-.047c-.024-.02-.031-.051-.031-.094v-.438c-.188.211-.403.372-.64.485a1.783 1.783 0 0 1-.767.172c-.23 0-.437-.031-.625-.094S1.008-.148.875-.266a1.085 1.085 0 0 1-.312-.421 1.351 1.351 0 0 1-.11-.563c0-.25.051-.469.156-.656.102-.188.25-.336.438-.453.187-.125.414-.22.687-.282a4.33 4.33 0 0 1 .938-.093h.61v-.344c0-.164-.024-.313-.063-.438a.697.697 0 0 0-.172-.328.634.634 0 0 0-.313-.203 1.25 1.25 0 0 0-.468-.078c-.2 0-.375.027-.532.078a2.315 2.315 0 0 0-.421.156 2.892 2.892 0 0 0-.297.157c-.086.054-.149.078-.188.078a.115.115 0 0 1-.062-.016.472.472 0 0 1-.063-.062.617.617 0 0 1-.031-.11v-.14c0-.07.004-.133.016-.188a.256.256 0 0 1 .078-.14c.05-.04.129-.086.234-.141.102-.063.227-.113.375-.156.145-.051.3-.094.469-.125.164-.032.332-.047.5-.047.32 0 .594.039.812.11.227.073.41.183.547.327.133.137.235.309.297.516.063.2.094.437.094.719zM3.28-2.141h-.687c-.23 0-.43.024-.594.063a1.224 1.224 0 0 0-.406.156.718.718 0 0 0-.313.625c0 .23.07.414.219.547.145.137.352.203.625.203.207 0 .398-.05.578-.156.188-.113.38-.281.578-.5z"/></symbol><symbol id="ap" overflow="visible"><path d="M4.39-.125c0 .023-.007.043-.015.063A.159.159 0 0 1 4.312 0a.582.582 0 0 1-.14.016 1.388 1.388 0 0 1-.203.015c-.094 0-.172-.008-.235-.015A.7.7 0 0 1 3.594 0 .264.264 0 0 1 3.5-.047a.323.323 0 0 1-.063-.078L1.562-2.578v2.453a.212.212 0 0 1-.015.078.359.359 0 0 1-.063.047.516.516 0 0 1-.125.016 1.388 1.388 0 0 1-.406 0A.49.49 0 0 1 .828 0a.249.249 0 0 1-.062-.047.155.155 0 0 1-.016-.078v-6.578c0-.031.004-.055.016-.078.007-.02.03-.035.062-.047a.49.49 0 0 1 .125-.016 1.388 1.388 0 0 1 .406 0c.051 0 .094.008.125.016.032.012.051.027.063.047a.231.231 0 0 1 .015.078v4L3.25-4.547a.297.297 0 0 1 .187-.125.311.311 0 0 1 .141-.031 1.3 1.3 0 0 1 .406 0c.063 0 .11.012.141.031.031.012.05.027.062.047.02.012.032.031.032.062a.282.282 0 0 1-.032.125 1.167 1.167 0 0 1-.109.125l-1.61 1.61L4.282-.36c.04.054.067.101.078.14.02.032.032.063.032.094z"/></symbol><symbol id="aq" overflow="visible"><path d="M4.578-.125a.11.11 0 0 1-.031.078.359.359 0 0 1-.063.047.401.401 0 0 1-.125.016 1.296 1.296 0 0 1-.39 0A.49.49 0 0 1 3.844 0a.249.249 0 0 1-.063-.047.155.155 0 0 1-.015-.078v-2.594c0-.25-.024-.453-.063-.61a1.61 1.61 0 0 0-.172-.405.662.662 0 0 0-.297-.25.885.885 0 0 0-.422-.094c-.199 0-.402.074-.609.219-.2.148-.414.359-.64.64v3.094a.212.212 0 0 1-.016.078.359.359 0 0 1-.063.047.516.516 0 0 1-.125.016 1.388 1.388 0 0 1-.406 0A.49.49 0 0 1 .828 0a.249.249 0 0 1-.062-.047.155.155 0 0 1-.016-.078v-6.578c0-.031.004-.055.016-.078.007-.02.03-.035.062-.047a.49.49 0 0 1 .125-.016 1.388 1.388 0 0 1 .406 0c.051 0 .094.008.125.016.032.012.051.027.063.047a.231.231 0 0 1 .015.078v2.656c.239-.25.473-.43.704-.547a1.53 1.53 0 0 1 .718-.187c.301 0 .551.054.75.156.196.094.36.227.485.39.125.169.21.368.265.594.063.23.094.5.094.813z"/></symbol><symbol id="ar" overflow="visible"><path d="M3.344-4.266v.188a.433.433 0 0 1-.016.11c-.012.03-.027.054-.047.062-.011.011-.031.015-.062.015a.33.33 0 0 1-.094-.015c-.031-.008-.074-.02-.125-.031a1.104 1.104 0 0 0-.172-.047.554.554 0 0 0-.187-.032.554.554 0 0 0-.235.063.828.828 0 0 0-.25.156 2.35 2.35 0 0 0-.281.297 7.88 7.88 0 0 0-.312.453v2.922a.212.212 0 0 1-.016.078.359.359 0 0 1-.063.047.516.516 0 0 1-.125.016 1.388 1.388 0 0 1-.406 0A.49.49 0 0 1 .828 0a.249.249 0 0 1-.062-.047.155.155 0 0 1-.016-.078v-4.437c0-.02.004-.04.016-.063.007-.02.03-.035.062-.047a.2.2 0 0 1 .11-.031.957.957 0 0 1 .36 0c.05 0 .085.012.108.031.032.012.051.028.063.047.008.023.015.043.015.063v.656c.125-.176.239-.32.344-.438.102-.113.203-.203.297-.265.102-.063.203-.102.297-.125a.885.885 0 0 1 .281-.047c.04 0 .086.008.14.015.052 0 .11.012.173.032a.676.676 0 0 1 .156.047c.05.011.086.027.11.046.019.012.03.028.03.047a.084.084 0 0 1 .016.047.342.342 0 0 1 .016.11v.171z"/></symbol><symbol id="as" overflow="visible"><path d="M5.64-5.516c0 .063-.007.121-.015.172a.2.2 0 0 1-.031.11.22.22 0 0 1-.047.078.134.134 0 0 1-.063.015c-.043 0-.109-.03-.203-.093a2.298 2.298 0 0 0-.36-.203 4.157 4.157 0 0 0-.562-.204 2.715 2.715 0 0 0-.765-.093c-.344 0-.657.062-.938.187s-.523.305-.719.531c-.187.23-.335.5-.437.813a3.163 3.163 0 0 0-.156 1.016c0 .406.054.765.172 1.078.113.312.27.578.468.796.196.22.43.387.703.5.282.106.586.157.922.157.196 0 .395-.02.594-.063.207-.05.399-.125.578-.219v-1.859H3.297c-.055 0-.094-.023-.125-.078a.599.599 0 0 1-.047-.266.73.73 0 0 1 .047-.266.088.088 0 0 1 .047-.062.213.213 0 0 1 .078-.015h2.031c.031 0 .063.007.094.015.039.012.078.031.11.063.03.023.05.058.062.11a.37.37 0 0 1 .03.155v2.422c0 .086-.015.157-.046.219s-.094.121-.187.172a1.974 1.974 0 0 1-.375.156 4.825 4.825 0 0 1-.953.234c-.169.02-.329.032-.485.032-.492 0-.934-.078-1.328-.235a2.791 2.791 0 0 1-.984-.656 2.937 2.937 0 0 1-.61-1.015 3.989 3.989 0 0 1-.203-1.313c0-.508.07-.969.219-1.375.156-.414.367-.766.64-1.047.282-.289.614-.515 1-.672.395-.164.832-.25 1.313-.25a3.669 3.669 0 0 1 1.25.219c.164.055.3.117.406.187a.859.859 0 0 1 .235.172c.05.043.082.09.093.141a.72.72 0 0 1 .032.234z"/></symbol><symbol id="at" overflow="visible"><path d="M4.547-2.531c0 .125-.04.219-.11.281a.32.32 0 0 1-.218.078H1.313c0 .242.023.461.078.656.05.2.133.372.25.516.113.137.258.246.437.328.188.074.414.11.688.11.207 0 .39-.016.547-.047.164-.04.304-.082.421-.125.125-.04.223-.078.297-.11a.513.513 0 0 1 .188-.062c.02 0 .039.008.062.015.02.012.035.032.047.063a.291.291 0 0 1 .016.094c.008.043.015.09.015.14a.49.49 0 0 1-.015.125.212.212 0 0 1-.016.078c0 .024-.008.043-.015.063a.238.238 0 0 1-.047.062.6.6 0 0 1-.172.094c-.086.031-.2.07-.344.11-.137.043-.297.078-.484.109s-.387.047-.594.047c-.367 0-.684-.055-.953-.156a1.778 1.778 0 0 1-.688-.454 1.963 1.963 0 0 1-.437-.75c-.094-.3-.14-.656-.14-1.062 0-.375.046-.711.14-1.016.101-.312.25-.57.437-.78.188-.208.41-.368.672-.485.258-.114.555-.172.89-.172.345 0 .634.058.876.172.25.105.453.258.61.453.155.187.269.414.343.672.082.25.125.515.125.797zm-.828-.25c.008-.426-.086-.758-.281-1-.2-.238-.497-.36-.891-.36-.2 0-.375.04-.531.11a1.12 1.12 0 0 0-.375.297 1.792 1.792 0 0 0-.235.437c-.054.168-.086.34-.093.516z"/></symbol><symbol id="au" overflow="visible"><path d="M4.578-.125a.11.11 0 0 1-.031.078.359.359 0 0 1-.063.047.401.401 0 0 1-.125.016 1.296 1.296 0 0 1-.39 0A.49.49 0 0 1 3.844 0a.249.249 0 0 1-.063-.047.155.155 0 0 1-.015-.078v-2.594c0-.25-.024-.453-.063-.61a1.61 1.61 0 0 0-.172-.405.662.662 0 0 0-.297-.25.885.885 0 0 0-.422-.094c-.199 0-.402.074-.609.219-.2.148-.414.359-.64.64v3.094a.212.212 0 0 1-.016.078.359.359 0 0 1-.063.047.516.516 0 0 1-.125.016 1.388 1.388 0 0 1-.406 0A.49.49 0 0 1 .828 0a.249.249 0 0 1-.062-.047.155.155 0 0 1-.016-.078v-4.438c0-.019.004-.039.016-.062.007-.02.03-.035.062-.047a.2.2 0 0 1 .11-.031.957.957 0 0 1 .36 0c.05 0 .085.012.108.031.031.012.051.027.063.047.008.023.015.043.015.062v.594c.25-.281.5-.484.75-.61.25-.132.5-.202.75-.202.301 0 .551.054.75.156.196.094.36.227.485.39.125.169.21.368.265.594.063.23.094.5.094.813z"/></symbol><symbol id="av" overflow="visible"><path d="M1.703-.125c0 .023-.012.043-.031.063a.088.088 0 0 1-.063.046c-.03.012-.078.02-.14.032a1.388 1.388 0 0 1-.407 0C1.008.004.97-.004.937-.016A.146.146 0 0 1 .86-.062a.115.115 0 0 1-.015-.063V-6.25c0-.02.004-.04.015-.063a.22.22 0 0 1 .078-.046c.04-.008.086-.02.141-.032a1.204 1.204 0 0 1 .531.032c.032.011.051.027.063.046.02.024.031.043.031.063z"/></symbol><symbol id="aw" overflow="visible"><path d="M4.766-3.203c0 .492-.043.937-.125 1.344-.075.406-.2.758-.375 1.047-.18.28-.414.507-.704.671C3.27.016 2.914.094 2.5.094c-.406 0-.75-.07-1.031-.203a1.641 1.641 0 0 1-.656-.64 2.996 2.996 0 0 1-.36-1.032 9.198 9.198 0 0 1-.094-1.39c0-.489.036-.938.11-1.344.082-.407.21-.754.39-1.047.176-.29.407-.516.688-.672.289-.157.648-.235 1.078-.235.406 0 .742.075 1.016.22a1.6 1.6 0 0 1 .656.624c.164.281.285.625.36 1.031.07.407.109.871.109 1.39zm-.86.062c0-.32-.015-.609-.047-.859a6.805 6.805 0 0 0-.093-.672 2.074 2.074 0 0 0-.172-.5 1.39 1.39 0 0 0-.266-.344A.844.844 0 0 0 3-5.719a1.408 1.408 0 0 0-.422-.062c-.281 0-.512.07-.687.203-.18.137-.32.32-.422.547-.094.23-.164.5-.203.812a9.674 9.674 0 0 0-.047.985c0 .48.023.886.078 1.218.05.336.129.606.234.813.102.21.239.367.406.469.165.093.368.14.61.14.176 0 .332-.03.469-.093.144-.063.265-.145.359-.25a1.37 1.37 0 0 0 .25-.407c.07-.156.129-.328.172-.515.039-.188.066-.39.078-.61.02-.218.031-.441.031-.672z"/></symbol><symbol id="ax" overflow="visible"><path d="M4.844-6.016c0 .063-.008.121-.016.172a.2.2 0 0 1-.031.11.238.238 0 0 1-.047.062.165.165 0 0 1-.078.016H2.89v5.531c0 .023-.012.043-.032.062a.088.088 0 0 1-.062.047c-.031.012-.078.02-.14.032a1.388 1.388 0 0 1-.407 0c-.055-.012-.094-.02-.125-.032a.146.146 0 0 1-.078-.047.115.115 0 0 1-.016-.062v-5.531H.234a.115.115 0 0 1-.062-.016.472.472 0 0 1-.063-.062.617.617 0 0 1-.03-.11v-.328a.644.644 0 0 1 .03-.125c.02-.031.04-.05.063-.062a.164.164 0 0 1 .062-.016h4.438c.031 0 .055.008.078.016.02.011.035.03.047.062.02.031.031.074.031.125a.841.841 0 0 1 .016.156z"/></symbol><symbol id="ay" overflow="visible"><path d="M1.563-.125a.212.212 0 0 1-.016.078.359.359 0 0 1-.063.047.516.516 0 0 1-.125.016 1.388 1.388 0 0 1-.406 0A.49.49 0 0 1 .828 0a.249.249 0 0 1-.062-.047.155.155 0 0 1-.016-.078v-4.438c0-.019.004-.039.016-.062.007-.02.03-.035.062-.047.031-.008.07-.02.125-.031a1.387 1.387 0 0 1 .406 0l.125.031c.032.012.051.027.063.047.008.023.016.043.016.063zm.093-5.938c0 .2-.039.336-.11.407-.073.062-.202.093-.39.093s-.32-.03-.39-.093c-.075-.07-.11-.203-.11-.39s.035-.317.11-.391c.07-.07.203-.11.39-.11.196 0 .328.04.39.11.071.062.11.187.11.375z"/></symbol><symbol id="az" overflow="visible"><path d="M4.547-.125a.213.213 0 0 1-.016.078A.359.359 0 0 1 4.47 0a.342.342 0 0 1-.11.016 1.17 1.17 0 0 1-.171.015C4.113.031 4.05.023 4 .016A.49.49 0 0 1 3.875 0a.257.257 0 0 1-.047-.047.155.155 0 0 1-.015-.078v-.578c-.25.273-.5.476-.75.61a1.616 1.616 0 0 1-.75.187 1.81 1.81 0 0 1-.75-.14 1.37 1.37 0 0 1-.485-.407 1.503 1.503 0 0 1-.265-.594 3.612 3.612 0 0 1-.079-.828v-2.687c0-.02.004-.04.016-.063.008-.02.031-.035.063-.047a.227.227 0 0 1 .125-.031 1.3 1.3 0 0 1 .39 0c.063 0 .11.012.14.031.032.012.052.027.063.047.008.023.016.043.016.063v2.593c0 .25.016.453.047.61.039.156.097.293.172.406.082.117.18.203.297.266.125.054.265.078.421.078.207 0 .41-.07.61-.22.195-.144.41-.35.64-.624v-3.11c0-.019.004-.039.016-.062.008-.02.031-.035.063-.047a.282.282 0 0 1 .125-.031 1.3 1.3 0 0 1 .406 0c.05 0 .094.012.125.031.031.012.05.028.062.047.008.023.016.043.016.063z"/></symbol><symbol id="aA" overflow="visible"><path d="M4.828-2.406c0 .387-.043.734-.125 1.047-.086.304-.21.562-.375.78a1.53 1.53 0 0 1-.594.5 1.925 1.925 0 0 1-.828.173c-.125 0-.246-.016-.36-.047a1.16 1.16 0 0 1-.327-.11 2.265 2.265 0 0 1-.313-.218 4.95 4.95 0 0 1-.344-.297V1.64c0 .02-.007.039-.015.062a.115.115 0 0 1-.063.047.237.237 0 0 1-.125.031 1.388 1.388 0 0 1-.406 0 .227.227 0 0 1-.125-.03c-.031-.013-.055-.028-.062-.048a.134.134 0 0 1-.016-.062v-6.203c0-.032.004-.051.016-.063.007-.02.03-.035.062-.047a.2.2 0 0 1 .11-.031.957.957 0 0 1 .344 0 .21.21 0 0 1 .109.031c.03.012.05.028.062.047a.11.11 0 0 1 .016.063v.593c.133-.132.265-.25.39-.343.125-.102.25-.188.375-.25a1.46 1.46 0 0 1 .391-.157c.133-.039.273-.062.422-.062.32 0 .594.062.812.187.227.125.414.297.563.516.144.219.25.477.312.766.063.28.094.586.094.906zm-.844.094c0-.227-.023-.446-.062-.657a1.732 1.732 0 0 0-.172-.562 1.014 1.014 0 0 0-.344-.39.843.843 0 0 0-.515-.157 1.11 1.11 0 0 0-.329.047 1.215 1.215 0 0 0-.296.156 1.718 1.718 0 0 0-.329.266 4.078 4.078 0 0 0-.375.39v1.766c.227.273.442.48.641.625.195.148.406.219.625.219A.971.971 0 0 0 3.36-.75c.145-.102.258-.234.344-.39.094-.165.16-.348.203-.547.051-.208.078-.415.078-.625z"/></symbol><symbol id="aB" overflow="visible"><path d="M4.703-1.64c0 .28-.055.53-.156.75-.094.21-.235.386-.422.53a2.064 2.064 0 0 1-.688.344c-.273.07-.585.11-.937.11-.324 0-.617-.031-.875-.094a2.014 2.014 0 0 1-.672-.312c-.18-.133-.312-.301-.406-.5a1.543 1.543 0 0 1-.14-.672c0-.207.03-.395.093-.563.062-.164.156-.316.281-.453.125-.145.274-.273.453-.39.188-.126.395-.243.625-.36-.199-.102-.375-.21-.53-.328a2.9 2.9 0 0 1-.392-.36 1.412 1.412 0 0 1-.312-.921c0-.227.039-.438.125-.625.082-.196.203-.368.36-.516.163-.145.374-.258.624-.344.25-.082.54-.125.875-.125.32 0 .598.043.828.125.239.074.438.18.594.313a.99.99 0 0 1 .328.469A1.57 1.57 0 0 1 4.391-4.5a1.577 1.577 0 0 1-.235.438 2.307 2.307 0 0 1-.39.39 4.159 4.159 0 0 1-.516.328c.227.117.43.235.61.36.187.125.343.257.468.39.125.137.219.282.281.438s.094.328.094.515zM3.641-4.907a.934.934 0 0 0-.079-.375.639.639 0 0 0-.203-.281.973.973 0 0 0-.343-.188 1.702 1.702 0 0 0-.47-.062c-.355 0-.624.085-.812.25-.18.156-.265.375-.265.656 0 .125.02.246.062.36.051.105.117.21.203.312.094.093.211.187.36.28.144.095.316.196.515.298.332-.164.586-.352.766-.563.176-.207.266-.437.266-.687zm.203 3.36a.843.843 0 0 0-.094-.407 1.033 1.033 0 0 0-.25-.344 1.6 1.6 0 0 0-.422-.312 6.938 6.938 0 0 0-.578-.313c-.211.094-.39.196-.547.297a2.11 2.11 0 0 0-.39.328 1.193 1.193 0 0 0-.22.344.907.907 0 0 0-.077.39c0 .313.109.56.328.735.218.18.539.266.968.266.426 0 .743-.086.954-.266.218-.176.328-.414.328-.719z"/></symbol><symbol id="aC" overflow="visible"><path d="M4.266-1.797c0 .305-.059.574-.172.813-.106.23-.258.43-.453.593a1.95 1.95 0 0 1-.688.36A2.98 2.98 0 0 1 1.5.032 2.902 2.902 0 0 1 .656-.25a3.613 3.613 0 0 1-.203-.142.487.487 0 0 1-.078-.156.735.735 0 0 1-.031-.25c0-.07.004-.129.015-.172a.644.644 0 0 1 .032-.125.088.088 0 0 1 .046-.062c.02-.008.04-.016.063-.016.05 0 .117.031.203.094.082.055.188.117.313.187.132.063.296.125.484.188.187.055.398.078.64.078.188 0 .352-.023.5-.078a1.19 1.19 0 0 0 .391-.203c.113-.094.203-.203.266-.328.062-.133.094-.29.094-.47a.811.811 0 0 0-.125-.452 1.31 1.31 0 0 0-.329-.328 2.977 2.977 0 0 0-.468-.282 24.031 24.031 0 0 0-.532-.25 9.624 9.624 0 0 1-.53-.265 2.266 2.266 0 0 1-.454-.36 2.51 2.51 0 0 1-.328-.484A1.6 1.6 0 0 1 .5-4.797c0-.27.047-.508.14-.719.102-.207.239-.379.407-.515a1.8 1.8 0 0 1 .625-.328c.238-.07.492-.11.765-.11.145 0 .286.016.422.047.145.024.282.055.407.094.132.031.25.074.343.125.102.055.172.094.203.125s.051.058.063.078c.008.023.016.047.016.078a.291.291 0 0 1 .015.094v.312a.433.433 0 0 1-.015.11.22.22 0 0 1-.047.078.134.134 0 0 1-.063.015.356.356 0 0 1-.172-.062 2.206 2.206 0 0 0-.28-.156 1.96 1.96 0 0 0-.407-.157 1.526 1.526 0 0 0-.5-.078c-.18 0-.336.028-.469.078a.789.789 0 0 0-.328.188.639.639 0 0 0-.188.281.897.897 0 0 0-.062.344c0 .18.035.328.11.453.081.125.19.242.327.344.145.094.301.183.47.265.175.086.35.168.53.25.188.086.364.18.532.282a1.827 1.827 0 0 1 .797.843c.082.18.125.391.125.641z"/></symbol><symbol id="aD" overflow="visible"><path d="M1.656.078c0 .32-.027.582-.078.781a1.296 1.296 0 0 1-.219.516.888.888 0 0 1-.406.312c-.168.07-.367.11-.594.11-.105 0-.199-.008-.28-.016a.437.437 0 0 1-.157-.047.233.233 0 0 1-.078-.062.116.116 0 0 1-.032-.078c-.007-.024-.015-.047-.015-.078a.461.461 0 0 1-.016-.11c0-.054.008-.105.016-.156a.2.2 0 0 1 .031-.11.188.188 0 0 1 .031-.046c.012-.012.032-.016.063-.016.023 0 .058.004.11.016.062.008.128.015.202.015A.567.567 0 0 0 .5 1.047.468.468 0 0 0 .703.89a.774.774 0 0 0 .11-.297C.831.477.842.3.842.062v-4.625c0-.019.005-.039.016-.062.008-.02.032-.035.063-.047.031-.008.07-.02.125-.031a1.387 1.387 0 0 1 .406 0l.125.031c.031.012.05.027.063.047.007.023.015.043.015.062zm.094-6.14c0 .199-.04.335-.11.406-.074.062-.203.094-.39.094s-.32-.032-.39-.094c-.075-.07-.11-.203-.11-.39s.035-.317.11-.391c.07-.07.202-.11.39-.11.195 0 .328.04.39.11.07.062.11.187.11.375z"/></symbol><symbol id="aE" overflow="visible"><path d="M4.563-.328a.806.806 0 0 1-.016.156.2.2 0 0 1-.031.11.2.2 0 0 1-.063.046.134.134 0 0 1-.062.016H1.063A.115.115 0 0 1 1-.016a.14.14 0 0 1-.062-.046.252.252 0 0 1-.047-.11C.879-.21.875-.266.875-.328s.004-.113.016-.156a.73.73 0 0 1 .03-.11c.02-.031.04-.05.063-.062a.11.11 0 0 1 .079-.031H2.39v-4.844l-1.235.734A.712.712 0 0 1 1-4.734a.093.093 0 0 1-.094-.016.252.252 0 0 1-.047-.11v-.328c.008-.039.02-.07.032-.093a.362.362 0 0 1 .03-.078c.02-.02.048-.04.079-.063l1.469-.937c.008-.008.023-.016.047-.016.02-.008.047-.02.078-.031.031-.008.062-.016.094-.016h.156c.082 0 .148.008.203.016.05 0 .086.008.11.015.03.012.05.028.062.047.008.024.015.043.015.063v5.594h1.157c.03 0 .054.011.078.03.02.012.035.032.047.063a.21.21 0 0 1 .03.11.841.841 0 0 1 .016.156z"/></symbol><symbol id="aG" overflow="visible"><path d="M4.719-2.063c0 .282-.047.555-.14.813a1.9 1.9 0 0 1-.391.688c-.18.199-.403.359-.672.484a2.511 2.511 0 0 1-.97.172c-.26 0-.495-.031-.702-.094-.2-.07-.375-.164-.531-.281a1.638 1.638 0 0 1-.375-.453 2.398 2.398 0 0 1-.25-.61 6.377 6.377 0 0 1-.125-.734 10.23 10.23 0 0 1-.032-.875c0-.27.008-.547.032-.828.03-.281.082-.551.156-.813.082-.258.187-.5.312-.718a2.48 2.48 0 0 1 .485-.594c.195-.176.43-.313.703-.406a2.786 2.786 0 0 1 1.328-.125c.125.011.238.03.344.062.101.023.191.047.265.078a.49.49 0 0 1 .14.063c.032.023.052.043.063.062a.231.231 0 0 1 .016.078c.008.024.016.047.016.078.007.032.015.07.015.11a.806.806 0 0 1-.015.156.433.433 0 0 1-.016.11.238.238 0 0 1-.047.062c-.012.012-.031.016-.062.016a.44.44 0 0 1-.157-.032 1.172 1.172 0 0 0-.234-.078 2.017 2.017 0 0 0-.312-.078 1.832 1.832 0 0 0-.438-.047c-.305 0-.57.063-.797.188a1.461 1.461 0 0 0-.531.515c-.137.211-.242.453-.313.735a4.345 4.345 0 0 0-.109.859c.082-.05.176-.098.281-.14.102-.051.219-.098.344-.141.133-.04.27-.07.406-.094.145-.02.297-.031.453-.031.344 0 .633.047.875.14.239.094.43.227.579.391.144.156.25.352.312.578.063.23.094.477.094.735zm-.86.079c0-.188-.023-.36-.062-.516a.813.813 0 0 0-.188-.39.82.82 0 0 0-.359-.266 1.402 1.402 0 0 0-.547-.094c-.117 0-.234.016-.36.047a2.547 2.547 0 0 0-.359.094c-.105.03-.21.074-.312.125a4.32 4.32 0 0 0-.281.156c0 .43.023.789.078 1.078.05.281.129.512.234.687.102.168.235.29.39.36.157.074.333.11.532.11.219 0 .398-.036.547-.11.156-.082.285-.192.39-.328a1.28 1.28 0 0 0 .22-.438c.05-.164.077-.336.077-.515z"/></symbol><symbol id="aK" overflow="visible"><path d="M4.5-1.828c0 .293-.055.558-.156.797-.094.23-.242.433-.438.61a1.97 1.97 0 0 1-.703.39 3.262 3.262 0 0 1-.937.125 2.98 2.98 0 0 1-.61-.063 4.28 4.28 0 0 1-.484-.11 2.004 2.004 0 0 1-.36-.155 1.886 1.886 0 0 1-.187-.11.472.472 0 0 1-.063-.062.295.295 0 0 1-.03-.078A1.169 1.169 0 0 1 .5-.61v-.172c0-.125.008-.207.031-.25.031-.051.067-.078.11-.078.03 0 .086.027.172.078a4.001 4.001 0 0 0 .812.344c.188.054.39.078.61.078s.41-.024.577-.078c.165-.063.301-.141.407-.235a.95.95 0 0 0 .25-.36 1.168 1.168 0 0 0-.016-.952 1.147 1.147 0 0 0-.312-.375 1.52 1.52 0 0 0-.5-.235 2.234 2.234 0 0 0-.672-.093h-.61a.263.263 0 0 1-.093-.016A.14.14 0 0 1 1.203-3a.617.617 0 0 1-.031-.11.657.657 0 0 1-.016-.171.602.602 0 0 1 .047-.25c.02-.02.04-.035.063-.047.03-.02.054-.031.078-.031h.562c.219 0 .41-.024.578-.079.176-.05.32-.128.438-.234a.952.952 0 0 0 .281-.375c.063-.156.094-.32.094-.5a1.18 1.18 0 0 0-.063-.375.836.836 0 0 0-.187-.312.744.744 0 0 0-.328-.204 1.34 1.34 0 0 0-.469-.078c-.188 0-.36.032-.516.094-.156.055-.297.11-.422.172s-.23.125-.312.188c-.086.054-.14.078-.172.078H.75a.09.09 0 0 1-.031-.047.617.617 0 0 1-.032-.11v-.297c0-.039.004-.078.016-.109a.362.362 0 0 1 .031-.078l.078-.078c.032-.031.094-.078.188-.14s.207-.118.344-.173c.144-.062.304-.109.484-.14a2.883 2.883 0 0 1 1.375.047c.219.074.399.183.547.328.156.136.27.304.344.5.07.187.11.398.11.625 0 .199-.028.386-.079.562-.055.18-.133.336-.234.469a1.29 1.29 0 0 1-.375.328 1.497 1.497 0 0 1-.5.203c.218.024.414.078.593.172.188.086.344.195.47.328.132.125.237.278.312.453.07.18.109.368.109.563z"/></symbol><symbol id="aP" overflow="visible"><path d="M4.64-6.016v.172c0 .043-.007.09-.015.14a.686.686 0 0 1-.047.126l-.047.125L2.234-.156a.262.262 0 0 1-.062.094.355.355 0 0 1-.094.062.582.582 0 0 1-.14.016 1.74 1.74 0 0 1-.22.015c-.116 0-.202-.008-.265-.015a.347.347 0 0 1-.14-.047c-.024-.02-.032-.047-.032-.078a.48.48 0 0 1 .047-.11L3.734-5.64H.672c-.063 0-.11-.03-.14-.093s-.048-.157-.048-.282a.73.73 0 0 1 .047-.266c.02-.03.04-.05.063-.062a.11.11 0 0 1 .078-.031H4.39c.039 0 .078.008.109.016.039.011.07.03.094.062.02.024.031.059.031.11a.957.957 0 0 1 .016.171z"/></symbol><symbol id="aQ" overflow="visible"><path d="M4.547-.125a.213.213 0 0 1-.016.078A.359.359 0 0 1 4.47 0a.342.342 0 0 1-.11.016.841.841 0 0 1-.156.015c-.074 0-.137-.008-.187-.015A.433.433 0 0 1 3.906 0a.519.519 0 0 0-.062-.047.155.155 0 0 1-.016-.078v-.578c-.23.25-.476.45-.734.594-.25.132-.524.203-.813.203-.324 0-.605-.063-.843-.188a1.55 1.55 0 0 1-.563-.515 2.592 2.592 0 0 1-.312-.75 4.364 4.364 0 0 1-.094-.922c0-.383.039-.727.125-1.031.082-.313.203-.579.36-.797.163-.22.366-.383.609-.5.238-.114.515-.172.828-.172.257 0 .492.058.703.172.219.117.43.28.64.5v-2.578c0-.02.004-.04.016-.063.008-.02.031-.035.063-.047a.282.282 0 0 1 .125-.031 1.3 1.3 0 0 1 .406 0c.05 0 .093.012.125.031.031.012.05.028.062.047.008.024.016.043.016.063zM3.734-3.25a2.952 2.952 0 0 0-.64-.61 1.076 1.076 0 0 0-.64-.218.9.9 0 0 0-.532.156 1.085 1.085 0 0 0-.36.39 1.84 1.84 0 0 0-.187.548 2.88 2.88 0 0 0-.062.609c0 .219.015.438.046.656.04.211.102.399.188.563.082.168.191.304.328.406a.905.905 0 0 0 .547.156c.101 0 .207-.015.312-.047.102-.03.207-.078.313-.14.101-.07.21-.164.328-.281.113-.114.234-.25.36-.407z"/></symbol><symbol id="aR" overflow="visible"><path d="M1.563-.125a.212.212 0 0 1-.016.078.359.359 0 0 1-.063.047.516.516 0 0 1-.125.016 1.388 1.388 0 0 1-.406 0A.49.49 0 0 1 .828 0a.249.249 0 0 1-.062-.047.155.155 0 0 1-.016-.078v-6.578c0-.031.004-.055.016-.078.007-.02.03-.035.062-.047a.49.49 0 0 1 .125-.016 1.388 1.388 0 0 1 .406 0c.051 0 .094.008.125.016.032.012.051.027.063.047a.231.231 0 0 1 .016.078z"/></symbol><symbol id="aT" overflow="visible"><path d="M7.328-.125a.213.213 0 0 1-.016.078A.359.359 0 0 1 7.25 0a.516.516 0 0 1-.125.016 1.204 1.204 0 0 1-.39 0A.49.49 0 0 1 6.608 0c-.03-.02-.058-.035-.078-.047a.155.155 0 0 1-.015-.078v-2.688c0-.187-.016-.359-.047-.515s-.086-.29-.157-.406a.69.69 0 0 0-.28-.25.813.813 0 0 0-.391-.094c-.188 0-.375.074-.563.219a4.09 4.09 0 0 0-.625.64v3.094a.11.11 0 0 1-.031.078.359.359 0 0 1-.063.047.516.516 0 0 1-.125.016 1.296 1.296 0 0 1-.39 0A.49.49 0 0 1 3.719 0a.249.249 0 0 1-.063-.047.155.155 0 0 1-.015-.078v-2.687c0-.188-.024-.36-.063-.516a1.259 1.259 0 0 0-.156-.406.69.69 0 0 0-.281-.25.751.751 0 0 0-.391-.094c-.188 0-.375.074-.563.219a4.09 4.09 0 0 0-.625.64v3.094a.212.212 0 0 1-.015.078.359.359 0 0 1-.063.047.516.516 0 0 1-.125.016 1.388 1.388 0 0 1-.406 0A.49.49 0 0 1 .828 0a.249.249 0 0 1-.062-.047.155.155 0 0 1-.016-.078v-4.437c0-.02.004-.04.016-.063.007-.02.03-.035.062-.047a.2.2 0 0 1 .11-.031.957.957 0 0 1 .36 0c.05 0 .085.012.108.031.032.012.051.028.063.047.008.024.015.043.015.063v.593c.25-.28.489-.484.72-.609.237-.133.476-.203.718-.203.187 0 .351.023.5.062.144.043.273.106.39.188a.965.965 0 0 1 .282.281c.082.106.148.219.203.344.144-.156.281-.29.406-.406a1.98 1.98 0 0 1 .39-.266c.126-.07.243-.125.36-.156.125-.032.242-.047.36-.047.28 0 .519.055.718.156.196.094.352.227.469.39.125.169.207.368.25.594.05.23.078.47.078.72z"/></symbol><symbol id="bb" overflow="visible"><path d="M7.781-.125a.164.164 0 0 1-.015.063c-.012.023-.04.039-.079.046-.03.012-.074.02-.125.032a1.296 1.296 0 0 1-.39 0c-.055-.012-.094-.02-.125-.032a.146.146 0 0 1-.078-.046.115.115 0 0 1-.016-.063v-5.563L4.672-.109a.22.22 0 0 1-.047.078.166.166 0 0 1-.078.031.516.516 0 0 1-.125.016.841.841 0 0 1-.156.015c-.075 0-.137-.008-.188-.015A.644.644 0 0 1 3.953 0c-.031-.02-.058-.035-.078-.047a.311.311 0 0 1-.031-.062L1.672-5.688v5.563c0 .023-.012.043-.031.063a.088.088 0 0 1-.063.046c-.031.012-.074.02-.125.032a1.388 1.388 0 0 1-.406 0C.992.004.953-.004.922-.016.89-.023.867-.039.859-.062a.115.115 0 0 1-.015-.063V-6c0-.133.035-.227.11-.281a.369.369 0 0 1 .25-.094h.5c.112 0 .206.012.28.031a.653.653 0 0 1 .36.25c.039.063.07.14.093.235l1.86 4.625h.016l1.921-4.61c.04-.101.082-.187.125-.25a.564.564 0 0 1 .141-.172c.05-.039.11-.066.172-.078a.72.72 0 0 1 .219-.031h.53c.052 0 .099.012.142.031.039.012.078.031.109.063a.444.444 0 0 1 .11.281z"/></symbol><symbol id="bc" overflow="visible"><path d="M4.203-6.016c0 .063-.008.121-.016.172a.402.402 0 0 1-.093.172.134.134 0 0 1-.063.016H1.703v2.172h2.203c.02 0 .04.007.063.015.02.012.035.032.047.063.02.023.035.054.046.094a.957.957 0 0 1 0 .343.402.402 0 0 1-.093.172.134.134 0 0 1-.063.016H1.703v2.656c0 .023-.012.043-.031.063a.088.088 0 0 1-.063.046c-.03.012-.074.02-.125.032a1.492 1.492 0 0 1-.421 0C1.008.004.969-.004.938-.016a.146.146 0 0 1-.079-.046.115.115 0 0 1-.015-.063v-5.906c0-.125.031-.211.094-.266a.375.375 0 0 1 .218-.078h2.875c.02 0 .04.008.063.016.02.011.035.031.047.062.02.031.035.074.047.125a.841.841 0 0 1 .015.156z"/></symbol><symbol id="aV" overflow="visible"><path d="M7.344-.125c0 .023-.012.043-.031.063-.012.023-.04.039-.079.046-.03.012-.074.02-.125.032a1.388 1.388 0 0 1-.406 0c-.055-.012-.094-.02-.125-.032a.07.07 0 0 1-.047-.046c-.011-.02-.011-.04 0-.063l1.11-5.547h-.016L4.235-.109A.246.246 0 0 1 4.077 0c-.062.02-.164.031-.297.031A.885.885 0 0 1 3.501 0c-.056-.031-.087-.066-.095-.11L2.344-5.686 1.234-.125a.238.238 0 0 1-.046.063.088.088 0 0 1-.063.046c-.031.012-.078.02-.14.032a1.204 1.204 0 0 1-.39 0C.538.004.499-.004.468-.016.438-.023.414-.039.406-.062v-.063L1.578-6a.865.865 0 0 1 .063-.156.428.428 0 0 1 .11-.125.342.342 0 0 1 .124-.063.311.311 0 0 1 .14-.031H2.5c.102 0 .192.012.266.031a.48.48 0 0 1 .172.094c.05.043.086.102.109.172a.73.73 0 0 1 .062.234l.922 4.61h.032l2.843-4.61a2.64 2.64 0 0 1 .141-.234.81.81 0 0 1 .172-.156.604.604 0 0 1 .203-.11.95.95 0 0 1 .25-.031h.563c.05 0 .093.012.125.031.039.012.078.032.109.063s.047.074.047.125a.52.52 0 0 1 0 .156z"/></symbol><symbol id="aW" overflow="visible"><path d="M4-.125c-.012.055-.047.094-.11.125a.987.987 0 0 1-.296.031.806.806 0 0 1-.157-.015A.433.433 0 0 1 3.328 0a.257.257 0 0 1-.047-.047c-.011-.02-.011-.047 0-.078l.156-.844a1.127 1.127 0 0 1-.234.36 1.773 1.773 0 0 1-.39.343A2.469 2.469 0 0 1 2.296 0a1.77 1.77 0 0 1-.563.094c-.273 0-.496-.047-.672-.14a1.17 1.17 0 0 1-.406-.36 1.654 1.654 0 0 1-.203-.516 3.587 3.587 0 0 1-.047-.594 4.6 4.6 0 0 1 .047-.609c.031-.238.082-.477.156-.719.082-.25.188-.488.313-.719.125-.226.27-.43.437-.609.176-.187.38-.332.61-.437.226-.114.488-.172.781-.172.29 0 .54.062.75.187.207.117.395.278.562.485l.094-.453c.008-.051.047-.086.11-.11a.697.697 0 0 1 .297-.047c.062 0 .113.008.156.016.05 0 .086.012.11.031.03.012.046.027.046.047.008.023.016.043.016.062zm-.156-3.281a1.691 1.691 0 0 0-.5-.5 1.087 1.087 0 0 0-.594-.172c-.18 0-.34.043-.484.125a1.494 1.494 0 0 0-.391.328c-.105.137-.2.293-.281.469-.074.18-.137.36-.188.547a4.841 4.841 0 0 0-.125.562 3.71 3.71 0 0 0-.031.485c0 .117.008.23.031.343.02.106.051.203.094.297a.69.69 0 0 0 .203.235.63.63 0 0 0 .36.093c.175 0 .351-.05.53-.156.188-.101.36-.242.516-.422.164-.176.305-.383.422-.625.125-.238.219-.504.281-.797z"/></symbol><symbol id="aX" overflow="visible"><path d="M1.14-.125a.22.22 0 0 1-.046.078.358.358 0 0 1-.078.047.516.516 0 0 1-.125.016 1.204 1.204 0 0 1-.39 0A.49.49 0 0 1 .374 0a.249.249 0 0 1-.063-.047c0-.02.004-.047.016-.078l1.297-6.578c.008-.031.02-.055.031-.078a.22.22 0 0 1 .078-.047.7.7 0 0 1 .141-.016 1.3 1.3 0 0 1 .39 0c.051 0 .094.008.126.016.03.012.046.027.046.047a.132.132 0 0 1 0 .078z"/></symbol><symbol id="aY" overflow="visible"><path d="M4.563-3.656c0 .23-.055.437-.157.625-.105.18-.273.328-.5.453a2.894 2.894 0 0 1-.86.297 6.04 6.04 0 0 1-1.25.11h-.515c-.031.105-.054.21-.062.312v.28c0 .337.078.59.234.767.164.168.43.25.797.25.207 0 .395-.016.563-.047.175-.032.32-.063.437-.094.125-.04.223-.078.297-.11.082-.03.14-.046.172-.046s.05.011.062.03c.02.024.032.056.032.095 0 .03-.008.074-.016.125a.4.4 0 0 1-.031.14.686.686 0 0 1-.047.125.464.464 0 0 1-.281.234 6.643 6.643 0 0 1-.36.094 4.193 4.193 0 0 1-.938.11c-.292 0-.554-.031-.78-.094a1.416 1.416 0 0 1-.547-.312 1.19 1.19 0 0 1-.329-.5 2.122 2.122 0 0 1-.109-.72c0-.218.02-.445.063-.687.039-.25.101-.492.187-.734.094-.238.207-.469.344-.688a2.634 2.634 0 0 1 1.188-.984c.257-.102.55-.156.874-.156.27 0 .5.039.688.11.195.062.36.152.484.265.125.105.211.226.266.36a.936.936 0 0 1 .094.39zm-.844.078c0-.164-.07-.3-.203-.406-.125-.102-.309-.157-.547-.157-.219 0-.414.04-.578.11-.157.074-.297.172-.422.297s-.235.273-.328.437a2.341 2.341 0 0 0-.22.531h.5c.345 0 .63-.02.86-.062.239-.04.426-.098.563-.172a.807.807 0 0 0 .281-.266.593.593 0 0 0 .094-.312z"/></symbol><symbol id="aZ" overflow="visible"><path d="M4.953-6.203v.078c0 .031-.008.07-.016.11-.011.042-.023.085-.03.124a.686.686 0 0 1-.048.125.297.297 0 0 1-.078.079.1.1 0 0 1-.078.03H2.375l-.438 2.173h2.204c.039 0 .07.015.093.047.02.023.032.058.032.109 0 .023-.008.055-.016.094 0 .03-.008.07-.016.11a.73.73 0 0 0-.03.108.686.686 0 0 1-.048.125.297.297 0 0 1-.078.079.1.1 0 0 1-.078.03H1.797L1.266-.124a.238.238 0 0 1-.047.063c-.012.023-.04.039-.078.046-.032.012-.075.02-.125.032a1.388 1.388 0 0 1-.422 0C.539.004.5-.004.469-.016a.07.07 0 0 1-.047-.046.115.115 0 0 1-.016-.063l1.188-5.906c.02-.125.07-.211.156-.266a.452.452 0 0 1 .234-.078h2.86c.039 0 .066.016.078.047.02.031.031.074.031.125z"/></symbol><symbol id="ba" overflow="visible"><path d="M6.813-.125a.11.11 0 0 1-.032.078.358.358 0 0 1-.078.047.516.516 0 0 1-.125.016 1.204 1.204 0 0 1-.39 0A.49.49 0 0 1 6.063 0 .249.249 0 0 1 6-.047v-.078l.547-2.734c.02-.094.035-.18.047-.266.008-.094.015-.18.015-.266a.902.902 0 0 0-.125-.5c-.074-.125-.214-.187-.421-.187-.157 0-.325.055-.5.156-.18.094-.352.23-.516.406-.156.18-.297.387-.422.625-.117.243-.2.5-.25.782l-.39 1.984a.22.22 0 0 1-.047.078.358.358 0 0 1-.079.047.516.516 0 0 1-.125.016 1.204 1.204 0 0 1-.39 0A.49.49 0 0 1 3.219 0a.257.257 0 0 1-.047-.047.155.155 0 0 1-.016-.078l.547-2.734c.02-.102.035-.204.047-.297.008-.094.016-.18.016-.266a.803.803 0 0 0-.125-.469c-.086-.125-.227-.187-.422-.187-.168 0-.34.055-.516.156-.168.094-.336.23-.5.406-.156.18-.297.387-.422.625-.117.243-.199.5-.25.782l-.39 1.984a.22.22 0 0 1-.047.078.358.358 0 0 1-.078.047.516.516 0 0 1-.125.016 1.204 1.204 0 0 1-.39 0A.49.49 0 0 1 .374 0a.249.249 0 0 1-.062-.047c0-.02.003-.047.015-.078l.89-4.437c0-.02.005-.04.016-.063a.22.22 0 0 1 .079-.047.2.2 0 0 1 .109-.031.957.957 0 0 1 .344 0c.039 0 .07.012.093.031.032.012.047.027.047.047.008.023.016.043.016.063l-.172.843c.05-.113.133-.234.25-.36.113-.124.242-.237.39-.343.157-.101.321-.187.5-.25.176-.07.36-.11.548-.11.195 0 .363.028.5.079.144.055.265.125.359.219s.16.21.203.343c.04.125.066.266.078.422.063-.113.149-.234.266-.36.113-.124.242-.237.39-.343.157-.101.32-.187.5-.25.176-.07.36-.11.547-.11.219 0 .399.032.547.094a.95.95 0 0 1 .36.266.97.97 0 0 1 .203.375 1.835 1.835 0 0 1 .03.813 7.85 7.85 0 0 1-.046.343z"/></symbol><symbol id="bd" overflow="visible"><path d="M-1.906-4.469c.336 0 .625.063.875.188s.465.297.64.515c.168.211.293.453.375.735A3.292 3.292 0 0 1 .047-1.5a4.221 4.221 0 0 1-.11.5c-.05.148-.101.266-.156.36a2.61 2.61 0 0 1-.156.218.353.353 0 0 1-.187.094 2.629 2.629 0 0 1-.344.015h-.25a1.152 1.152 0 0 1-.172-.03.355.355 0 0 1-.094-.063.179.179 0 0 1-.031-.094c0-.04.027-.102.078-.188a3.47 3.47 0 0 0 .188-.328c.062-.132.12-.289.171-.468.055-.188.079-.399.079-.641 0-.156-.016-.297-.047-.422a1.063 1.063 0 0 0-.157-.312.685.685 0 0 0-.265-.188.725.725 0 0 0-.328-.078A.594.594 0 0 0-2.11-3a1.21 1.21 0 0 0-.282.297 2.286 2.286 0 0 0-.218.437c-.07.157-.145.325-.22.5a8.779 8.779 0 0 1-.265.5 2.186 2.186 0 0 1-.36.422c-.144.125-.312.23-.5.313-.194.074-.425.11-.687.11-.312 0-.582-.056-.812-.173a1.648 1.648 0 0 1-.563-.453 1.796 1.796 0 0 1-.343-.672 2.883 2.883 0 0 1-.125-.844c0-.144.015-.289.047-.437.023-.156.054-.297.093-.422.032-.133.075-.254.125-.36.055-.1.094-.171.125-.202s.059-.051.078-.063a.143.143 0 0 1 .094-.031.841.841 0 0 1 .156-.016c.055-.008.122-.015.204-.015.093 0 .18.007.25.015.062 0 .117.008.156.016a.15.15 0 0 1 .094.062c.011.024.015.047.015.078s-.02.09-.062.172l-.14.297a1.96 1.96 0 0 0-.22.89c0 .15.016.274.047.376a.69.69 0 0 0 .14.265.797.797 0 0 0 .22.157c.085.031.18.047.28.047a.594.594 0 0 0 .36-.11c.106-.082.2-.187.281-.312.075-.133.149-.282.22-.438.073-.164.152-.332.234-.5.074-.176.164-.347.265-.515a1.68 1.68 0 0 1 .36-.438c.136-.125.296-.223.484-.297.187-.082.414-.125.672-.125z"/></symbol><symbol id="be" overflow="visible"><path d="M-.86-3.953c.087 0 .157.008.22.016a.7.7 0 0 1 .14.015.88.88 0 0 0 .094.031c.023.012.054.04.093.079.032.042.079.109.141.203.055.093.102.203.14.328.04.117.071.246.094.39a2.472 2.472 0 0 1-.11 1.344c-.1.262-.257.48-.468.656-.207.18-.457.313-.75.407-.289.086-.629.125-1.015.125-.438 0-.813-.051-1.125-.157a2.22 2.22 0 0 1-.797-.468 1.667 1.667 0 0 1-.469-.688 2.508 2.508 0 0 1-.125-1.281 1.916 1.916 0 0 1 .234-.64.528.528 0 0 1 .125-.188.238.238 0 0 1 .094-.078.143.143 0 0 1 .094-.032.582.582 0 0 1 .14-.015c.055-.008.122-.016.204-.016.199 0 .336.016.406.047.074.031.11.074.11.125a.3.3 0 0 1-.063.172 9.18 9.18 0 0 0-.14.234 1.254 1.254 0 0 0-.157.297c-.05.117-.078.258-.078.422 0 .324.125.574.375.75.25.168.617.25 1.094.25.23 0 .437-.02.625-.062.18-.04.328-.102.453-.188a.82.82 0 0 0 .265-.312c.063-.133.094-.286.094-.454 0-.164-.023-.312-.078-.437a1.458 1.458 0 0 0-.172-.313 2.3 2.3 0 0 0-.172-.234c-.05-.062-.078-.117-.078-.172 0-.02.012-.039.031-.062.012-.02.043-.036.094-.047.043-.008.102-.02.172-.031.063-.008.152-.016.266-.016z"/></symbol><symbol id="bf" overflow="visible"><path d="M-.172-4.813c.031 0 .063.012.094.032.023.011.043.043.062.093.012.043.02.106.032.188a3.176 3.176 0 0 1 0 .61c-.012.074-.02.136-.032.187a.26.26 0 0 1-.062.094.15.15 0 0 1-.094.03h-2.5c-.207 0-.375.017-.5.048s-.226.078-.312.14a.645.645 0 0 0-.203.22.68.68 0 0 0-.079.327c0 .156.059.32.172.485.117.156.29.324.516.5h2.906c.031 0 .063.011.094.03a.31.31 0 0 1 .062.11c.012.043.02.106.032.188a2.77 2.77 0 0 1 0 .594c-.012.074-.02.136-.032.187a.26.26 0 0 1-.062.094.15.15 0 0 1-.094.031H-6.64a.1.1 0 0 1-.078-.031.239.239 0 0 1-.078-.094.522.522 0 0 1-.031-.187 3.031 3.031 0 0 1 0-.594c0-.082.011-.145.031-.188a.272.272 0 0 1 .078-.11.116.116 0 0 1 .078-.03h2.422a2.631 2.631 0 0 1-.469-.657 1.61 1.61 0 0 1-.156-.687c0-.3.055-.55.156-.75a1.22 1.22 0 0 1 .407-.5c.168-.133.367-.227.593-.281.23-.051.508-.079.829-.079z"/></symbol><symbol id="bg" overflow="visible"><path d="M-2.406-5.063c.375 0 .719.055 1.031.157.305.093.57.242.797.437.219.2.39.45.515.75.114.305.172.656.172 1.063 0 .398-.054.742-.156 1.031-.113.281-.27.523-.469.719-.207.187-.46.328-.765.422-.301.086-.645.125-1.031.125-.375 0-.72-.047-1.032-.141a2.158 2.158 0 0 1-.797-.453 2.008 2.008 0 0 1-.515-.75 2.761 2.761 0 0 1-.188-1.063c0-.394.059-.734.172-1.015.106-.29.262-.532.469-.719.21-.195.465-.336.766-.422.304-.094.648-.14 1.03-.14zm.047 1.266a2.77 2.77 0 0 0-.594.063 1.21 1.21 0 0 0-.469.171.93.93 0 0 0-.312.329.988.988 0 0 0-.125.515c0 .188.039.352.11.485a.86.86 0 0 0 .296.343c.125.086.281.153.469.203.18.043.382.063.61.063.218 0 .42-.016.608-.047.18-.039.336-.101.47-.187a.814.814 0 0 0 .312-.329c.074-.132.11-.304.11-.515 0-.188-.032-.348-.095-.485a.92.92 0 0 0-.297-.328 1.344 1.344 0 0 0-.468-.203 2.255 2.255 0 0 0-.625-.078z"/></symbol><symbol id="bh" overflow="visible"><path d="M-.172-1.86c.031 0 .063.012.094.032a.31.31 0 0 1 .062.11c.012.042.02.105.032.187a2.77 2.77 0 0 1 0 .593c-.012.075-.02.137-.032.188a.26.26 0 0 1-.062.094.15.15 0 0 1-.094.031H-6.64a.1.1 0 0 1-.078-.031.239.239 0 0 1-.078-.094.522.522 0 0 1-.031-.188 3.031 3.031 0 0 1 0-.593c0-.082.012-.145.031-.188a.272.272 0 0 1 .078-.11.116.116 0 0 1 .078-.03z"/></symbol><symbol id="bi" overflow="visible"><path d="M-.969-5.11c.086 0 .156.008.219.016a.7.7 0 0 1 .14.016.402.402 0 0 1 .11.047c.031.011.07.039.11.078.03.031.078.101.14.203.055.105.11.234.172.39.055.149.094.32.125.516a3.35 3.35 0 0 1-.14 1.797 2.297 2.297 0 0 1-.61.906c-.27.243-.602.43-1 .563-.395.125-.86.187-1.39.187-.54 0-1.02-.07-1.438-.218a2.91 2.91 0 0 1-1.063-.61 2.525 2.525 0 0 1-.656-.922 3.232 3.232 0 0 1-.172-1.718c.031-.164.074-.317.125-.454.043-.144.094-.269.156-.375.063-.113.118-.19.157-.234a.308.308 0 0 1 .109-.094.419.419 0 0 1 .125-.047.841.841 0 0 1 .156-.015 1.74 1.74 0 0 1 .219-.016c.106 0 .195.008.266.016a.621.621 0 0 1 .156.047.21.21 0 0 1 .094.047.1.1 0 0 1 .03.078.313.313 0 0 1-.077.187 2.25 2.25 0 0 0-.39.719 1.707 1.707 0 0 0-.095.594c0 .261.055.492.157.687.105.2.257.371.453.516.187.137.418.242.687.312.274.063.578.094.922.094.375 0 .703-.035.985-.11.273-.07.496-.179.671-.327.18-.145.309-.317.391-.516A1.78 1.78 0 0 0-1-3.438c0-.226-.023-.425-.078-.593a2.42 2.42 0 0 0-.172-.422 2.922 2.922 0 0 0-.187-.297c-.051-.082-.079-.145-.079-.188 0-.03.012-.054.032-.078.011-.02.039-.035.078-.047a.313.313 0 0 1 .156-.03c.074-.009.168-.016.281-.016z"/></symbol><clipPath id="b"><path d="M8.32 31H13v8H8.32z"/></clipPath><clipPath id="d"><path d="M8.32 45H13v8H8.32z"/></clipPath><clipPath id="f"><path d="M8.32 59H13v7H8.32z"/></clipPath><clipPath id="i"><path d="M8.32 86H13v8H8.32z"/></clipPath><clipPath id="k"><path d="M8.32 99H13v8H8.32z"/></clipPath><clipPath id="m"><path d="M8.32 113H13v8H8.32z"/></clipPath><clipPath id="o"><path d="M8.32 127H13v8H8.32z"/></clipPath><clipPath id="q"><path d="M11 141h4.879v8H11z"/></clipPath><clipPath id="s"><path d="M11 169h4.879v8H11z"/></clipPath><clipPath id="t"><path d="M11 182h4.879v8H11z"/></clipPath><clipPath id="u"><path d="M10 197h5.879v7H10z"/></clipPath><clipPath id="v"><path d="M11 210h4.879v7H11z"/></clipPath><clipPath id="w"><path d="M11 223h4.879v8H11z"/></clipPath><clipPath id="x"><path d="M11 237h4.879v7H11z"/></clipPath><clipPath id="M"><path d="M51 31h6.879v8H51z"/></clipPath><clipPath id="O"><path d="M69.281 45H74v8H69.28z"/></clipPath><clipPath id="X"><path d="M124 47h5.398v6H124z"/></clipPath><clipPath id="Y"><path d="M152.32 45H157v8h-4.68z"/></clipPath><clipPath id="aa"><path d="M170 47h5.36v6H170z"/></clipPath><clipPath id="ah"><path d="M106 61h4.559v7H106z"/></clipPath><clipPath id="ak"><path d="M309 60h4.719v6H309z"/></clipPath><clipPath id="al"><path d="M336.4 59h4.602v7H336.4z"/></clipPath><clipPath id="am"><path d="M354 60h5.441v6H354z"/></clipPath><clipPath id="aF"><path d="M374.32 99H380v8h-5.68z"/></clipPath><clipPath id="aH"><path d="M380 100h4.64v7H380z"/></clipPath><clipPath id="aI"><path d="M318 115h4.719v6H318z"/></clipPath><clipPath id="aJ"><path d="M374.32 114H379v7h-4.68z"/></clipPath><clipPath id="aL"><path d="M379 114h5.64v7H379z"/></clipPath><clipPath id="aM"><path d="M69.281 142H74v7H69.28z"/></clipPath><clipPath id="aN"><path d="M99 142h5.922v7H99z"/></clipPath><clipPath id="aS"><path d="M244 171h1.078v7H244z"/></clipPath><clipPath id="aU"><path d="M332 169h2.121v8H332z"/></clipPath></defs><path d="M19.48 14.879h.96v231.36h-.96z"/><path d="M1.36 14.039h18.96v.96H1.36zm0 14.039h18.96v.96H1.36zm0 14.043h18.96v.957H1.36zm0 14.039h18.96v.96H1.36zm0 13.32h18.96v.96H1.36zm0 13.32h18.96v.96H1.36zm0 13.32h18.96v.957H1.36zm0 14.039h18.96v.96H1.36zm0 14.039h18.96v.96H1.36zm0 14.039h18.96v.96H1.36zm0 14.043h18.96v.957H1.36zm0 13.32h18.96v.957H1.36zm0 13.32h18.96v.957H1.36zm0 14.039h18.96v.96H1.36zm0 13.32h18.96v.957H1.36zm0 13.32h18.96v.957H1.36zm0 13.32h18.96v.957H1.36z" fill-rule="evenodd"/><use x="8.32" y="24.36" xlink:href="#a"/><g clip-path="url(#b)"><use x="8.32" y="38.4" xlink:href="#c"/></g><g clip-path="url(#d)"><use x="8.32" y="52.44" xlink:href="#e"/></g><g clip-path="url(#f)"><use x="8.32" y="65.76" xlink:href="#g"/></g><use x="8.32" y="80.04" xlink:href="#h"/><g clip-path="url(#i)"><use x="8.32" y="93.36" xlink:href="#j"/></g><g clip-path="url(#k)"><use x="8.32" y="106.44" xlink:href="#l"/></g><g clip-path="url(#m)"><use x="8.32" y="120.48" xlink:href="#n"/></g><g clip-path="url(#o)"><use x="8.32" y="134.52" xlink:href="#p"/></g><use x="5.8" y="148.56" xlink:href="#a"/><g clip-path="url(#q)"><use x="10.79" y="148.56" xlink:href="#r"/></g><use x="5.8" y="162.84" xlink:href="#a"/><use x="10.79" y="162.84" xlink:href="#a"/><use x="5.8" y="176.16" xlink:href="#a"/><g clip-path="url(#s)"><use x="10.79" y="176.16" xlink:href="#c"/></g><use x="5.8" y="189.24" xlink:href="#a"/><g clip-path="url(#t)"><use x="10.79" y="189.24" xlink:href="#e"/></g><use x="5.8" y="203.52" xlink:href="#a"/><g clip-path="url(#u)"><use x="10.79" y="203.52" xlink:href="#g"/></g><use x="5.8" y="216.84" xlink:href="#a"/><g clip-path="url(#v)"><use x="10.79" y="216.84" xlink:href="#h"/></g><use x="5.8" y="230.16" xlink:href="#a"/><g clip-path="url(#w)"><use x="10.79" y="230.16" xlink:href="#j"/></g><use x="5.8" y="243.48" xlink:href="#a"/><g clip-path="url(#x)"><use x="10.79" y="243.48" xlink:href="#l"/></g><path d="M20.32 14.039h427.2v.96H20.32z"/><path d="M19.48 1.68h.96v13.199h-.96zm47.52 0h.96v13.199H67zm83.039 0h.96v13.199h-.96zm47.52 0h.96v13.199h-.96zm47.52 0h.96v13.199h-.96zm41.523 0h.957v13.199h-.957zm47.52 0h.957v13.199h-.957zm51.84 0h.96v13.199h-.96zm41.52 0h.96v13.199h-.96z" fill-rule="evenodd"/><use x="41.2" y="11.52" xlink:href="#y"/><use x="106.836" y="11.52" xlink:href="#z"/><use x="171.917" y="11.52" xlink:href="#A"/><use x="219.038" y="11.52" xlink:href="#B"/><use x="264.4" y="11.52" xlink:href="#C"/><use x="309.021" y="11.52" xlink:href="#D"/><use x="357.716" y="11.52" xlink:href="#E"/><use x="404.281" y="11.52" xlink:href="#F"/><use x="437.238" y="11.52" xlink:href="#G"/><path d="M67.48 42.602h130.68v14.16H67.48z" fill="#dceaf6"/><path d="M20.441 56.641h47.16v13.438h-47.16z" fill="#e1eed9"/><path d="M287.08 56.641h99.48v13.438h-99.48z" fill="#dceaf6"/><path d="M20.441 69.961h47.16v40.801h-47.16z" fill="#e1eed9"/><path d="M386.44 69.961h41.637v54.84H386.44z" fill="#e1eed9" fill-rule="evenodd"/><path d="M150.52 152.76h47.641v26.758H150.52z" fill="#dceaf6" fill-rule="evenodd"/><path d="M198.04 179.4h188.52v14.16H198.04z" fill="#e1eed9"/><use x="21.76" y="38.4" xlink:href="#H" fill="red"/><use x="26.608" y="38.4" xlink:href="#I" fill="red"/><use x="30.748" y="38.4" xlink:href="#J" fill="red"/><use x="36.168" y="38.4" xlink:href="#K" fill="red"/><use x="41.52" y="38.4" xlink:href="#K" fill="red"/><use x="46.949" y="38.4" xlink:href="#L" fill="red"/><use x="49.43" y="38.4" xlink:href="#M" fill="red"/><g clip-path="url(#M)"><use x="51.713" y="38.4" xlink:href="#N" fill="red"/></g><g clip-path="url(#O)"><use x="69.28" y="52.44" xlink:href="#H"/></g><use x="74.128" y="52.44" xlink:href="#P"/><use x="77.561" y="52.44" xlink:href="#Q"/><use x="82.914" y="52.44" xlink:href="#R"/><use x="88.333" y="52.44" xlink:href="#S"/><use x="93.417" y="52.44" xlink:href="#T"/><use x="98.77" y="52.44" xlink:href="#P"/><use x="102.271" y="52.44" xlink:href="#M"/><use x="104.554" y="52.44" xlink:href="#U"/><use x="111.206" y="52.44" xlink:href="#V"/><use x="116.256" y="52.44" xlink:href="#W"/><g clip-path="url(#X)"><use x="124.471" y="52.44" xlink:href="#S"/></g><g clip-path="url(#Y)"><use x="152.32" y="52.44" xlink:href="#H"/></g><use x="157.168" y="52.44" xlink:href="#I"/><use x="161.308" y="52.44" xlink:href="#K"/><use x="166.737" y="52.44" xlink:href="#Z"/><g clip-path="url(#aa)"><use x="170.373" y="52.44" xlink:href="#S"/></g><use x="69.28" y="65.76" xlink:href="#ab"/><use x="75.76" y="65.76" xlink:href="#ac"/><use x="79.142" y="65.76" xlink:href="#ad"/><use x="83.092" y="65.76" xlink:href="#ae"/><use x="87.664" y="65.76" xlink:href="#af"/><use x="92.915" y="65.76" xlink:href="#ah"/><use x="95.198" y="65.76" xlink:href="#ag"/><use x="100.753" y="65.76" xlink:href="#af"/><g clip-path="url(#ah)"><use x="106.004" y="65.76" xlink:href="#ae"/></g><use x="185.92" y="65.76" xlink:href="#ai"/><use x="191.039" y="65.76" xlink:href="#aj"/><use x="288.88" y="65.76" xlink:href="#U"/><use x="295.444" y="65.76" xlink:href="#V"/><use x="300.494" y="65.76" xlink:href="#W"/><g clip-path="url(#ak)"><use x="308.709" y="65.76" xlink:href="#S"/></g><g clip-path="url(#al)"><use x="336.4" y="65.76" xlink:href="#H"/></g><use x="341.248" y="65.76" xlink:href="#I"/><use x="345.388" y="65.76" xlink:href="#K"/><use x="350.817" y="65.76" xlink:href="#Z"/><g clip-path="url(#am)"><use x="354.453" y="65.76" xlink:href="#S"/></g><use x="69.28" y="80.04" xlink:href="#an"/><use x="75.799" y="80.04" xlink:href="#ao"/><use x="80.546" y="80.04" xlink:href="#ap"/><use x="85.137" y="80.04" xlink:href="#ad"/><use x="89.087" y="80.04" xlink:href="#aq"/><use x="94.392" y="80.04" xlink:href="#ao"/><use x="99.23" y="80.04" xlink:href="#ac"/><use x="102.613" y="80.04" xlink:href="#ar"/><use x="106.047" y="80.04" xlink:href="#ao"/><use x="110.884" y="80.04" xlink:href="#ah"/><use x="113.106" y="80.04" xlink:href="#as"/><use x="119.477" y="80.04" xlink:href="#ao"/><use x="124.315" y="80.04" xlink:href="#ae"/><use x="128.886" y="80.04" xlink:href="#at"/><use x="133.911" y="80.04" xlink:href="#au"/><use x="186.022" y="80.04" xlink:href="#ai"/><use x="191.141" y="80.04" xlink:href="#ai"/><use x="289.001" y="80.04" xlink:href="#av"/><use x="291.546" y="80.04" xlink:href="#ah"/><use x="293.768" y="80.04" xlink:href="#ag"/><use x="299.322" y="80.04" xlink:href="#af"/><use x="304.574" y="80.04" xlink:href="#ae"/><use x="374.46" y="80.04" xlink:href="#aj"/><use x="379.578" y="80.04" xlink:href="#aw"/><use x="69.28" y="93.36" xlink:href="#ax"/><use x="74.201" y="93.36" xlink:href="#ay"/><use x="76.519" y="93.36" xlink:href="#ac"/><use x="79.902" y="93.36" xlink:href="#ao"/><use x="84.648" y="93.36" xlink:href="#ad"/><use x="88.598" y="93.36" xlink:href="#ah"/><use x="90.881" y="93.36" xlink:href="#as"/><use x="97.253" y="93.36" xlink:href="#az"/><use x="102.605" y="93.36" xlink:href="#aA"/><use x="107.911" y="93.36" xlink:href="#ac"/><use x="111.294" y="93.36" xlink:href="#ao"/><use x="186.027" y="93.36" xlink:href="#aB"/><use x="191.146" y="93.36" xlink:href="#ai"/><use x="288.906" y="93.36" xlink:href="#aC"/><use x="293.652" y="93.36" xlink:href="#ah"/><use x="295.874" y="93.36" xlink:href="#as"/><use x="302.245" y="93.36" xlink:href="#aq"/><use x="307.598" y="93.36" xlink:href="#af"/><use x="312.849" y="93.36" xlink:href="#ad"/><use x="316.799" y="93.36" xlink:href="#aq"/><use x="374.364" y="93.36" xlink:href="#aj"/><use x="379.616" y="93.36" xlink:href="#ai"/><use x="69.28" y="106.44" xlink:href="#ab"/><use x="75.76" y="106.44" xlink:href="#aD"/><use x="78.176" y="106.44" xlink:href="#aD"/><use x="80.592" y="106.44" xlink:href="#ao"/><use x="85.339" y="106.44" xlink:href="#ay"/><use x="87.656" y="106.44" xlink:href="#au"/><use x="92.962" y="106.44" xlink:href="#ay"/><use x="95.28" y="106.44" xlink:href="#ah"/><use x="97.502" y="106.44" xlink:href="#as"/><use x="103.873" y="106.44" xlink:href="#ao"/><use x="108.711" y="106.44" xlink:href="#ae"/><use x="113.282" y="106.44" xlink:href="#at"/><use x="118.307" y="106.44" xlink:href="#au"/><use x="180.76" y="106.44" xlink:href="#aE"/><use x="185.879" y="106.44" xlink:href="#aw"/><use x="191.13" y="106.44" xlink:href="#aw"/><use x="288.88" y="106.44" xlink:href="#aC"/><use x="293.52" y="106.44" xlink:href="#ah"/><use x="295.803" y="106.44" xlink:href="#aC"/><use x="300.55" y="106.44" xlink:href="#at"/><use x="305.575" y="106.44" xlink:href="#au"/><use x="310.881" y="106.44" xlink:href="#ao"/><use x="315.627" y="106.44" xlink:href="#aA"/><use x="320.98" y="106.44" xlink:href="#ao"/><use x="325.727" y="106.44" xlink:href="#ac"/><use x="329.16" y="106.44" xlink:href="#ay"/><g clip-path="url(#aF)"><use x="374.32" y="106.44" xlink:href="#aG"/></g><g clip-path="url(#aH)"><use x="379.439" y="106.44" xlink:href="#aE"/></g><use x="288.88" y="120.48" xlink:href="#ab"/><use x="295.36" y="120.48" xlink:href="#ah"/><use x="297.643" y="120.48" xlink:href="#as"/><use x="304.014" y="120.48" xlink:href="#az"/><use x="309.32" y="120.48" xlink:href="#aA"/><use x="314.626" y="120.48" xlink:href="#ac"/><g clip-path="url(#aI)"><use x="318.009" y="120.48" xlink:href="#ao"/></g><g clip-path="url(#aJ)"><use x="374.32" y="120.48" xlink:href="#aK"/></g><g clip-path="url(#aL)"><use x="379.439" y="120.48" xlink:href="#aB"/></g><g clip-path="url(#aM)"><use x="69.28" y="148.56" xlink:href="#H" fill="red"/></g><use x="74.128" y="148.56" xlink:href="#I" fill="red"/><use x="78.268" y="148.56" xlink:href="#J" fill="red"/><use x="83.688" y="148.56" xlink:href="#K" fill="red"/><use x="89.04" y="148.56" xlink:href="#K" fill="red"/><use x="94.469" y="148.56" xlink:href="#L" fill="red"/><use x="96.95" y="148.56" xlink:href="#M" fill="red"/><g clip-path="url(#aN)"><use x="99.233" y="148.56" xlink:href="#aO" fill="red"/></g><use x="152.32" y="162.84" xlink:href="#H"/><use x="157.168" y="162.84" xlink:href="#I"/><use x="161.308" y="162.84" xlink:href="#K"/><use x="166.737" y="162.84" xlink:href="#Z"/><use x="170.373" y="162.84" xlink:href="#S"/><use x="233.44" y="162.84" xlink:href="#aP"/><use x="238.559" y="162.84" xlink:href="#aw"/><use x="275.016" y="162.84" xlink:href="#aP"/><use x="280.135" y="162.84" xlink:href="#aj"/><use x="322.45" y="162.84" xlink:href="#aB"/><use x="327.702" y="162.84" xlink:href="#aE"/><use x="374.36" y="162.84" xlink:href="#ai"/><use x="379.478" y="162.84" xlink:href="#aw"/><use x="152.32" y="176.16" xlink:href="#H"/><use x="157.168" y="176.16" xlink:href="#P"/><use x="160.601" y="176.16" xlink:href="#Q"/><use x="165.954" y="176.16" xlink:href="#R"/><use x="171.373" y="176.16" xlink:href="#S"/><use x="176.457" y="176.16" xlink:href="#T"/><use x="181.81" y="176.16" xlink:href="#P"/><use x="199.84" y="176.16" xlink:href="#av"/><use x="202.385" y="176.16" xlink:href="#au"/><use x="207.69" y="176.16" xlink:href="#aQ"/><use x="212.996" y="176.16" xlink:href="#ar"/><use x="216.43" y="176.16" xlink:href="#ao"/><use x="221.177" y="176.16" xlink:href="#au"/><use x="226.529" y="176.16" xlink:href="#ay"/><use x="228.751" y="176.16" xlink:href="#aR"/><use x="231.069" y="176.16" xlink:href="#ah"/><use x="233.352" y="176.16" xlink:href="#as"/><use x="239.723" y="176.16" xlink:href="#ao"/><g clip-path="url(#aS)"><use x="244.561" y="176.16" xlink:href="#ae"/></g><use x="247.36" y="176.16" xlink:href="#aC"/><use x="254.283" y="176.16" xlink:href="#as"/><use x="260.655" y="176.16" xlink:href="#ao"/><use x="265.492" y="176.16" xlink:href="#ae"/><use x="270.063" y="176.16" xlink:href="#at"/><use x="275.088" y="176.16" xlink:href="#au"/><use x="288.88" y="176.16" xlink:href="#aC"/><use x="293.52" y="176.16" xlink:href="#ao"/><use x="298.358" y="176.16" xlink:href="#ar"/><use x="301.879" y="176.16" xlink:href="#aT"/><use x="309.857" y="176.16" xlink:href="#ay"/><use x="312.175" y="176.16" xlink:href="#ad"/><use x="316.125" y="176.16" xlink:href="#ac"/><use x="319.558" y="176.16" xlink:href="#aq"/><use x="324.864" y="176.16" xlink:href="#ao"/><use x="329.611" y="176.16" xlink:href="#ah"/><g clip-path="url(#aU)"><use x="331.894" y="176.16" xlink:href="#aC"/></g><use x="336.4" y="176.16" xlink:href="#aC"/><use x="341.04" y="176.16" xlink:href="#aq"/><use x="346.393" y="176.16" xlink:href="#ac"/><use x="349.776" y="176.16" xlink:href="#az"/><use x="355.082" y="176.16" xlink:href="#ac"/><use x="358.464" y="176.16" xlink:href="#ay"/><use x="360.686" y="176.16" xlink:href="#ah"/><use x="362.908" y="176.16" xlink:href="#ag"/><use x="368.463" y="176.16" xlink:href="#af"/><use x="373.714" y="176.16" xlink:href="#ae"/><use x="231.64" y="189.24" xlink:href="#aV"/><use x="240.325" y="189.24" xlink:href="#aW"/><use x="245.518" y="189.24" xlink:href="#aX"/><use x="247.74" y="189.24" xlink:href="#aY"/><use x="321.362" y="189.24" xlink:href="#aZ"/><use x="326.109" y="189.24" xlink:href="#aY"/><use x="330.855" y="189.24" xlink:href="#ba"/><use x="338.935" y="189.24" xlink:href="#aW"/><use x="344.127" y="189.24" xlink:href="#aX"/><use x="346.349" y="189.24" xlink:href="#aY"/><use x="33.76" y="72.84" xlink:href="#bb"/><use x="42.445" y="72.84" xlink:href="#ao"/><use x="47.192" y="72.84" xlink:href="#aR"/><use x="49.51" y="72.84" xlink:href="#at"/><use x="29.2" y="99.84" xlink:href="#bc"/><use x="33.84" y="99.84" xlink:href="#at"/><use x="38.865" y="99.84" xlink:href="#aT"/><use x="46.933" y="99.84" xlink:href="#ao"/><use x="51.77" y="99.84" xlink:href="#aR"/><use x="54.088" y="99.84" xlink:href="#at"/><use x="397.24" y="86.16" xlink:href="#bb"/><use x="405.925" y="86.16" xlink:href="#ao"/><use x="410.672" y="86.16" xlink:href="#aR"/><use x="412.99" y="86.16" xlink:href="#at"/><use x="392.68" y="113.52" xlink:href="#bc"/><use x="397.32" y="113.52" xlink:href="#at"/><use x="402.345" y="113.52" xlink:href="#aT"/><use x="410.413" y="113.52" xlink:href="#ao"/><use x="415.25" y="113.52" xlink:href="#aR"/><use x="417.568" y="113.52" xlink:href="#at"/><use x="269.685" y="114.836" xlink:href="#bd" fill="red"/><use x="269.685" y="109.989" xlink:href="#be" fill="red"/><use x="269.685" y="105.848" xlink:href="#bf" fill="red"/><use x="269.685" y="100.395" xlink:href="#bg" fill="red"/><use x="269.685" y="95.042" xlink:href="#bg" fill="red"/><use x="269.685" y="89.589" xlink:href="#bh" fill="red"/><use x="269.685" y="87.165" xlink:href="#bk" fill="red"/><use x="269.685" y="84.842" xlink:href="#bi" fill="red"/><path d="M20.922 27.719h47.52v1.8h-47.52z"/><path d="M67.48 15h.121v12.719h-.121zm-.84 14.52h1.801v14.039h-1.8zM150.52 15h.12v26.762h-.12z" fill-rule="evenodd"/><path d="M20.922 41.762h178.08v1.797H20.922z"/><path d="M198.04 15h.121v26.762h-.121zM20.92 56.281H197.2v.84H20.92zm178.08.36h87.719v.12H199zm88.078-41.642h.121V55.8h-.121zm47.523 0h.117V55.8h-.117zm51.84 0h.117V55.8h-.117z" fill-rule="evenodd"/><path d="M286.72 55.801h142.2v1.8h-142.2z"/><path d="M427.96 15h.117v40.801h-.117zm-360 54.602H197.2v.84H67.96zm131.04.36h45.719v.117H199zM245.559 15h.121v54.121h-.121zm.96 54.121h41.04v1.801h-41.04z" fill-rule="evenodd"/><path d="M286.72 57.602h.84v11.52h-.84zm.84 12h98.043v.84H287.56z" fill-rule="evenodd"/><path d="M385.6 57.602h1.797v12.84H385.6z"/><path d="M387.4 69.602h39.723v.84H387.4zM20.92 82.922H197.2v.84H20.92zm178.08.36h45.719v.117H199zm88.559-.36h99.363v.84h-99.363zm-219.6 13.316h129.24v.84H67.959zm131.04.363h45.719v.117h-45.719zm88.559-.363h139.56v.84h-139.56z" fill-rule="evenodd"/><path d="M20.441 27.719h.48v83.883h-.48zm46.68 15.84h.84v66.242h-.84zm83.039 0h.84v66.242h-.84z" fill-rule="evenodd"/><path d="M20.922 109.8h178.08v1.8H20.922z"/><path d="M197.2 43.559h1.8v68.043h-1.8z"/><path d="M199 110.64h45.719v.121H199zm88.559-.36h99.363v.84h-99.363zM20.439 124.68h224.28v.12H20.439z" fill-rule="evenodd"/><path d="M244.72 69.121h1.8v56.52h-1.8zm42 1.8h.84v52.919h-.84zm47.52-13.32h.84v66.239h-.84zm51.84 12.84h.844v53.399h-.844z" fill-rule="evenodd"/><path d="M246.52 123.84h182.4v1.8h-182.4z"/><path d="M427.12 57.602h1.8v68.039h-1.8zM20.44 138.719h46.199v.121H20.44zm47.039-27.117h.121v26.277h-.121zm.96 26.277h83.04v1.8h-83.04zM150.52 111.6h.121v26.277h-.121zM20.44 152.76h46.199v.117H20.44z" fill-rule="evenodd"/><path d="M66.641 137.88h1.8v15.84h-1.8zm131.4-26.277h.121v40.32h-.121zm47.52 14.039h.121v26.281h-.121zm41.52 0h.121v26.281h-.121zm47.523 0h.117v26.281h-.117z" fill-rule="evenodd"/><path d="M68.441 151.92h318.96v1.797H68.441z"/><path d="M386.44 125.64h.117v26.281h-.117zm-366 40.438h129.24v.121H20.44zm131.04-.36H385.6v.84H151.48zm-131.04 13.68h129.24v.122H20.44zm131.04-.359H385.6v.84H151.48zM20.44 193.441h129.24v.117H20.44z" fill-rule="evenodd"/><path d="M149.68 139.68h1.8v54.719h-1.8zm48 14.039h.84v38.883h-.84zm47.52 0h.84v26.16h-.84zm41.52 0h.84v38.883h-.84zm47.52 0h.84v26.16h-.84z" fill-rule="evenodd"/><path d="M151.48 192.6H387.4v1.797H151.48z"/><path d="M385.6 153.72h1.797v40.68H385.6zm-318.12 0h.121v93.121h-.121zm83.039 40.68h.121v52.441h-.121zm47.52 0h.121v52.441h-.121zm47.52 0h.121v52.441h-.121zm41.52 0h.121v52.441h-.121zm47.523 0h.117v52.441h-.117zm51.838 0h.117v52.441h-.117zm41.52-68.758h.117v121.2h-.117zm20.039-110.64h.121v231.84H448z" fill-rule="evenodd"/><path d="M68.441 28.559h379.68v.121H68.441zm130.56 14.043h249.12v.117h-249.12zm229.92 14.039h19.199v.121h-19.199zm0 13.32h19.199v.117h-19.199zm0 13.32h19.199v.117h-19.199zm0 13.32h19.199v.117h-19.199zm0 14.039h19.199v.121h-19.199zm0 14.039h19.199v.121h-19.199zm-277.44 14.039h296.64v.121h-296.64zm235.92 14.043h60.723v.117h-60.723zm0 13.316h60.723v.121h-60.723zm0 13.32h60.723v.121h-60.723zm0 14.043h60.723v.117h-60.723zm-366.96 13.32h427.68v.117H20.441zm0 13.316h427.68v.121H20.441zm0 13.32h427.68v.121H20.441zm0 13.32h427.68v.121H20.441zM.398.716h448.08v.96H.398z" fill-rule="evenodd"/><path d="M.398.719h.961v246.48H.4z"/><path d="M.398 246.24h448.08v.96H.398z"/><path d="M447.52.719h.96v246.48h-.96z"/></svg>