<svg xmlns="http://www.w3.org/2000/svg" xmlns:xlink="http://www.w3.org/1999/xlink" width="680" height="667.33"><style><![CDATA[.B{stroke:#000}.C{stroke-width:2}.D{fill:none}.E{fill:#540e14}]]></style><g transform="translate(-180 -140)"><use xlink:href="#AZ" fill="url(#A)" class="B C"/><use xlink:href="#J" x="468.09" y="204.889"/><g class="B C"><use xlink:href="#Aa" fill="url(#K)"/><use xlink:href="#Aa" x="8" y="9" fill="url(#K)"/><use xlink:href="#Aa" x="16" y="18" fill="url(#K)"/></g><use xlink:href="#S" x="245.935" y="354.389"/><use xlink:href="#Z" x="232.423" y="383.722"/><path d="M440 300h160v127.33H440z" fill="url(#a)" class="B C"/><use xlink:href="#b" x="466.188" y="324.889"/><use xlink:href="#d" x="535.855" y="324.889"/><use xlink:href="#g" x="475.117" y="354.222"/><use xlink:href="#j" x="529.642" y="354.222"/><use xlink:href="#l" x="467.444" y="383.556"/><use xlink:href="#m" x="553.543" y="383.556"/><use xlink:href="#o" x="494.944" y="412.889"/><path d="M472 487.33h96l32 60-32 60h-96l-32-60z" fill="url(#p)" class="B C"/><use xlink:href="#t" x="462.725" y="522.889"/><use xlink:href="#v" x="547.466" y="522.889"/><use xlink:href="#x" x="452.235" y="552.222"/><use xlink:href="#y" x="490.802" y="552.222"/><use xlink:href="#z" x="568.753" y="552.222"/><use xlink:href="#AB" x="485.472" y="581.556"/><path d="M440 667.33h160v120H440z" fill="url(#AC)" class="B C"/><use xlink:href="#AE" x="445.173" y="717.556"/><use xlink:href="#AG" x="506.759" y="717.556"/><use xlink:href="#AH" x="452.914" y="746.889"/><path d="M712 667.33h96l32 60-32 60h-96l-32-60z" fill="url(#AI)" class="B C"/><use xlink:href="#AK" x="701.435" y="717.556"/><use xlink:href="#v" x="788.756" y="717.556"/><use xlink:href="#AL" x="734.91" y="746.889"/><path d="M680 487.33h160v120H680z" fill="url(#AM)" class="B C"/><use xlink:href="#AN" x="685.716" y="552.222"/><use xlink:href="#AL" x="784.105" y="552.222"/><path d="M712 307.33h96l32 60-32 60h-96l-32-60z" fill="url(#AO)" class="B C"/><use xlink:href="#AP" x="724.759" y="357.556"/><use xlink:href="#AQ" x="715.864" y="386.889"/><use xlink:href="#AZ" x="240" y="7.33" fill="url(#AR)" class="B C"/><use xlink:href="#AS" x="734.91" y="197.556"/><use xlink:href="#AX" x="708.157" y="226.889"/><use xlink:href="#AY" x="758.065" y="226.889"/><path d="M280 301.67V200h140.5" class="B C D"/><path d="M281 302.67h-2v-1.03h2z"/><g class="B C"><path d="M435.76 200l-14.26 4.64v-9.28z"/><path d="M520 242v38.5" class="D"/></g><path d="M521 242.03h-2V241h2z"/><g class="B C"><path d="M520 295.76l-4.64-14.26h9.28z"/><path d="M520 429.33v38.5" class="D"/></g><path d="M521 429.36h-2v-1.03h2z"/><g class="B C"><path d="M520 483.1l-4.64-14.27h9.28z"/><path d="M520 609.33v38.5" class="D"/></g><path d="M521 609.36h-2v-1.03h2z"/><g class="B C"><path d="M520 663.1l-4.64-14.27h9.28z"/><path d="M602 727.33h58.36" class="D"/></g><path d="M602.03 728.33H601v-2h1.03z"/><g class="B C"><path d="M675.63 727.33l-14.27 4.64v-9.27z"/><path d="M760 665.33v-38.5" class="D"/></g><path d="M761 666.33h-2v-1.02h2z"/><g class="B C"><path d="M760 611.57l4.64 14.27h-9.28z"/><path d="M760 485.33v-38.5" class="D"/></g><path d="M761 486.33h-2v-1.02h2z"/><g class="B C"><path d="M760 431.57l4.64 14.27h-9.28z"/><path d="M760 305.33v-38.5" class="D"/></g><path d="M761 306.33h-2v-1.02h2z"/><path d="M760 251.57l4.64 14.27h-9.28z" class="B C"/><defs><linearGradient id="A" x1="600" y1="160" x2="600" y2="240" xlink:href="#Ac"><stop offset="0%" stop-color="#fff"/><stop offset="44.96%" stop-color="#c7e8ac"/><stop offset="100%" stop-color="#99d5ca"/></linearGradient><path d="M132-132c-21 0-37 9-50 16v100l26 4V0H10v-12l21-4v-133l-21-5v-11h69l2 34c17-18 35-41 71-40v61c-17 3-14-14-20-22" id="B"/><path d="M12-83c0-55 22-85 75-86 52-1 66 33 63 88H64c-1 37 6 64 44 63 14 0 28-4 39-6 3 28-28 25-55 27-57 4-80-31-80-86zm90-17c2-26 0-63-27-48-10 9-11 28-11 48h38" id="C"/><path d="M31-163c51-5 127-20 127 40v107l17 4V0h-61l-4-13C82 13 12 12 12-46c0-51 46-52 95-53 9-45-22-69-57-44l-7 20H31v-40zM62-47c0 30 26 34 45 23v-59c-28 0-45 6-45 36" id="D"/><path d="M15-82c-4-69 47-101 113-83l-1-69-17-4v-12h68v234l18 4V0h-63l-4-9C77 23 5-9 15-82zm112-66c-43-16-64 17-61 65 2 33 3 67 32 67 12 0 22-3 29-8v-124" id="E"/><path d="M-3 50V25h186v25H-3" id="F"/><path d="M109-18c15 0 31-2 42-6v14c-11 9-31 13-51 13-59 0-86-28-88-86-3-75 66-101 135-80v48h-13c-3-20-7-40-34-37-51 7-55 138 9 134" id="G"/><path d="M76-16l18 4V0H7v-12l18-4v-218l-17-4v-12h68v234" id="H"/><path d="M102-142c-14-17-68-15-54 18 24 26 83 17 83 72 0 62-72 62-120 47v-45h12c4 23 16 37 43 37 35 0 39-37 9-46-31-9-65-19-64-61 0-52 59-55 108-45v43h-11" id="I"/><g id="J"><use transform="scale(.06790123456790124)" xlink:href="#B"/><use transform="matrix(.067901 0 0 .067901 10.320988 0)" xlink:href="#C"/><use transform="matrix(.067901 0 0 .067901 21.117284 0)" xlink:href="#D"/><use transform="matrix(.067901 0 0 .067901 33.339506 0)" xlink:href="#E"/><use transform="matrix(.067901 0 0 .067901 46.919753 0)" xlink:href="#F"/><use transform="matrix(.067901 0 0 .067901 59.141975 0)" xlink:href="#G"/><use transform="matrix(.067901 0 0 .067901 69.938272 0)" xlink:href="#C"/><use transform="matrix(.067901 0 0 .067901 80.734568 0)" xlink:href="#H"/><use transform="matrix(.067901 0 0 .067901 87.524691 0)" xlink:href="#H"/><use transform="matrix(.067901 0 0 .067901 94.314815 0)" xlink:href="#I"/></g><radialGradient id="K" fx="280" fy="363.67" cx="280" cy="363.67" r="80" xlink:href="#Ac"><stop offset="0%" stop-color="#fff"/><stop offset="40.76%" stop-color="#fff"/><stop offset="100%" stop-color="#ffbbb1"/></radialGradient><path d="M152 0h-7L59-203v189l32 5v9H10v-9l31-5v-208l-31-4v-10h72l76 180 84-180h68v10l-31 4v208l31 5v9h-96v-9l32-5v-189" id="L"/><path d="M124-13C89 8 26 15 26-45v-108c-8-3-24 2-21-12h50v118c-3 37 42 32 69 25v-131l-25-4v-8h54v153c8 3 24-2 21 12h-48" id="M"/><path d="M65-12l28 4v8H7v-8l28-4v-226l-28-4v-8h58v238" id="N"/><path d="M54-38c-1 25 24 26 44 20v12C71 10 25 9 25-35v-115H4c-2-14 14-10 21-15l18-38h11v38h38v15H54v112" id="O"/><path d="M47-200c-23 0-25-39 0-38 13 0 18 7 20 19-1 11-8 19-20 19zM65-12l28 4v8H8v-8l28-4v-141l-24-4v-8h53v153" id="P"/><path d="M166-85c3 67-44 102-111 85l1 64 29 4v9H6v-9l21-4v-217c-7-3-22 1-19-12h46l1 9c11-8 26-14 45-14 47 2 64 36 66 85zM56-13c53 14 83-14 78-72 7-53-33-79-78-60v132" id="Q"/><path d="M84-170c49 0 66 33 63 87H46c-8 60 38 80 95 63v10C128-2 108 4 88 4 34 4 14-29 14-84c-1-54 22-86 70-86zm33 73c12-57-57-82-69-24-1 7-2 15-2 24h71" id="R"/><g id="S"><use transform="scale(.06790123456790124)" xlink:href="#L"/><use transform="matrix(.067901 0 0 .067901 21.728395 0)" xlink:href="#M"/><use transform="matrix(.067901 0 0 .067901 33.950617 0)" xlink:href="#N"/><use transform="matrix(.067901 0 0 .067901 40.740741 0)" xlink:href="#O"/><use transform="matrix(.067901 0 0 .067901 47.530864 0)" xlink:href="#P"/><use transform="matrix(.067901 0 0 .067901 54.320988 0)" xlink:href="#Q"/><use transform="matrix(.067901 0 0 .067901 66.54321 0)" xlink:href="#N"/><use transform="matrix(.067901 0 0 .067901 73.333333 0)" xlink:href="#R"/></g><path d="M75-17c87 13 134-18 134-103 0-78-51-106-134-100v203zm171-102C246 5 139 7 10 0v-9l31-5v-208l-31-4v-10h107c82 0 129 35 129 117" id="T"/><path d="M90-170c52 0 76 32 76 87 0 54-24 87-77 87-51 0-75-34-75-87 0-54 24-87 76-87zM89-10c39 0 46-35 46-73 0-39-7-73-46-73-39 1-44 34-44 73s6 72 44 73" id="U"/><path d="M45-84c0 64 52 80 104 63 1 25-30 25-55 25-56 0-80-32-80-88 0-76 62-98 131-80v46h-10c-5-15-4-31-23-35-47-10-67 21-67 69" id="V"/><path d="M126-118c4-37-42-32-68-25v131l24 4v8H8C5-13 21-9 28-12v-141c-7-3-23 1-20-12h48l1 13c22-15 77-30 92 2 32-22 104-36 104 29v109c8 3 24-2 21 12h-75v-8l25-4v-106c3-39-45-31-72-24 7 37 1 88 3 130l25 4v8h-78v-8l24-4v-106" id="W"/><path d="M125-118c4-37-41-34-68-26v132l23 4v8H8C5-13 21-9 28-12v-141c-7-3-23 1-20-12h47l2 13c31-23 98-29 98 31v109c7 3 23-1 20 12h-72v-8l22-4v-106" id="X"/><path d="M41-130c7 48 86 23 86 84 0 56-69 57-112 41v-40c20 0 9 29 31 31 35 19 77-26 41-50-27-18-72-13-72-59 0-50 58-52 100-41v36c-19 1-8-25-28-25-21-7-50-1-46 23" id="Y"/><g id="Z"><use transform="scale(.06790123456790124)" xlink:href="#T"/><use transform="matrix(.067901 0 0 .067901 17.58642 0)" xlink:href="#U"/><use transform="matrix(.067901 0 0 .067901 29.808642 0)" xlink:href="#V"/><use transform="matrix(.067901 0 0 .067901 40.604938 0)" xlink:href="#M"/><use transform="matrix(.067901 0 0 .067901 52.82716 0)" xlink:href="#W"/><use transform="matrix(.067901 0 0 .067901 71.839506 0)" xlink:href="#R"/><use transform="matrix(.067901 0 0 .067901 82.635802 0)" xlink:href="#X"/><use transform="matrix(.067901 0 0 .067901 94.858025 0)" xlink:href="#O"/><use transform="matrix(.067901 0 0 .067901 101.648148 0)" xlink:href="#Y"/></g><linearGradient id="a" x1="440" y1="300" x2="543.53" y2="427.33" xlink:href="#Ac"><stop offset="0%" stop-color="#fff"/><stop offset="46.64%" stop-color="#ffeca9"/><stop offset="100%" stop-color="#ffc374"/></linearGradient><g id="b"><use transform="scale(.06790123456790124)" xlink:href="#T"/><use transform="matrix(.067901 0 0 .067901 17.58642 0)" xlink:href="#R"/><use transform="matrix(.067901 0 0 .067901 28.382716 0)" xlink:href="#O"/><use transform="matrix(.067901 0 0 .067901 35.17284 0)" xlink:href="#R"/><use transform="matrix(.067901 0 0 .067901 45.969136 0)" xlink:href="#V"/><use transform="matrix(.067901 0 0 .067901 56.765432 0)" xlink:href="#O"/></g><path d="M75-106v92l39 5v9H13v-9l28-5v-208l-31-4v-10h177v57h-11l-6-38c-28-4-63-3-95-3v98h69l5-28h11v73h-11l-5-29H75" id="c"/><g id="d"><use transform="scale(.06790123456790124)" xlink:href="#c"/><use transform="matrix(.067901 0 0 .067901 13.580247 0)" xlink:href="#P"/><use transform="matrix(.067901 0 0 .067901 20.37037 0)" xlink:href="#N"/><use transform="matrix(.067901 0 0 .067901 27.160494 0)" xlink:href="#R"/></g><path d="M55 0v-9l38-5v-207c-22 1-53 0-70 4l-5 37H7v-56h207v56h-12l-5-37-70-3v206l37 5v9H55" id="e"/><path d="M161-154L85 37C75 66 49 86 8 75V39c18-2 6 24 29 21 30-4 38-32 47-58L21-153c-7-3-20 0-17-12h77v8l-26 4 45 116 43-116-26-4v-8h62v8" id="f"/><g id="g"><use transform="scale(.06790123456790124)" xlink:href="#e"/><use transform="matrix(.067901 0 0 .067901 13.17284 0)" xlink:href="#f"/><use transform="matrix(.067901 0 0 .067901 25.395062 0)" xlink:href="#Q"/><use transform="matrix(.067901 0 0 .067901 37.617284 0)" xlink:href="#R"/></g><path d="M32-163c41-10 102-14 102 39v112c8 3 24-2 21 12h-45l-4-17C83 13 3 13 13-46c-2-50 45-50 92-51 4-36-5-70-42-56-6 2-12 4-16 6-4 7 0 23-15 20v-36zM42-47c0 41 41 33 63 22v-59c-34 1-63-1-63 37" id="h"/><path d="M13-81c0-71 46-101 114-85l-1-72-28-4v-8h57v238c8 3 24-2 21 12h-47l-2-12C80 23 13-1 13-81zm77-74c-37 1-44 33-45 74 0 38 9 66 45 66 14 0 27-3 36-7v-130c-10-1-24-3-36-3" id="i"/><g id="j"><use transform="scale(.06790123456790124)" xlink:href="#h"/><use transform="matrix(.067901 0 0 .067901 10.796296 0)" xlink:href="#X"/><use transform="matrix(.067901 0 0 .067901 23.018519 0)" xlink:href="#i"/></g><path d="M81-9v9H4v-9l26-5 81-224h33l83 224 30 5v9h-99v-9l31-5-23-68H73L49-14zm38-203L78-98h82" id="k"/><g id="l"><use transform="scale(.06790123456790124)" xlink:href="#k"/><use transform="matrix(.067901 0 0 .067901 17.58642 0)" xlink:href="#O"/><use transform="matrix(.067901 0 0 .067901 24.376543 0)" xlink:href="#O"/><use transform="matrix(.067901 0 0 .067901 31.166667 0)" xlink:href="#R"/><use transform="matrix(.067901 0 0 .067901 41.962963 0)" xlink:href="#W"/><use transform="matrix(.067901 0 0 .067901 60.975309 0)" xlink:href="#Q"/><use transform="matrix(.067901 0 0 .067901 73.197531 0)" xlink:href="#O"/></g><g id="m"><use transform="scale(.06790123456790124)" xlink:href="#O"/><use transform="matrix(.067901 0 0 .067901 6.790123 0)" xlink:href="#U"/></g><path d="M199-173c-1 36-21 56-49 65l64 94 26 5v9h-57l-66-103H75v89l35 5v9H13v-9l28-5v-208l-31-4v-10c80 4 190-20 189 63zM75-119c50 2 89-1 89-51 0-49-39-52-89-50v101" id="n"/><g id="o"><use transform="scale(.06790123456790124)" xlink:href="#n"/><use transform="matrix(.067901 0 0 .067901 16.296296 0)" xlink:href="#R"/><use transform="matrix(.067901 0 0 .067901 27.092593 0)" xlink:href="#h"/><use transform="matrix(.067901 0 0 .067901 37.888889 0)" xlink:href="#i"/></g><linearGradient id="p" x1="440" y1="487.33" x2="600" y2="594" xlink:href="#Ac"><stop offset="0%" stop-color="#c1e4f7"/><stop offset="54.62%" stop-color="#fff"/><stop offset="100%" stop-color="#f9d2de"/></linearGradient><path d="M52-115c0 93 80 130 150 87l7-35h11l-1 55c-23 7-52 12-83 12C60 4 19-37 15-115c-5-113 97-141 201-114l1 51h-12l-5-30c-15-9-39-16-62-16-66 0-86 41-86 109" id="q"/><path d="M164-154L98 4H85L17-153c-7-3-20 0-17-12h77v8l-26 4L99-38l46-115-26-4v-8h61v8" id="r"/><path d="M57-145c16-10 35-24 60-25v45c-19 1-8-30-40-17l-20 6v124l29 4v8H7v-8l21-4v-141c-8-3-24 2-21-12h48" id="s"/><g id="t"><use transform="scale(.06790123456790124)" xlink:href="#q"/><use transform="matrix(.067901 0 0 .067901 16.296296 0)" xlink:href="#U"/><use transform="matrix(.067901 0 0 .067901 28.518519 0)" xlink:href="#X"/><use transform="matrix(.067901 0 0 .067901 40.740741 0)" xlink:href="#r"/><use transform="matrix(.067901 0 0 .067901 52.962963 0)" xlink:href="#R"/><use transform="matrix(.067901 0 0 .067901 63.759259 0)" xlink:href="#s"/><use transform="matrix(.067901 0 0 .067901 71.839506 0)" xlink:href="#O"/></g><path d="M126-119c3-38-42-31-69-25v132l23 4v8H7v-8l21-4v-226l-24-4v-8h53l-1 98c31-22 99-31 99 31v109c7 3 23-1 20 12h-71v-8l22-4v-107" id="u"/><g id="v"><use transform="scale(.06790123456790124)" xlink:href="#O"/><use transform="matrix(.067901 0 0 .067901 6.790123 0)" xlink:href="#u"/><use transform="matrix(.067901 0 0 .067901 19.012346 0)" xlink:href="#R"/></g><path d="M103-236c-39-15-35 32-34 71h44v15H69v136l35 6v8H15v-8l25-6v-136H11v-9l29-7c-6-59 23-100 80-84v36c-15 2-12-14-17-22" id="w"/><g id="x"><use transform="scale(.06790123456790124)" xlink:href="#w"/><use transform="matrix(.067901 0 0 .067901 8.080247 0)" xlink:href="#P"/><use transform="matrix(.067901 0 0 .067901 14.87037 0)" xlink:href="#N"/><use transform="matrix(.067901 0 0 .067901 21.660494 0)" xlink:href="#R"/></g><g id="y"><use transform="scale(.06790123456790124)" xlink:href="#V"/><use transform="matrix(.067901 0 0 .067901 10.796296 0)" xlink:href="#U"/><use transform="matrix(.067901 0 0 .067901 23.018519 0)" xlink:href="#X"/><use transform="matrix(.067901 0 0 .067901 35.240741 0)" xlink:href="#O"/><use transform="matrix(.067901 0 0 .067901 42.030864 0)" xlink:href="#R"/><use transform="matrix(.067901 0 0 .067901 52.82716 0)" xlink:href="#X"/><use transform="matrix(.067901 0 0 .067901 65.049383 0)" xlink:href="#O"/></g><g id="z"><use transform="scale(.06790123456790124)" xlink:href="#O"/><use transform="matrix(.067901 0 0 .067901 6.790123 0)" xlink:href="#U"/></g><path d="M107-230c-31-13-29 30-29 65h34v18H78v131l27 4V0H10v-12l18-4v-131H3v-12l25-7c-8-66 31-98 95-84v39h-11" id="AA"/><g id="AB"><use transform="scale(.06790123456790124)" xlink:href="#G"/><use transform="matrix(.067901 0 0 .067901 10.796296 0)" xlink:href="#C"/><use transform="matrix(.067901 0 0 .067901 21.592593 0)" xlink:href="#H"/><use transform="matrix(.067901 0 0 .067901 28.382716 0)" xlink:href="#H"/><use transform="matrix(.067901 0 0 .067901 35.17284 0)" xlink:href="#F"/><use transform="matrix(.067901 0 0 .067901 47.395062 0)" xlink:href="#E"/><use transform="matrix(.067901 0 0 .067901 60.975309 0)" xlink:href="#AA"/></g><linearGradient id="AC" x1="440" y1="787.33" x2="600" y2="667.33" xlink:href="#Ac"><stop offset="0%" stop-color="#c7e8ac"/><stop offset="54.2%" stop-color="#fff"/><stop offset="96.64%" stop-color="#c1e4f7"/></linearGradient><path d="M256-236v10l-26 4L135 5h-9L31-222l-27-4v-10h95v10l-31 4 71 174 71-174-31-4v-10h77" id="AD"/><g id="AE"><use transform="scale(.06790123456790124)" xlink:href="#AD"/><use transform="matrix(.067901 0 0 .067901 14.87037 0)" xlink:href="#h"/><use transform="matrix(.067901 0 0 .067901 25.666667 0)" xlink:href="#N"/><use transform="matrix(.067901 0 0 .067901 32.45679 0)" xlink:href="#M"/><use transform="matrix(.067901 0 0 .067901 44.679012 0)" xlink:href="#R"/></g><path d="M53-14c58 12 82-15 82-73 0-52-35-77-82-58v131zM89 4C64 4 42-2 24-9v-229l-24-4v-8h53l-1 94c48-33 114-4 114 69 0 57-23 91-77 91" id="AF"/><g id="AG"><use transform="scale(.06790123456790124)" xlink:href="#k"/><use transform="matrix(.067901 0 0 .067901 17.58642 0)" xlink:href="#O"/><use transform="matrix(.067901 0 0 .067901 24.376543 0)" xlink:href="#O"/><use transform="matrix(.067901 0 0 .067901 31.166667 0)" xlink:href="#s"/><use transform="matrix(.067901 0 0 .067901 39.246914 0)" xlink:href="#P"/><use transform="matrix(.067901 0 0 .067901 46.037037 0)" xlink:href="#AF"/><use transform="matrix(.067901 0 0 .067901 58.259259 0)" xlink:href="#M"/><use transform="matrix(.067901 0 0 .067901 70.481481 0)" xlink:href="#O"/><use transform="matrix(.067901 0 0 .067901 77.271605 0)" xlink:href="#R"/></g><g id="AH"><use transform="scale(.06790123456790124)" xlink:href="#q"/><use transform="matrix(.067901 0 0 .067901 16.296296 0)" xlink:href="#N"/><use transform="matrix(.067901 0 0 .067901 23.08642 0)" xlink:href="#h"/><use transform="matrix(.067901 0 0 .067901 33.882716 0)" xlink:href="#Y"/><use transform="matrix(.067901 0 0 .067901 43.388889 0)" xlink:href="#Y"/><use transform="matrix(.067901 0 0 .067901 52.895062 0)" xlink:href="#P"/><use transform="matrix(.067901 0 0 .067901 59.685185 0)" xlink:href="#w"/><use transform="matrix(.067901 0 0 .067901 67.765432 0)" xlink:href="#P"/><use transform="matrix(.067901 0 0 .067901 74.555556 0)" xlink:href="#V"/><use transform="matrix(.067901 0 0 .067901 85.351852 0)" xlink:href="#h"/><use transform="matrix(.067901 0 0 .067901 96.148148 0)" xlink:href="#O"/><use transform="matrix(.067901 0 0 .067901 102.938272 0)" xlink:href="#P"/><use transform="matrix(.067901 0 0 .067901 109.728395 0)" xlink:href="#U"/><use transform="matrix(.067901 0 0 .067901 121.950617 0)" xlink:href="#X"/></g><radialGradient id="AI" fx="802.11" fy="721.02" cx="802.11" cy="721.02" r="80" xlink:href="#Ac"><stop offset="0%" stop-color="#fff" stop-opacity=".35"/><stop offset="18.91%" stop-color="#fff" stop-opacity=".35"/><stop offset="100%" stop-color="#ffbbb1"/></radialGradient><path d="M10 0v-8l90-143c-23 2-54-4-70 6-5 8 1 26-14 24v-44h122v8L47-14c29-2 65 3 86-8l9-35h8l-5 57H10" id="AJ"/><g id="AK"><use transform="scale(.06790123456790124)" xlink:href="#k"/><use transform="matrix(.067901 0 0 .067901 17.58642 0)" xlink:href="#X"/><use transform="matrix(.067901 0 0 .067901 29.808642 0)" xlink:href="#h"/><use transform="matrix(.067901 0 0 .067901 40.604938 0)" xlink:href="#N"/><use transform="matrix(.067901 0 0 .067901 47.395062 0)" xlink:href="#f"/><use transform="matrix(.067901 0 0 .067901 59.617284 0)" xlink:href="#AJ"/><use transform="matrix(.067901 0 0 .067901 70.41358 0)" xlink:href="#R"/></g><g id="AL"><use transform="scale(.06790123456790124)" xlink:href="#q"/><use transform="matrix(.067901 0 0 .067901 16.296296 0)" xlink:href="#R"/><use transform="matrix(.067901 0 0 .067901 27.092593 0)" xlink:href="#N"/><use transform="matrix(.067901 0 0 .067901 33.882716 0)" xlink:href="#N"/><use transform="matrix(.067901 0 0 .067901 40.67284 0)" xlink:href="#Y"/></g><linearGradient id="AM" x1="680" y1="607.33" x2="840" y2="604.61" xlink:href="#Ac"><stop offset="0%" stop-color="#f5b5c8"/><stop offset="50.84%" stop-color="#fff" stop-opacity=".34"/><stop offset="100%" stop-color="#ffc374"/></linearGradient><g id="AN"><use transform="scale(.06790123456790124)" xlink:href="#q"/><use transform="matrix(.067901 0 0 .067901 16.296296 0)" xlink:href="#U"/><use transform="matrix(.067901 0 0 .067901 28.518519 0)" xlink:href="#W"/><use transform="matrix(.067901 0 0 .067901 47.530864 0)" xlink:href="#Q"/><use transform="matrix(.067901 0 0 .067901 59.753086 0)" xlink:href="#U"/><use transform="matrix(.067901 0 0 .067901 71.975309 0)" xlink:href="#Y"/><use transform="matrix(.067901 0 0 .067901 81.481481 0)" xlink:href="#R"/></g><radialGradient id="AO" fx="705.26" fy="332.6" cx="705.26" cy="332.6" r="80" xlink:href="#Ac"><stop offset="0%" stop-color="#fff"/><stop offset="56.69%" stop-color="#c1e4f7" stop-opacity=".82"/><stop offset="100%" stop-color="#82c9ef" stop-opacity=".44"/></radialGradient><g id="AP"><use transform="scale(.06790123456790124)" xlink:href="#q"/><use transform="matrix(.067901 0 0 .067901 16.296296 0)" xlink:href="#U"/><use transform="matrix(.067901 0 0 .067901 28.518519 0)" xlink:href="#N"/><use transform="matrix(.067901 0 0 .067901 35.308642 0)" xlink:href="#N"/><use transform="matrix(.067901 0 0 .067901 42.098765 0)" xlink:href="#h"/><use transform="matrix(.067901 0 0 .067901 52.895062 0)" xlink:href="#O"/><use transform="matrix(.067901 0 0 .067901 59.685185 0)" xlink:href="#R"/></g><g id="AQ"><use transform="scale(.06790123456790124)" xlink:href="#q"/><use transform="matrix(.067901 0 0 .067901 16.296296 0)" xlink:href="#U"/><use transform="matrix(.067901 0 0 .067901 28.518519 0)" xlink:href="#N"/><use transform="matrix(.067901 0 0 .067901 35.308642 0)" xlink:href="#M"/><use transform="matrix(.067901 0 0 .067901 47.530864 0)" xlink:href="#W"/><use transform="matrix(.067901 0 0 .067901 66.54321 0)" xlink:href="#X"/><use transform="matrix(.067901 0 0 .067901 78.765432 0)" xlink:href="#Y"/></g><linearGradient id="AR" x1="440" y1="160" x2="557.89" y2="240" xlink:href="#Ac"><stop offset="0%" stop-color="#f9d2de"/><stop offset="55.61%" stop-color="#d1bcd2"/><stop offset="100%" stop-color="#b492b6" stop-opacity=".33"/></linearGradient><g id="AS"><use transform="scale(.06790123456790124)" xlink:href="#c"/><use transform="matrix(.067901 0 0 .067901 13.580247 0)" xlink:href="#P"/><use transform="matrix(.067901 0 0 .067901 20.37037 0)" xlink:href="#X"/><use transform="matrix(.067901 0 0 .067901 32.592593 0)" xlink:href="#h"/><use transform="matrix(.067901 0 0 .067901 43.388889 0)" xlink:href="#N"/></g><path d="M29 0l2-13 39-5 35-199-50 3-14 44H26l12-66h194l-12 66h-15l2-44-50-3-35 199 36 5-2 13H29" id="AT" class="E"/><path d="M59-16l21 4-2 12H9l27-149-16-5 1-11h65zm39-207c0 38-54 32-54 0 0-16 10-27 28-27 17 0 26 11 26 27" id="AU" class="E"/><path d="M98-25C87-11 72 4 49 4 17 4 5-21 4-54c-1-72 43-130 119-111l11-69-28-4 2-12h76L143-15l17 4-2 11h-58zm20-119c-46-28-68 37-68 82 0 34 24 52 43 25 18-25 15-73 25-107" id="AV" class="E"/><path d="M116-165c22 0 56-7 42 26C128-75 87-21 52 37 36 63 6 88-36 74l7-42h11c-5 29 27 32 42 11 9-13 20-28 29-42L15-149l-11-5 2-11h54L86-53c14-28 38-48 43-84 2-12-7-14-15-17" id="AW" class="E"/><g id="AX"><use transform="scale(.06790123456790124)" xlink:href="#AT"/><use transform="matrix(.067901 0 0 .067901 13.987654 0)" xlink:href="#AU"/><use transform="matrix(.067901 0 0 .067901 20.777778 0)" xlink:href="#AV"/><use transform="matrix(.067901 0 0 .067901 33 0)" xlink:href="#AW"/></g><g id="AY"><use transform="scale(.06790123456790124)" xlink:href="#e"/><use transform="matrix(.067901 0 0 .067901 13.17284 0)" xlink:href="#h"/><use transform="matrix(.067901 0 0 .067901 23.969136 0)" xlink:href="#AF"/><use transform="matrix(.067901 0 0 .067901 36.191358 0)" xlink:href="#N"/><use transform="matrix(.067901 0 0 .067901 42.981481 0)" xlink:href="#R"/></g><path id="AZ" d="M568 160c17.67 0 32 17.9 32 40s-14.33 40-32 40h-96c-17.67 0-32-17.9-32-40s14.33-40 32-40z"/><path id="Aa" d="M200 303.67h144v102c-24.05-17.04-39.02-17.04-48.1-17.04-14.4 0-33.55 17.04-47.95 17.04-8.93 0-24.05 0-47.95-17.04z"/></defs></g><defs ><linearGradient id="Ac" gradientUnits="userSpaceOnUse"/></defs></svg>