<svg xmlns="http://www.w3.org/2000/svg" viewBox="0 0 140.506 162.243" height="613.201" width="531.047" xmlns:v="https://vecta.io/nano"><defs><linearGradient id="A" x1="66.246" y1="126.001" x2="71.686" y2="18.179" gradientUnits="userSpaceOnUse"><stop offset="0" stop-color="#000e11"/><stop offset="1" stop-color="#002e3a"/></linearGradient><linearGradient id="B" x1="69.273" y1="15.12" x2="69.926" y2="65.753" gradientUnits="userSpaceOnUse"><stop offset="0" stop-color="#004458"/><stop offset="1" stop-color="#00252e"/></linearGradient><linearGradient id="C" x1="69.273" y1="15.12" x2="69.926" y2="65.753" gradientUnits="userSpaceOnUse"><stop offset="0" stop-color="#004458"/><stop offset="1" stop-color="#001c24"/></linearGradient><filter id="D" x="-.031" width="1.062" y="-.086" height="1.172" color-interpolation-filters="sRGB"><feGaussianBlur stdDeviation="1.498"/></filter></defs><path d="M70.253 162.243L0 121.682V40.56L70.253 0l70.253 40.56v81.12z" fill="#7e0f00"/><path d="M70.253 155.828L5.555 118.475V43.768L70.253 6.415l64.698 37.353v74.707z" fill="url(#A)"/><path d="M17.812 36.292c0 .315 18.85 16.835 31.797 24.046 10.272 5.72 14.477-13.832 22.722-14.334 7.694-.47 13.344 14.596 23.85 9.432 14.943-7.346 28.796-17.692 28.796-17.692L70.253 6.415z" fill="url(#B)"/><path d="M11.667 36.96c-2.252 1.44 7.827 20.59 19.768 29.793C41.592 74.58 61.85 77.61 70.194 78.6c8.46 1.013 28.134-8.566 39.35-16.493 14.485-10.236 20.418-23.318 16.435-25.3L70.788 40.09z" fill="url(#C)" filter="url(#D)"/><path d="M70.253 0L0 40.56v81.12l70.253 40.56 70.253-40.56V40.56zm0 6.415l64.698 37.353v74.707l-64.698 37.353-64.698-37.353V43.768z" fill="#7e0f00"/><path d="M10.52 47.555L62.023 17.24l2.246 48.575-6.844.895c-1.417-9.66-3.23-16.794-5.394-21.442-2.07-4.448-4.354-7.1-6.812-8.027-2.296-.954-4.696-.75-7.174.517-1.365.698-2.34 1.6-2.952 2.744-.602 1.073-.903 2.355-.9 3.858l-.377 73.348c-.007 1.404.265 2.695.824 3.885.595 1.223 1.32 2.07 2.178 2.535l8.313 4.493-.04 6.78-29.117-17.946.018-4.587 4.262 2.304c.7.374 1.25.317 1.67-.182.426-.54.644-1.435.65-2.674l.275-62.493c.007-1.47-.214-2.446-.657-2.92-.418-.48-1.076-.485-1.962-.033-4.507 2.304-7.244 11.02-8.615 25.83l-1.825.24.74-25.384m114.234 3.564l1.925-5.884 1.775 1.2-.037 27.294-2.226-.493c-.532-8.34-1.8-15-3.862-20.134-2.2-5.467-5.004-9.33-8.506-11.46-4.265-2.592-8.286-1.643-11.9 3.382-3.955 5.485-6.358 16.508-6.936 32.838-.62 17.5 1.2 30.126 5.162 37.218 2.95 5.132 7.13 6.396 12.166 4.262 4.45-1.884 7.872-5.76 10.487-11.444 1.765-3.86 3.003-8.965 3.77-15.347l2.154-.2c-.675 7.88-2.382 14.606-5.303 20.432-3.2 6.4-7.507 11.148-13.264 14.07-8.954 4.547-18.018 3.88-26.568-3.72-10.154-9.15-15.534-24.816-14.604-45.362 1.016-22.446 8.482-37.3 20.206-43.653 8.2-4.433 16.063-3.507 23.435 1.487 2.564 1.737 4.77 3.85 6.666 6.32 1.82 2.32 3.645 5.407 5.47 9.183" fill="#d2ff64"/></svg>