<svg xmlns="http://www.w3.org/2000/svg" xmlns:xlink="http://www.w3.org/1999/xlink" width="531.05" height="613.23" viewBox="0 0 140.51 162.25"><style><![CDATA[.B{stroke-linejoin:round}.C{stroke-width:.165}.D{fill:#80623c}.E{fill:#c0935c}.F{fill:#ffc37a}.G{fill:#fc1d05}.H{stroke-width:.02}.I{fill:#6e1204}.J{fill:#ba1901}.K{stroke-width:.09}.L{fill:#4b7f89}.M{fill:#79b9c5}.N{fill:#9ff2ff}.O{fill:#7b687a}.P{fill:#b593ac}.Q{fill:#ffc2e1}.R{fill:#69802f}.S{fill:#9ebf49}.T{fill:#cfff6a}.U{fill-opacity:.996}]]></style><defs><filter id="A" x="-.116" y="-.213" width="1.232" height="1.426" color-interpolation-filters="sRGB"><feGaussianBlur stdDeviation="6.24"/></filter><linearGradient id="B" x1="-33.11" x2="-27.67" y1="148.734" y2="40.911" gradientUnits="userSpaceOnUse"><stop stop-color="#000e11" offset="0"/><stop stop-color="#002e3a" offset="1"/></linearGradient><linearGradient id="C" x1="-30.238" x2="-29.482" y1="39.22" y2="97.807" gradientUnits="userSpaceOnUse"><stop stop-color="#004458" offset="0"/><stop stop-color="#00252e" offset="1"/></linearGradient><path id="D" d="M70.92 106.426l7.36 4.25v8.5l-7.36-4.25z"/><path id="E" d="M78.29 110.676l7.36-4.25v8.5l-7.36 4.25z"/><path id="F" d="M70.92 106.426l7.36-4.25 7.36 4.25-7.36 4.25z"/><path id="G" d="M69.694 74.526l.866.5v1l-.866-.5z"/><path id="H" d="M70.554 75.026l.866-.5v1l-.866.5z"/><path id="I" d="M69.694 74.526l.866-.5.866.5-.866.5z"/><path id="J" d="M65.9 35.276l4.763 2.75v5.5l-4.763-2.75z"/><path id="K" d="M70.66 38.026l4.763-2.75v5.5l-4.763 2.75z"/><path id="L" d="M65.9 35.276l4.763-2.75 4.763 2.75-4.763 2.75z"/><path id="M" d="M69.425 151.63l.777-.5.757 1.318q.054-.33.16-.5.106-.172.29-.277.253-.146.476-.07.254.1.44.414l.462.804q.048.083.11.1.06.016.132-.025l.118-.068.097.168-1.023.588-.097-.168.1-.063q.092-.053.105-.106.02-.07-.028-.153l-.453-.79q-.098-.17-.247-.217-.15-.05-.286.03-.17.098-.21.31-.04.214.1.46l.36.628q.047.08.108.1.063.017.135-.025l.123-.07.097.168-1.054.605-.097-.168.147-.084q.078-.045.094-.11.016-.065-.03-.142l-1.145-1.993q-.05-.087-.134-.104-.083-.02-.176.034l-.12.07z"/><path id="N" d="M72.698 150.13l.163-.094.4.697.56-.32.112.196-.56.32.62 1.077q.06.107.15.135.088.027.176-.024.253-.146-.004-.626l.163-.094q.14.255.153.45.013.195-.078.358-.1.162-.264.262-.152.087-.3.1-.146.002-.282-.08-.136-.086-.218-.23l-.6-1.043-.3.173-.096-.167q.254-.194.307-.458.053-.264-.103-.624z"/><path id="O" d="M79.402 147.27l.037-.212.1-.063.37.558-.147.084q-.248-.163-.44-.176-.192-.015-.39.098-.17.098-.22.214-.05.116.006.216.056.098.154.11.1.013.442-.102.31-.104.425-.12.216-.03.394.053.18.082.287.27.135.235.038.506-.097.267-.404.444-.148.085-.29.12-.14.034-.32.02l-.04.226-.138.08-.4-.622.15-.086q.47.375.938.107.192-.1.25-.243.06-.132-.001-.236-.054-.094-.146-.107-.09-.013-.397.088-.33.1-.46.128-.223.034-.387-.037-.165-.074-.267-.25-.146-.253-.07-.51.075-.26.357-.422.138-.08.265-.11.13-.03.298-.022z"/><path id="P" d="M85.185 145.907l.097.168-1.184.68-.097-.168.147-.084q.09-.052.112-.1.02-.06-.013-.12l-.576-1.003q-.07-.12-.158-.145-.087-.025-.186.032l-.096.055-.092-.16.702-.454.317.552q-.096-.313-.024-.552.072-.24.27-.352.168-.097.318-.062.15.033.23.174.07.12.045.237-.024.113-.122.17-.087.05-.188.02-.1-.03-.157-.13-.032-.056-.037-.135-.003-.044-.012-.058-.015-.025-.033-.03-.018-.006-.043.008-.065.037-.1.158-.052.186.01.483.06.295.207.548l.2.366q.036.063.09.078.053.013.115-.023z"/><path id="Q" d="M88.206 142.142l.732-.478.65 1.13q.1.157.23.2.137.042.273-.036.192-.1.22-.328.028-.22-.09-.423l-.318-.554q-.056-.098-.14-.117-.083-.02-.178.035l-.083.048-.095-.165.74-.482.788 1.372q.053.092.14.113.088.02.182-.035l.078-.045.097.168-.688.424q-.147-.156-.273-.358-.048.324-.16.508-.11.184-.287.285-.174.1-.335.096-.16-.005-.32-.122-.16-.117-.3-.34l-.387-.673q-.063-.1-.147-.125-.084-.017-.242.07z"/><path id="R" d="M91.24 139.085l.823-.516 1.273 2.216q.098.17.154.217.057.044.12.045.062-.002.196-.08l.093.16-.684.422-.24-.3q-.04.3-.13.443-.09.143-.283.254-.348.2-.7.092-.353-.108-.583-.508-.254-.442-.17-.834.083-.392.427-.6.185-.106.374-.107.19-.004.412.1l-.443-.77q-.08-.138-.14-.183-.06-.045-.116-.042-.055 0-.187.076l-.1.057zm.59 1.163q-.2.12-.207.365.001.2.19.527.157.273.282.382.124.107.25.124.126.014.238-.05.185-.106.206-.328.032-.293-.153-.615-.172-.3-.403-.4-.232-.103-.402-.005z"/><path id="S" d="M98.435 137.776q.127-.073.267-.033.143.04.215.165.074.13.035.27-.037.14-.163.214-.125.072-.267.033-.14-.04-.215-.168-.073-.127-.036-.268.04-.143.163-.214z"/><path id="T" d="M100.67 133.677q.12-.07.258-.033.136.035.206.158.07.123.034.26-.038.135-.16.205-.123.07-.26.034-.137-.037-.206-.158-.07-.123-.033-.258.037-.137.16-.208zm.096 1.245l.733-.467.827 1.44q.033.058.088.07.056.01.132-.035l.114-.066.097.168-1.017.584-.097-.168.112-.064q.09-.052.103-.114.014-.063-.045-.167l-.564-.98q-.053-.092-.136-.112-.082-.02-.176.034l-.076.044z"/><path id="U" d="M128.162 117.884l.77-.495 1.384 2.41q.037.065.1.08.062.012.14-.032l.107-.06.097.168-1.02.586-.097-.168.116-.067q.08-.046.094-.11.015-.066-.035-.153l-1.137-1.98q-.053-.092-.132-.112-.08-.022-.167.028l-.127.073z"/><path id="V" d="M52.503 61.024l.816-.47.11.064-.06.034q-.054.03-.064.05-.008.018.013.03.02.01.05.01l.452.013.014-.2q.005-.055-.03-.075-.032-.018-.078-.01-.06.01-.137.054l-.03.018-.11-.064.633-.366.11.064q-.088.058-.123.106-.033.047-.04.13l-.033.345.88.023q.117.003.203-.02.055-.016.148-.07l.12.068-.872.503-.12-.068.08-.047q.052-.03.062-.05.01-.02-.006-.03-.02-.01-.067-.013l-.47-.014-.022.23q-.003.034.03.052.037.02.092.017.055-.005.105-.034l.066-.038.12.068-.666.384-.12-.068.053-.03q.116-.067.13-.2l.04-.384-.844-.02q-.135-.003-.186.008-.052.01-.143.06z"/><path id="W" d="M56.42 58.804l-.004-.114.1-.052.438.22-.12.07q-.256-.04-.435-.01-.178.026-.34.12-.138.08-.165.148-.026.068.044.11.07.04.16.028.093-.01.387-.13.266-.108.368-.136.193-.054.37-.043.18.01.31.086.166.096.125.25-.04.153-.29.298-.12.07-.245.112-.12.042-.3.067l.003.122-.112.065-.478-.245.122-.07q.498.107.878-.112.156-.1.186-.168.03-.078-.043-.12-.066-.038-.152-.028-.086.01-.348.115-.282.114-.4.147-.198.057-.362.05-.164-.008-.29-.08-.18-.103-.155-.248.022-.145.252-.278.112-.065.223-.102.113-.04.27-.064z"/><path id="X" d="M99.458 24.177l4.26 2.287-7.58 12.563q-.205.34-.108.67.103.32.51.565l.557.336-.53.878-5.314-3.207.53-.878.604.365q.415.25.745.153.344-.1.618-.554l6.226-10.317q.3-.48.18-.896-.105-.424-.558-.697l-.66-.4z"/></defs><g transform="translate(.01 -.125)"><g transform="translate(99.347 -22.6)"><path d="M-29.104 184.98l-70.253-40.56v-81.12l70.253-40.56 70.253 40.56v81.12z" fill="#7e0f00"/><path d="M-29.104 178.56l-64.698-37.353V66.5l64.698-37.353L35.594 66.5v74.707z" fill="url(#B)"/><path transform="matrix(.86425 0 0 .86425 -3.9508 3.9567)" d="M-93.802 66.5c0 .364 10.06 13.912 25.04 22.256 11.886 6.62 29.74 11.21 39.28 10.628 8.902-.542 25.646-3.52 37.8-9.497C25.6 81.388 35.594 66.5 35.594 66.5l-64.698-37.353z" fill="url(#C)" filter="url(#A)"/><path d="M-29.104 22.733l-70.253 40.56v81.12l70.253 40.56 70.253-40.56v-81.12zm0 6.415L35.594 66.5v74.707l-64.698 37.353-64.698-37.353V66.5z" fill="#7e0f00"/></g><g stroke="#000"><g class="B C"><use xlink:href="#D" class="D"/><use xlink:href="#E" class="E"/><use xlink:href="#F" class="F"/></g><g class="B C"><use xlink:href="#D" y="-8.5" class="D"/><use xlink:href="#E" y="-8.5" class="E"/><use xlink:href="#F" y="-8.5" class="F"/></g><g class="B C"><use xlink:href="#D" x="22.083" y="-21.25" class="D"/><use xlink:href="#E" x="22.083" y="-21.25" class="E"/><use xlink:href="#F" x="22.083" y="-21.25" class="F"/></g><g class="B C"><use xlink:href="#D" y="-17" class="D"/><use xlink:href="#E" y="-17" class="E"/><use xlink:href="#F" y="-17" class="F"/></g><g class="B C"><use xlink:href="#D" x="-0.106" y="-25.44" class="D"/><use xlink:href="#E" x="-0.106" y="-25.44" class="E"/><use xlink:href="#F" x="-0.106" y="-25.44" class="F"/></g><g class="B C"><use xlink:href="#D" x="7.36" y="-21.25" class="D"/><use xlink:href="#E" x="7.36" y="-21.25" class="E"/><use xlink:href="#F" x="7.36" y="-21.25" class="F"/></g><g class="B C"><use xlink:href="#D" x="14.72" y="-17" class="D"/><use xlink:href="#E" x="14.72" y="-17" class="E"/><use xlink:href="#F" x="14.72" y="-17" class="F"/></g><g class="B C"><use xlink:href="#D" x="-14.723" y="-25.5" class="D"/><use xlink:href="#E" x="-14.723" y="-25.5" class="E"/><use xlink:href="#F" x="-14.723" y="-25.5" class="F"/></g><g class="B C"><use xlink:href="#D" x="-7.362" y="-21.25" class="D"/><use xlink:href="#E" x="-7.362" y="-21.25" class="E"/><use xlink:href="#F" x="-7.362" y="-21.25" class="F"/></g><g class="B C"><use xlink:href="#D" x="-29.45" y="-8.5" class="D"/><use xlink:href="#E" x="-29.45" y="-8.5" class="E"/><use xlink:href="#F" x="-29.45" y="-8.5" class="F"/></g><g class="B C"><use xlink:href="#D" x="-29.45" y="-17" class="D"/><use xlink:href="#E" x="-29.45" y="-17" class="E"/><use xlink:href="#F" x="-29.45" y="-17" class="F"/></g><g class="B C"><use xlink:href="#D" x="-29.45" y="-25.5" class="D"/><use xlink:href="#E" x="-29.45" y="-25.5" class="E"/><use xlink:href="#F" x="-29.45" y="-25.5" class="F"/></g><g class="B C"><use xlink:href="#D" x="-22.085" y="-38.25" class="D"/><use xlink:href="#E" x="-22.085" y="-38.25" class="E"/><use xlink:href="#F" x="-22.085" y="-38.25" class="F"/></g><g class="B C"><use xlink:href="#D" x="-36.82" y="-4.25" class="D"/><use xlink:href="#E" x="-36.81" y="-4.25" class="E"/><use xlink:href="#F" x="-36.82" y="-4.25" class="F"/></g><g class="B C"><use xlink:href="#D" x="-44.17" class="D"/><use xlink:href="#E" x="-44.17" class="E"/><use xlink:href="#F" x="-44.17" class="F"/></g><g class="B C"><use xlink:href="#D" x="-36.82" y="4.25" class="D"/><use xlink:href="#E" x="-36.81" y="4.25" class="E"/><use xlink:href="#F" x="-36.82" y="4.25" class="F"/></g><g class="B C"><use xlink:href="#D" x="-29.443" y="8.5" class="R"/><use xlink:href="#E" x="-29.453" y="8.5" class="S"/><use xlink:href="#F" x="-29.443" y="8.5" class="T"/></g><g class="B C"><use xlink:href="#D" x="-22.082" y="-46.75" class="R"/><use xlink:href="#E" x="-22.092" y="-46.75" class="S"/><use xlink:href="#F" x="-22.082" y="-46.75" class="T"/></g><g class="B C"><use xlink:href="#D" x="7.36" y="4.25" class="D"/><use xlink:href="#E" x="7.36" y="4.25" class="E"/><use xlink:href="#F" x="7.36" y="4.25" class="F"/></g><g class="B C"><use xlink:href="#D" x="14.72" y="8.5" class="D"/><use xlink:href="#E" x="14.72" y="8.5" class="E"/><use xlink:href="#F" x="14.72" y="8.5" class="F"/></g><g class="B C"><use xlink:href="#D" x="22.083" y="12.75" class="D"/><use xlink:href="#E" x="22.083" y="12.75" class="E"/><use xlink:href="#F" x="22.083" y="12.75" class="F"/></g><g class="B C"><use xlink:href="#D" x="14.72" y="17" class="D"/><use xlink:href="#E" x="14.72" y="17" class="E"/><use xlink:href="#F" x="14.72" y="17" class="F"/></g><g class="B C"><use xlink:href="#D" x="7.36" y="21.25" class="D"/><use xlink:href="#E" x="7.36" y="21.25" class="E"/><use xlink:href="#F" x="7.36" y="21.25" class="F"/></g><g class="B C"><use xlink:href="#D" y="25.5" class="D"/><use xlink:href="#E" y="25.5" class="E"/><use xlink:href="#F" y="25.5" class="F"/></g><g class="B C"><use xlink:href="#D" x="-7.362" y="29.75" class="D"/><use xlink:href="#E" x="-7.362" y="29.75" class="E"/><use xlink:href="#F" x="-7.362" y="29.75" class="F"/></g><g class="B C"><use xlink:href="#D" x="-7.36" y="21.25" class="R"/><use xlink:href="#E" x="-7.37" y="21.25" class="S"/><use xlink:href="#F" x="-7.36" y="21.25" class="T"/></g><g class="B C"><use xlink:href="#D" x="22.085" y="4.25" class="R"/><use xlink:href="#E" x="22.075" y="4.25" class="S"/><use xlink:href="#F" x="22.085" y="4.25" class="T"/></g><g class="B C"><use xlink:href="#D" x="36.808" y="-21.25" class="R"/><use xlink:href="#E" x="36.798" y="-21.25" class="S"/><use xlink:href="#F" x="36.808" y="-21.25" class="T"/></g><g class="H"><use xlink:href="#G" class="I"/><use xlink:href="#H" class="J"/><use xlink:href="#I" class="B G"/><use xlink:href="#G" y="-1" class="I"/><use xlink:href="#H" y="-1" class="J"/><use xlink:href="#I" y="-1" class="B G"/><use xlink:href="#G" y="-2" class="I"/><use xlink:href="#H" y="-2" class="J"/><use xlink:href="#I" y="-2" class="B G"/><use xlink:href="#G" y="-3" class="I"/><use xlink:href="#H" y="-3" class="J"/><use xlink:href="#I" y="-3" class="B G"/><use xlink:href="#G" y="-4" class="I"/><use xlink:href="#H" y="-4" class="J"/><use xlink:href="#I" y="-4" class="B G"/><use xlink:href="#G" y="-5" class="I"/><use xlink:href="#H" y="-5" class="J"/><use xlink:href="#I" y="-5" class="B G"/><use xlink:href="#G" y="-6" class="I"/><use xlink:href="#H" y="-6" class="J"/><use xlink:href="#I" y="-6" class="B G"/><use xlink:href="#G" y="-7" class="I"/><use xlink:href="#H" y="-7" class="J"/><use xlink:href="#I" y="-7" class="B G"/><use xlink:href="#G" y="-8" class="I"/><use xlink:href="#H" y="-8" class="J"/><use xlink:href="#I" y="-8" class="B G"/><use xlink:href="#G" y="-10" class="I"/><use xlink:href="#H" y="-10" class="J"/><use xlink:href="#I" y="-10" class="B G"/><use xlink:href="#G" x="0.866" y="-6.5" class="I"/><use xlink:href="#H" x="0.866" y="-6.5" class="J"/><use xlink:href="#I" x="0.866" y="-6.5" class="B G"/><use xlink:href="#G" x="0.866" y="-7.5" class="I"/><use xlink:href="#H" x="0.866" y="-7.5" class="J"/><use xlink:href="#I" x="0.866" y="-7.5" class="B G"/><use xlink:href="#G" x="0.866" y="-8.5" class="I"/><use xlink:href="#H" x="0.866" y="-8.5" class="J"/><use xlink:href="#I" x="0.866" y="-8.5" class="B G"/><use xlink:href="#G" x="1.732" y="-6" class="I"/><use xlink:href="#H" x="1.732" y="-6" class="J"/><use xlink:href="#I" x="1.732" y="-6" class="B G"/><use xlink:href="#G" x="1.732" y="-7" class="I"/><use xlink:href="#H" x="1.732" y="-7" class="J"/><use xlink:href="#I" x="1.732" y="-7" class="B G"/><use xlink:href="#G" x="-0.866" y="-6.5" class="I"/><use xlink:href="#H" x="-0.866" y="-6.5" class="J"/><use xlink:href="#I" x="-0.866" y="-6.5" class="B G"/><use xlink:href="#G" x="-0.866" y="-7.5" class="I"/><use xlink:href="#H" x="-0.866" y="-7.5" class="J"/><use xlink:href="#I" x="-0.866" y="-7.5" class="B G"/><use xlink:href="#G" x="-0.866" y="-8.5" class="I"/><use xlink:href="#H" x="-0.866" y="-8.5" class="J"/><use xlink:href="#I" x="-0.866" y="-8.5" class="B G"/><use xlink:href="#G" x="-1.732" y="-6" class="I"/><use xlink:href="#H" x="-1.732" y="-6" class="J"/><use xlink:href="#I" x="-1.732" y="-6" class="B G"/><use xlink:href="#G" x="-1.732" y="-7" class="I"/><use xlink:href="#H" x="-1.732" y="-7" class="J"/><use xlink:href="#I" x="-1.732" y="-7" class="B G"/></g><g class="B K"><use xlink:href="#J" class="O"/><use xlink:href="#K" class="P"/><use xlink:href="#L" class="Q"/></g><g class="B K"><use xlink:href="#J" x="4.764" y="2.75" class="O"/><use xlink:href="#K" x="4.764" y="2.75" class="P"/><use xlink:href="#L" x="4.764" y="2.75" class="Q"/></g><g class="B K"><use xlink:href="#J" x="9.527" y="5.5" class="O"/><use xlink:href="#K" x="9.527" y="5.5" class="P"/><use xlink:href="#L" x="9.527" y="5.5" class="Q"/></g><g class="B K"><use xlink:href="#J" x="14.3" y="8.25" class="O"/><use xlink:href="#K" x="14.29" y="8.25" class="P"/><use xlink:href="#L" x="14.3" y="8.25" class="Q"/></g><g class="B K"><use xlink:href="#J" x="-4.762" y="2.75" class="O"/><use xlink:href="#K" x="-4.762" y="2.75" class="P"/><use xlink:href="#L" x="-4.762" y="2.75" class="Q"/></g><g class="B K"><use xlink:href="#J" x="-9.526" y="5.5" class="O"/><use xlink:href="#K" x="-9.526" y="5.5" class="P"/><use xlink:href="#L" x="-9.526" y="5.5" class="Q"/></g><g class="B K"><use xlink:href="#J" x="-14.29" y="8.25" class="O"/><use xlink:href="#K" x="-14.29" y="8.25" class="P"/><use xlink:href="#L" x="-14.29" y="8.25" class="Q"/></g><g class="B K"><use xlink:href="#J" x="-0.006" y="5.5" class="L"/><use xlink:href="#K" x="0.004" y="5.5" class="M"/><use xlink:href="#L" x="-0.006" y="5.5" class="N"/></g><g class="B K"><use xlink:href="#J" x="4.757" y="8.25" class="L"/><use xlink:href="#K" x="4.767" y="8.25" class="M"/><use xlink:href="#L" x="4.757" y="8.25" class="N"/></g><g class="B K"><use xlink:href="#J" x="9.52" y="11" class="L"/><use xlink:href="#K" x="9.54" y="11" class="M"/><use xlink:href="#L" x="9.52" y="11" class="N"/></g><g class="B K"><use xlink:href="#J" x="-4.77" y="8.25" class="L"/><use xlink:href="#K" x="-4.76" y="8.25" class="M"/><use xlink:href="#L" x="-4.77" y="8.25" class="N"/></g><g class="B K"><use xlink:href="#J" x="-0.006" y="11" class="L"/><use xlink:href="#K" x="0.004" y="11" class="M"/><use xlink:href="#L" x="-0.006" y="11" class="N"/></g><g class="B K"><use xlink:href="#J" x="4.757" y="13.75" class="L"/><use xlink:href="#K" x="4.767" y="13.75" class="M"/><use xlink:href="#L" x="4.757" y="13.75" class="N"/></g><g class="B K"><use xlink:href="#J" x="-9.532" y="11" class="L"/><use xlink:href="#K" x="-9.522" y="11" class="M"/><use xlink:href="#L" x="-9.532" y="11" class="N"/></g><g class="B K"><use xlink:href="#J" x="-4.77" y="13.75" class="L"/><use xlink:href="#K" x="-4.76" y="13.75" class="M"/><use xlink:href="#L" x="-4.77" y="13.75" class="N"/></g><g class="B K"><use xlink:href="#J" x="-0.006" y="16.5" class="L"/><use xlink:href="#K" x="0.004" y="16.5" class="M"/><use xlink:href="#L" x="-0.006" y="16.5" class="N"/></g><g class="H"><use xlink:href="#G" x="2.598" y="-5.5" class="I"/><use xlink:href="#H" x="2.598" y="-5.5" class="J"/><use xlink:href="#I" x="2.598" y="-5.5" class="B G"/><use xlink:href="#G" x="-2.598" y="-5.5" class="I"/><use xlink:href="#H" x="-2.598" y="-5.5" class="J"/><use xlink:href="#I" x="-2.598" y="-5.5" class="B G"/></g></g><g fill="#d2ff64"><use xlink:href="#M"/><use xlink:href="#N"/><use xlink:href="#N" x="1.578" y="-0.908"/><path d="M75.735 149.318l.665-.44q.137.143.24.303.008-.233.12-.423.113-.193.318-.3.328-.188.665-.07.337.117.582.544.17.297.19.56.02.263-.094.468-.113.205-.347.34-.186.107-.38.107-.194-.002-.426-.117l.348.606q.07.12.105.142.038.024.096.012.06-.01.21-.094l.1.174-1.023.588-.1-.174.054-.03q.096-.055.118-.092.023-.035.017-.087-.004-.036-.072-.154l-.92-1.604q-.068-.118-.108-.145-.04-.03-.088-.024-.047.003-.185.075zm1.26-.486q-.176.1-.202.34-.026.24.16.563.184.32.4.417.228.095.395 0 .163-.094.178-.297.02-.27-.17-.596-.173-.3-.38-.416-.207-.117-.393-.01z"/><use xlink:href="#O"/><path d="M80.382 146.557q.13-.074.27-.034.14.037.215.165.073.127.034.27-.037.14-.165.215-.13.074-.27.037-.14-.04-.215-.168-.074-.13-.036-.268.04-.143.167-.216zm.68 1.184q.13-.074.27-.034.143.04.217.17.075.13.036.273-.037.14-.165.215-.127.073-.27.034-.143-.04-.217-.17-.075-.13-.036-.273.04-.143.165-.215z"/><path d="M81.445 144.723l.718 3.15-.342.197-.718-3.15zm1.028-.6l.718 3.15-.342.197-.718-3.15z"/><use xlink:href="#P"/><path d="M85.333 144.68l1.133-.65.197.342-1.133.65z"/><use xlink:href="#P" x="3.165" y="-1.817"/><use xlink:href="#Q"/><use xlink:href="#R"/><use xlink:href="#P" x="10.109" y="-5.807"/><path d="M97.982 138.498l.15.087q-.067.14-.14.22-.07.08-.175.14-.156.09-.29.08-.134-.012-.32-.15-.08.29-.188.44-.11.15-.294.256-.255.147-.466.11-.21-.036-.315-.217-.157-.273.013-.6.137-.252.78-.794l-.14-.244q-.083-.145-.23-.18-.15-.037-.3.055-.123.07-.187.177-.044.07-.024.105.01.018.055.04.098.052.143.132.058.1.028.203-.032.1-.144.165-.12.07-.23.043-.112-.027-.173-.134-.1-.176.012-.42.14-.303.494-.506.266-.153.52-.188.162-.023.32.062.158.083.268.274l.494.86q.056.098.117.12.06.023.125-.014.052-.03.105-.135zm-1.15-.26q-.357.275-.43.465-.073.187.03.366.073.127.176.16.104.03.22-.037.18-.103.223-.3.046-.197-.082-.42z"/><use xlink:href="#S"/><path d="M99.87 135.44q.07-.384.282-.506.11-.062.2-.036.102.026.16.125.05.09.03.172-.02.08-.095.124-.107.06-.22-.026-.068-.052-.108-.03-.05.03-.076.186.31.085.435.304.098.17.084.36-.013.19-.155.38-.14.19-.42.35l-.196.108q-.215.124-.266.21-.053.088-.013.157.034.06.1.06.086.003.226-.077l.164-.1q.26-.17.388-.242.422-.242.655-.217.233.025.355.237.146.253.044.517-.124.32-.7.653-.492.283-.757.283-.265 0-.353-.154-.055-.096-.012-.217.043-.12.282-.343-.2.067-.34.032-.14-.035-.22-.172-.072-.125-.055-.25.02-.126.156-.294-.22.005-.375-.07-.155-.077-.247-.236-.1-.172-.086-.363.012-.192.157-.384.144-.193.42-.352.13-.075.267-.122.137-.047.28-.067zm-.466.354q-.125.072-.148.24-.022.167.104.386.122.212.275.273.153.06.282-.013.127-.073.15-.24.024-.168-.097-.378-.122-.212-.28-.277-.158-.066-.287.008zm1.815 1.517q-.06-.107-.21-.087-.1.012-.382.174-.507.29-.614.444-.107.153-.048.256.056.098.208.097.153.002.47-.182.415-.238.542-.44.095-.153.03-.264z"/><use xlink:href="#T"/><use xlink:href="#N" x="29.542" y="-16.974"/><use xlink:href="#M" x="33.663" y="-19.34"/><use xlink:href="#Q" x="18.001" y="-10.342"/><path d="M108.137 129.388l.757-.485.72 1.255q.035-.254.137-.41.103-.16.277-.26.32-.183.668-.06.35.12.588.534.25.436.158.84-.092.402-.466.617-.197.113-.4.127-.202.013-.412-.072-.012.176-.114.477l-.135.003q-.123-.373-.32-.715l-.9-1.564q-.08-.138-.14-.18-.06-.042-.12-.037-.044.003-.203.095zm1.82.483q-.105.06-.156.186-.05.124-.017.29.032.165.2.456.228.396.424.498.195.1.358.006.168-.097.188-.344.02-.247-.192-.615-.21-.367-.424-.47-.212-.105-.38-.008z"/><use xlink:href="#S" x="13.735" y="-7.892"/><use xlink:href="#T" x="11.47" y="-6.589"/><path d="M114.47 126.926q.284-.163.592-.176.3-.014.54.118.23.13.4.4.256.445.1.86-.166.4-.55.63-.272.156-.567.165-.295.006-.535-.13-.24-.138-.4-.4-.226-.393-.104-.814.122-.424.537-.662zm.1.166q-.188.108-.205.34-.016.228.223.645.25.433.454.534.204.1.392-.01.192-.1.213-.346.02-.236-.216-.65-.243-.424-.455-.524-.213-.102-.406.01zm1.64-2.342l.718 3.15-.342.197-.718-3.15z"/><use xlink:href="#N" x="44.307" y="-25.456"/><use xlink:href="#T" x="17.73" y="-10.179"/><use xlink:href="#R" x="29.056" y="-16.695"/><path d="M122.257 122.58l1-.575.1.156-.096.055q-.087.05-.1.096-.022.046.001.086.026.045.1.086l.894.58-.073-.948q-.006-.078-.036-.13-.042-.072-.12-.085-.08-.012-.184.048l-.052.03-.1-.156.737-.423.1.156q-.107.066-.144.148-.038.08-.03.2l.137 1.802q.036.46-.06.736-.076.207-.26.312-.2.1-.354.08-.163-.03-.24-.165-.058-.1-.032-.203.03-.1.127-.157.1-.057.198-.032.1.027.154.12.018.03.032.085.008.03.017.046.025.043.072.016.083-.048.13-.255.048-.206.027-.586l-1.52-.975q-.085-.055-.142-.058-.058-.005-.116.028l-.047.027zm4.593-1.197l.18-.014q.054.35-.086.64-.14.288-.457.47-.43.246-.804.15-.376-.097-.604-.493-.245-.427-.12-.866.128-.44.6-.7.34-.194.597-.16.257.033.368.226.08.14.05.27-.03.126-.16.2-.112.064-.216.04-.103-.028-.162-.13-.05-.1-.046-.248.003-.067-.01-.086-.02-.036-.094-.033-.106 0-.234.074-.24.137-.258.35-.028.283.206.7.234.407.47.493.238.083.462-.046.177-.102.265-.3.1-.2.05-.508zm2.038-1.473l-1.2.683q.2.353.446.445.236.088.453-.037.156-.1.245-.256.1-.167.105-.48l.18.006q.002.36-.13.592-.13.23-.417.394-.416.24-.82.133-.403-.106-.63-.502-.228-.396-.122-.8.106-.415.483-.63.26-.15.508-.15.25-.001.47.146.223.144.416.47zm-1.283.52l.567-.326q.08-.046.1-.105.012-.06-.05-.165-.12-.2-.282-.27-.163-.06-.3.025-.176.1-.18.3-.003.2.164.53z"/><use xlink:href="#U"/><use xlink:href="#U" x="1.304" y="-0.749"/><use xlink:href="#O" x="53.17" y="-30.548"/><path d="M133.587 114.767l.718 3.15-.342.197-.718-3.15z"/></g><g stroke="#000" class="B C"><use xlink:href="#D" x="29.444" y="-34" class="D"/><use xlink:href="#E" x="29.444" y="-34" class="E"/><use xlink:href="#F" x="29.444" y="-34" class="F"/></g><g class="G U"><use xlink:href="#V"/><path d="M53.645 59.564l.617-.39 1.698.98q.046.027.107.022.06-.005.123-.04l.087-.05.12.068-.83.48-.12-.068.094-.054q.065-.037.066-.072.002-.036-.06-.072l-1.394-.805q-.065-.038-.14-.034-.077.003-.148.044l-.103.06z"/><use xlink:href="#W"/><use xlink:href="#V" x="4.413" y="-2.548"/><path d="M110.9 85.896l.662-.4 1.56.9q.12.07.18.083.06.012.117.001.056-.012.165-.075l.114.066-.552.336-.273-.1q.017.16-.04.25-.056.088-.214.18-.283.163-.626.17-.343.008-.625-.155-.3-.18-.305-.394.006-.214.286-.376.15-.087.324-.12.174-.036.397-.017l-.543-.314q-.097-.056-.16-.068-.063-.012-.113-.001-.05.01-.158.072l-.08.047zm.75.487q-.17.1-.125.222.037.1.268.234.193.1.327.144.133.032.25.02.118-.015.2-.068.15-.087.13-.204-.023-.155-.25-.286-.2-.12-.44-.132-.23-.01-.37.07zm1.824-1.243q.23-.134.5-.195.28-.062.516-.036.233.026.43.14.314.18.235.42-.08.238-.4.42-.22.128-.5.184-.27.055-.513.028-.245-.028-.43-.134-.277-.16-.24-.396.036-.237.374-.432zm.13.065q-.153.088-.127.2.026.12.32.288.305.176.5.2.205.014.358-.074.156-.1.133-.214-.023-.124-.314-.292-.298-.172-.5-.186-.213-.014-.37.077zm3.116-.988l.162-.04q.112.168.036.34-.077.17-.335.32-.35.202-.7.22-.362.017-.64-.144-.3-.174-.264-.42.04-.246.422-.467.275-.16.518-.187.24-.03.378.05.1.057.093.13-.006.07-.1.13-.1.053-.2.058-.1.004-.172-.038-.063-.036-.086-.118-.01-.034-.023-.042-.025-.015-.092 0-.097.02-.2.08-.194.112-.174.224.025.15.312.315.287.166.52.167.232 0 .415-.106.144-.083.188-.204.044-.123-.045-.267z"/><use xlink:href="#V" x="63.773" y="22.576"/><path d="M99.423 111.23l.162-.04q.112.168.036.34-.077.17-.335.32-.35.202-.71.22-.362.017-.64-.144-.3-.174-.264-.42.04-.246.422-.467.275-.16.518-.187.24-.03.378.05.1.057.093.13-.006.07-.1.13-.09.053-.2.058-.1.004-.172-.038-.063-.036-.086-.118-.01-.034-.023-.042-.026-.015-.092 0-.097.02-.2.08-.194.112-.174.224.025.15.312.315.287.166.52.167.232 0 .415-.106.144-.083.188-.204.044-.123-.045-.267z"/><use xlink:href="#W" x="43.56" y="51.263"/><path d="M100.425 109.77l.823-.475.114.066-.068.04q-.08.047-.093.074-.012.027.022.046.036.02.12.03l.92.124-.223-.484q-.016-.036-.056-.06-.108-.063-.323.055l-.114-.066.602-.348.114.066q-.075.052-.092.093-.02.04.006.095l.425.912-.106.06-1.65-.218q-.1-.014-.165-.007-.053.007-.107.038l-.037.02z"/><path d="M65.95 128.763l.623-.392.93.536q-.01-.177.058-.283.067-.106.215-.192.206-.12.424-.12.25.001.477.133l.566.327q.06.034.118.032.058-.002.117-.036l.096-.055.12.068-.832.48-.12-.068.1-.052q.075-.043.077-.073.005-.04-.052-.073l-.556-.32q-.12-.07-.265-.066-.145.001-.257.066-.138.08-.138.196.001.116.174.216l.443.256q.057.033.116.03.06-.003.12-.037l.1-.058.12.068-.857.495-.12-.068.12-.07q.063-.037.066-.072.003-.036-.052-.067l-1.404-.81q-.06-.035-.14-.03-.08.005-.155.048l-.1.057z"/><path d="M68.68 127.418l.133-.077.49.284.455-.263.138.08-.455.263.76.438q.075.043.162.042.085-.002.157-.044.206-.12-.115-.318l.133-.077q.173.105.22.202.047.097-.008.196-.053.1-.195.18-.124.07-.258.1-.133.027-.273.01-.14-.02-.24-.078l-.735-.424-.244.14-.117-.068q.198-.144.2-.288.001-.144-.206-.3z"/><path d="M73.858 126.238l.12.068-.83.48-.12-.068.085-.05q.078-.045.082-.078.006-.034-.05-.067l-.52-.3q-.144-.083-.282-.083-.137-.001-.26.07-.1.058-.133.122-.032.063.008.146.04.082.127.133l.468.27q.046.026.1.023.054-.003.104-.032l.113-.065.12.068-.847.5-.12-.068.094-.054q.077-.044.08-.072.006-.036-.046-.066l-.538-.3q-.13-.074-.274-.073-.145.001-.258.067-.088.05-.125.118-.036.066-.007.146.03.078.1.118l.468.27q.07.04.126.04.073-.004.145-.045l.08-.047.12.068-.85.5-.12-.068.097-.056q.078-.045.083-.076.005-.033-.055-.067l-.718-.415q-.048-.028-.1-.03-.05-.005-.1.013-.045.013-.15.073l-.115-.066.542-.344q.155.052.307.128-.014-.17.054-.282.07-.112.222-.2.165-.095.345-.115.18-.022.377.033-.02-.173.05-.3.072-.118.222-.205.2-.12.443-.125.236-.003.446.118l.57.33q.06.034.114.032.056-.003.12-.04zm-1.652-1.086l.617-.4 1.698.98q.046.026.107.022.06-.005.123-.04l.087-.05.12.068-.83.48-.12-.068.094-.054q.065-.037.066-.072.002-.036-.06-.072l-1.394-.805q-.065-.038-.14-.034-.077.003-.148.044l-.103.06z"/><path d="M45.332 116.058l.53-.342q.15.048.273.112-.034-.12.035-.237.07-.118.236-.214.267-.154.596-.154.33 0 .63.174.2.12.275.25.066.13-.003.255-.067.124-.257.234-.152.088-.328.122-.178.033-.4.016l.427.247q.084.05.122.053.04.005.1-.01.054-.016.176-.085l.122.07-.832.48-.122-.07.044-.026q.078-.045.092-.068.015-.022 0-.047-.01-.018-.093-.066l-1.13-.652q-.083-.048-.124-.055-.043-.008-.085.004-.042.01-.156.07zm1.07-.47q-.143.082-.124.2.018.126.247.258.226.13.45.14.226.008.36-.07.133-.077.1-.183-.03-.14-.26-.273-.212-.122-.42-.144-.2-.023-.362.065zM47.474 114l.662-.4 1.56.9q.12.07.18.083.06.012.117.001.056-.012.165-.075l.114.066-.552.336-.273-.1q.017.16-.04.25-.056.088-.214.18-.283.163-.626.17-.343.008-.625-.155-.3-.18-.305-.394.006-.214.286-.376.15-.087.324-.12.174-.036.397-.017l-.543-.314q-.097-.056-.16-.068-.063-.012-.113-.001-.05.01-.158.072l-.08.047zm.75.487q-.17.1-.125.222.037.1.268.234.193.1.327.144.133.032.25.02.118-.015.2-.068.15-.087.13-.204-.023-.155-.25-.286-.2-.122-.44-.132-.23-.01-.37.07zm1.748-1.117l.353-.204.138.08-.353.204.85.5q.05.03.1.027.04-.002.1-.035l.243-.14.12.068-.996.575-.12-.068.143-.082q.065-.037.07-.064.005-.026-.043-.054l-.85-.5-.237.137-.138-.08.237-.137-.048-.028q-.24-.138-.312-.272-.072-.135-.002-.26.072-.127.284-.25.197-.114.388-.128.192-.015.316.056.098.057.094.133-.004.074-.097.128-.087.05-.194.056-.1.005-.18-.037-.075-.043-.043-.127.015-.04-.006-.053-.018-.01-.05-.004-.052.01-.108.042-.074.043-.097.102-.022.06.02.117.063.086.182.154z"/></g><g fill="#d2ff64"><path d="M30.367 32.376l.86-.494 2.114 3.68 2.954-1.697.593 1.032-2.954 1.697 3.268 5.688q.324.564.792.715.463.14.93-.128 1.338-.77-.02-3.308l.86-.494q.735 1.345.8 2.383.07 1.028-.414 1.9-.474.857-1.392 1.384-.803.46-1.582.477-.77.01-1.5-.427-.718-.452-1.15-1.207l-3.163-5.506-1.587.912-.505-.88q1.343-1.026 1.623-2.42.28-1.394-.546-3.297zm7.333-6.183q.64-.368 1.363-.173.717.186 1.1.836.373.65.178 1.372-.2.713-.84 1.08-.65.373-1.372.178-.722-.195-1.1-.836-.373-.65-.173-1.363.195-.722.845-1.096zm.5 6.573l3.87-2.466 4.366 7.6q.176.306.466.368.294.047.696-.183l.602-.346.5.9-5.372 3.086-.5-.9.593-.34q.478-.275.543-.604.074-.335-.24-.88l-2.977-5.18q-.28-.488-.72-.6-.43-.108-.928.177l-.4.23zm9.544-12.44L52.1 17.6l6.722 11.7q.516.9.812 1.148.3.234.63.235.325-.01 1.033-.415l.5.85-3.614 2.23-1.267-1.586q-.2 1.583-.7 2.34-.47.753-1.493 1.34-1.835 1.054-3.7.486-1.865-.57-3.08-2.68-1.34-2.332-.902-4.402.438-2.07 2.254-3.113.975-.56 1.977-.564 1.006-.02 2.177.58l-2.34-4.072q-.417-.726-.732-.965-.315-.24-.6-.22-.3.002-1 .403l-.526.302zm3.12 6.14q-1.1.637-1.094 1.925.007 1.052 1 2.782.83 1.443 1.5 2.018.655.565 1.317.655.666.075 1.26-.265.975-.56 1.1-1.732.167-1.546-.8-3.247-.906-1.577-2.127-2.1-1.226-.54-2.125-.025zm7.226-5.134l5.286-3.037.472.822-.507.3q-.46.264-.573.507-.114.244.007.454.137.24.476.452l4.72 3.06-.384-5.005q-.034-.413-.188-.68-.22-.382-.638-.447-.42-.065-.973.254l-.277.16-.472-.822 3.9-2.235.472.822q-.563.35-.76.78-.203.422-.153 1.105l.724 9.514q.2 2.434-.323 3.886-.4 1.095-1.366 1.65-1.004.577-1.867.424-.863-.153-1.275-.87-.308-.535-.17-1.072.152-.532.668-.83.526-.302 1.047-.17.527.142.812.64.093.163.17.45.044.165.088.242.132.23.38.087.44-.253.687-1.348.253-1.086.142-3.095l-8.032-5.15q-.446-.3-.75-.307-.308-.027-.614.15l-.25.143zm21.834 5.753l.525.794q-1.476 1.144-3.17 1.242-1.7.088-3.34-.908-2.237-1.35-2.758-3.325-.515-1.985.733-4.052 1.344-2.228 3.692-2.768 2.357-.535 4.8.946 1.765 1.065 2.267 2.346.507 1.272-.102 2.282-.444.736-1.122.92-.662.18-1.332-.225-.585-.353-.735-.894-.135-.545.2-1.083.28-.463 1.027-.848.314-.158.377-.262.114-.2-.088-.516-.273-.487-.943-.9-1.246-.752-2.28-.295-1.378.598-2.66 2.722-1.282 2.124-1.07 3.436.227 1.3 1.398 2.015.925.558 2.107.435 1.197-.127 2.474-1.07zm12.014 5.654l-6.2-3.742q-1.094 1.877-.912 3.197.197 1.316 1.33 2 .812.5 1.812.475 1-.014 2.482-.742l.433.84q-1.657.932-3.065.92-1.393-.017-2.885-.917-2.17-1.3-2.714-3.44-.543-2.13.704-4.197 1.247-2.067 3.434-2.64 2.187-.573 4.15.612 1.36.82 1.995 1.964.646 1.15.534 2.55-.096 1.397-1.1 3.122zm-5.7-4.592l2.954 1.783q.415.25.72.15.305-.1.635-.647.66-1.095.52-2-.136-.906-.9-1.373-.916-.553-1.896-.037-.97.52-2.023 2.114z"/><use xlink:href="#X"/><use xlink:href="#X" x="6.792" y="4.099"/><path d="M116.115 41.58l1.073-.37.576.347-1.634 3.134-.765-.46q.12-1.563-.317-2.483-.42-.924-1.45-1.545-.887-.535-1.555-.475-.668.06-.98.58-.308.5-.108 1 .193.5 1.604 1.78 1.277 1.17 1.64 1.658.693.92.765 1.955.08 1.04-.506 2.012-.74 1.227-2.24 1.47-1.483.238-3.088-.73-.774-.467-1.292-1.037-.515-.555-.915-1.428l-1.15.388-.717-.433 1.846-3.444.783.473q-.526 3.133 1.91 4.603 1 .604 1.763.536.762-.068 1.087-.606.296-.49.12-.945-.177-.454-1.425-1.607-1.35-1.24-1.77-1.803-.73-.943-.82-1.885-.083-.95.476-1.876.797-1.32 2.182-1.632 1.4-.32 2.863.57.717.433 1.18.945.473.517.864 1.32z"/></g></g></svg>