<?xml version="1.0" encoding="UTF-8"?>
<svg width="531.05" height="613.23" enable-background="new" version="1.1" viewBox="0 0 140.51 162.25" xmlns="http://www.w3.org/2000/svg" xmlns:cc="http://creativecommons.org/ns#" xmlns:dc="http://purl.org/dc/elements/1.1/" xmlns:rdf="http://www.w3.org/1999/02/22-rdf-syntax-ns#" xmlns:xlink="http://www.w3.org/1999/xlink">
<title>tidycells logo</title>
<defs>
<filter id="c" x="-.11574" y="-.21307" width="1.2315" height="1.4261" color-interpolation-filters="sRGB">
<feGaussianBlur stdDeviation="6.2400877"/>
</filter>
<linearGradient id="b" x1="273.95" x2="279.39" y1="159.09" y2="51.267" gradientTransform="translate(-307.06 -10.356)" gradientUnits="userSpaceOnUse">
<stop stop-color="#000e11" offset="0"/>
<stop stop-color="#002e3a" offset="1"/>
</linearGradient>
<linearGradient id="a" x1="-30.238" x2="-29.482" y1="39.22" y2="97.807" gradientUnits="userSpaceOnUse">
<stop stop-color="#004458" offset="0"/>
<stop stop-color="#00252e" offset="1"/>
</linearGradient>
</defs>
<metadata>
<rdf:RDF>
<cc:Work rdf:about="">
<dc:format>image/svg+xml</dc:format>
<dc:type rdf:resource="http://purl.org/dc/dcmitype/StillImage"/>
<dc:title>tidycells logo</dc:title>
<cc:license rdf:resource="http://creativecommons.org/licenses/by-nc-nd/4.0/"/>
<dc:creator>
<cc:Agent>
<dc:title>Indranil Gayen</dc:title>
</cc:Agent>
</dc:creator>
<dc:subject>
<rdf:Bag>
<rdf:li>#rstats</rdf:li>
</rdf:Bag>
</dc:subject>
<dc:description>https://github.com/r-rudra/tidycells</dc:description>
<dc:source>https://github.com/r-rudra/tidycells</dc:source>
</cc:Work>
<cc:License rdf:about="http://creativecommons.org/licenses/by-nc-nd/4.0/">
<cc:permits rdf:resource="http://creativecommons.org/ns#Reproduction"/>
<cc:permits rdf:resource="http://creativecommons.org/ns#Distribution"/>
<cc:requires rdf:resource="http://creativecommons.org/ns#Notice"/>
<cc:requires rdf:resource="http://creativecommons.org/ns#Attribution"/>
<cc:prohibits rdf:resource="http://creativecommons.org/ns#CommercialUse"/>
</cc:License>
</rdf:RDF>
</metadata>
<g transform="translate(.009816 -.12536)">
<g transform="translate(99.347 -22.6)">
<path d="m-29.104 184.98-70.253-40.561-2e-6 -81.121 70.253-40.561 70.253 40.561 3e-6 81.121z" fill="#7e0f00"/>
<path d="m-29.104 178.56-64.698-37.353-2e-6 -74.707 64.698-37.353 64.698 37.353 2e-6 74.707z" fill="url(#b)"/>
<path transform="matrix(.86425 0 0 .86425 -3.9508 3.9567)" d="m-93.802 66.501c0 0.36437 10.06 13.912 25.04 22.256 11.886 6.6198 29.739 11.209 39.28 10.628 8.9023-0.5422 25.646-3.5214 37.801-9.4967 17.291-8.5 27.275-23.387 27.275-23.387l-64.698-37.353z" fill="url(#a)" filter="url(#c)"/>
<path d="m-29.104 22.733-70.253 40.561v81.121l70.253 40.561 70.253-40.561v-81.121zm0 6.4146 64.698 37.353v74.707l-64.698 37.353-64.698-37.353v-74.707z" fill="#7e0f00"/>
</g>
<g transform="translate(-76.101 -6.4741)" stroke="#000" stroke-linejoin="round" stroke-width=".165">
<path d="m147.02 112.9 7.3612 4.25v8.5l-7.3612-4.25z" fill="#80623c"/>
<path d="m154.39 117.15 7.3612-4.25v8.5l-7.3612 4.25z" fill="#c0935c"/>
<path d="m147.02 112.9 7.3612-4.25 7.3612 4.25-7.3612 4.25z" fill="#ffc37a"/>
</g>
<g transform="translate(-76.101 -14.974)" stroke="#000" stroke-linejoin="round" stroke-width=".165">
<path d="m147.02 112.9 7.3612 4.25v8.5l-7.3612-4.25z" fill="#80623c"/>
<path d="m154.39 117.15 7.3612-4.25v8.5l-7.3612 4.25z" fill="#c0935c"/>
<path d="m147.02 112.9 7.3612-4.25 7.3612 4.25-7.3612 4.25z" fill="#ffc37a"/>
</g>
<g transform="translate(-54.017 -27.724)" stroke="#000" stroke-linejoin="round" stroke-width=".165">
<path d="m147.02 112.9 7.3612 4.25v8.5l-7.3612-4.25z" fill="#80623c"/>
<path d="m154.39 117.15 7.3612-4.25v8.5l-7.3612 4.25z" fill="#c0935c"/>
<path d="m147.02 112.9 7.3612-4.25 7.3612 4.25-7.3612 4.25z" fill="#ffc37a"/>
</g>
<g transform="translate(-76.101 -23.474)" stroke="#000" stroke-linejoin="round" stroke-width=".165">
<path d="m147.02 112.9 7.3612 4.25v8.5l-7.3612-4.25z" fill="#80623c"/>
<path d="m154.39 117.15 7.3612-4.25v8.5l-7.3612 4.25z" fill="#c0935c"/>
<path d="m147.02 112.9 7.3612-4.25 7.3612 4.25-7.3612 4.25z" fill="#ffc37a"/>
</g>
<g transform="translate(-76.206 -31.914)" stroke="#000" stroke-linejoin="round" stroke-width=".165">
<path d="m147.02 112.9 7.3612 4.25v8.5l-7.3612-4.25z" fill="#80623c"/>
<path d="m154.39 117.15 7.3612-4.25v8.5l-7.3612 4.25z" fill="#c0935c"/>
<path d="m147.02 112.9 7.3612-4.25 7.3612 4.25-7.3612 4.25z" fill="#ffc37a"/>
</g>
<g transform="translate(-68.74 -27.724)" stroke="#000" stroke-linejoin="round" stroke-width=".165">
<path d="m147.02 112.9 7.3612 4.25v8.5l-7.3612-4.25z" fill="#80623c"/>
<path d="m154.39 117.15 7.3612-4.25v8.5l-7.3612 4.25z" fill="#c0935c"/>
<path d="m147.02 112.9 7.3612-4.25 7.3612 4.25-7.3612 4.25z" fill="#ffc37a"/>
</g>
<g transform="translate(-61.379 -23.474)" stroke="#000" stroke-linejoin="round" stroke-width=".165">
<path d="m147.02 112.9 7.3612 4.25v8.5l-7.3612-4.25z" fill="#80623c"/>
<path d="m154.39 117.15 7.3612-4.25v8.5l-7.3612 4.25z" fill="#c0935c"/>
<path d="m147.02 112.9 7.3612-4.25 7.3612 4.25-7.3612 4.25z" fill="#ffc37a"/>
</g>
<g transform="translate(-90.823 -31.974)" stroke="#000" stroke-linejoin="round" stroke-width=".165">
<path d="m147.02 112.9 7.3612 4.25v8.5l-7.3612-4.25z" fill="#80623c"/>
<path d="m154.39 117.15 7.3612-4.25v8.5l-7.3612 4.25z" fill="#c0935c"/>
<path d="m147.02 112.9 7.3612-4.25 7.3612 4.25-7.3612 4.25z" fill="#ffc37a"/>
</g>
<g transform="translate(-83.462 -27.724)" stroke="#000" stroke-linejoin="round" stroke-width=".165">
<path d="m147.02 112.9 7.3612 4.25v8.5l-7.3612-4.25z" fill="#80623c"/>
<path d="m154.39 117.15 7.3612-4.25v8.5l-7.3612 4.25z" fill="#c0935c"/>
<path d="m147.02 112.9 7.3612-4.25 7.3612 4.25-7.3612 4.25z" fill="#ffc37a"/>
</g>
<g transform="translate(-105.55 -14.974)" stroke="#000" stroke-linejoin="round" stroke-width=".165">
<path d="m147.02 112.9 7.3612 4.25v8.5l-7.3612-4.25z" fill="#80623c"/>
<path d="m154.39 117.15 7.3612-4.25v8.5l-7.3612 4.25z" fill="#c0935c"/>
<path d="m147.02 112.9 7.3612-4.25 7.3612 4.25-7.3612 4.25z" fill="#ffc37a"/>
</g>
<g transform="translate(-105.55 -23.474)" stroke="#000" stroke-linejoin="round" stroke-width=".165">
<path d="m147.02 112.9 7.3612 4.25v8.5l-7.3612-4.25z" fill="#80623c"/>
<path d="m154.39 117.15 7.3612-4.25v8.5l-7.3612 4.25z" fill="#c0935c"/>
<path d="m147.02 112.9 7.3612-4.25 7.3612 4.25-7.3612 4.25z" fill="#ffc37a"/>
</g>
<g transform="translate(-105.55 -31.974)" stroke="#000" stroke-linejoin="round" stroke-width=".165">
<path d="m147.02 112.9 7.3612 4.25v8.5l-7.3612-4.25z" fill="#80623c"/>
<path d="m154.39 117.15 7.3612-4.25v8.5l-7.3612 4.25z" fill="#c0935c"/>
<path d="m147.02 112.9 7.3612-4.25 7.3612 4.25-7.3612 4.25z" fill="#ffc37a"/>
</g>
<g transform="translate(-98.185 -44.724)" stroke="#000" stroke-linejoin="round" stroke-width=".165">
<path d="m147.02 112.9 7.3612 4.25v8.5l-7.3612-4.25z" fill="#80623c"/>
<path d="m154.39 117.15 7.3612-4.25v8.5l-7.3612 4.25z" fill="#c0935c"/>
<path d="m147.02 112.9 7.3612-4.25 7.3612 4.25-7.3612 4.25z" fill="#ffc37a"/>
</g>
<g transform="translate(-112.91 -10.724)" stroke="#000" stroke-linejoin="round" stroke-width=".165">
<path d="m147.02 112.9 7.3612 4.25v8.5l-7.3612-4.25z" fill="#80623c"/>
<path d="m154.39 117.15 7.3612-4.25v8.5l-7.3612 4.25z" fill="#c0935c"/>
<path d="m147.02 112.9 7.3612-4.25 7.3612 4.25-7.3612 4.25z" fill="#ffc37a"/>
</g>
<g transform="translate(-120.27 -6.4741)" stroke="#000" stroke-linejoin="round" stroke-width=".165">
<path d="m147.02 112.9 7.3612 4.25v8.5l-7.3612-4.25z" fill="#80623c"/>
<path d="m154.39 117.15 7.3612-4.25v8.5l-7.3612 4.25z" fill="#c0935c"/>
<path d="m147.02 112.9 7.3612-4.25 7.3612 4.25-7.3612 4.25z" fill="#ffc37a"/>
</g>
<g transform="translate(-112.91 -2.2241)" stroke="#000" stroke-linejoin="round" stroke-width=".165">
<path d="m147.02 112.9 7.3612 4.25v8.5l-7.3612-4.25z" fill="#80623c"/>
<path d="m154.39 117.15 7.3612-4.25v8.5l-7.3612 4.25z" fill="#c0935c"/>
<path d="m147.02 112.9 7.3612-4.25 7.3612 4.25-7.3612 4.25z" fill="#ffc37a"/>
</g>
<g transform="translate(-64.323 -30.274)" stroke="#000" stroke-linejoin="round" stroke-width=".165">
<path d="m105.8 145.2 7.3612 4.25v8.5l-7.3612-4.25z" fill="#69802f"/>
<path d="m113.16 149.45 7.3612-4.25v8.5l-7.3612 4.25z" fill="#9ebf49"/>
<path d="m105.8 145.2 7.3612-4.25 7.3612 4.25-7.3612 4.25z" fill="#cfff6a"/>
</g>
<g transform="translate(-56.962 -85.524)" stroke="#000" stroke-linejoin="round" stroke-width=".165">
<path d="m105.8 145.2 7.3612 4.25v8.5l-7.3612-4.25z" fill="#69802f"/>
<path d="m113.16 149.45 7.3612-4.25v8.5l-7.3612 4.25z" fill="#9ebf49"/>
<path d="m105.8 145.2 7.3612-4.25 7.3612 4.25-7.3612 4.25z" fill="#cfff6a"/>
</g>
<g transform="translate(-68.74 -2.2241)" stroke="#000" stroke-linejoin="round" stroke-width=".165">
<path d="m147.02 112.9 7.3612 4.25v8.5l-7.3612-4.25z" fill="#80623c"/>
<path d="m154.39 117.15 7.3612-4.25v8.5l-7.3612 4.25z" fill="#c0935c"/>
<path d="m147.02 112.9 7.3612-4.25 7.3612 4.25-7.3612 4.25z" fill="#ffc37a"/>
</g>
<g transform="translate(-61.379 2.0259)" stroke="#000" stroke-linejoin="round" stroke-width=".165">
<path d="m147.02 112.9 7.3612 4.25v8.5l-7.3612-4.25z" fill="#80623c"/>
<path d="m154.39 117.15 7.3612-4.25v8.5l-7.3612 4.25z" fill="#c0935c"/>
<path d="m147.02 112.9 7.3612-4.25 7.3612 4.25-7.3612 4.25z" fill="#ffc37a"/>
</g>
<g transform="translate(-54.017 6.2759)" stroke="#000" stroke-linejoin="round" stroke-width=".165">
<path d="m147.02 112.9 7.3612 4.25v8.5l-7.3612-4.25z" fill="#80623c"/>
<path d="m154.39 117.15 7.3612-4.25v8.5l-7.3612 4.25z" fill="#c0935c"/>
<path d="m147.02 112.9 7.3612-4.25 7.3612 4.25-7.3612 4.25z" fill="#ffc37a"/>
</g>
<g transform="translate(-61.379 10.526)" stroke="#000" stroke-linejoin="round" stroke-width=".165">
<path d="m147.02 112.9 7.3612 4.25v8.5l-7.3612-4.25z" fill="#80623c"/>
<path d="m154.39 117.15 7.3612-4.25v8.5l-7.3612 4.25z" fill="#c0935c"/>
<path d="m147.02 112.9 7.3612-4.25 7.3612 4.25-7.3612 4.25z" fill="#ffc37a"/>
</g>
<g transform="translate(-68.74 14.776)" stroke="#000" stroke-linejoin="round" stroke-width=".165">
<path d="m147.02 112.9 7.3612 4.25v8.5l-7.3612-4.25z" fill="#80623c"/>
<path d="m154.39 117.15 7.3612-4.25v8.5l-7.3612 4.25z" fill="#c0935c"/>
<path d="m147.02 112.9 7.3612-4.25 7.3612 4.25-7.3612 4.25z" fill="#ffc37a"/>
</g>
<g transform="translate(-76.101 19.026)" stroke="#000" stroke-linejoin="round" stroke-width=".165">
<path d="m147.02 112.9 7.3612 4.25v8.5l-7.3612-4.25z" fill="#80623c"/>
<path d="m154.39 117.15 7.3612-4.25v8.5l-7.3612 4.25z" fill="#c0935c"/>
<path d="m147.02 112.9 7.3612-4.25 7.3612 4.25-7.3612 4.25z" fill="#ffc37a"/>
</g>
<g transform="translate(-83.462 23.276)" stroke="#000" stroke-linejoin="round" stroke-width=".165">
<path d="m147.02 112.9 7.3612 4.25v8.5l-7.3612-4.25z" fill="#80623c"/>
<path d="m154.39 117.15 7.3612-4.25v8.5l-7.3612 4.25z" fill="#c0935c"/>
<path d="m147.02 112.9 7.3612-4.25 7.3612 4.25-7.3612 4.25z" fill="#ffc37a"/>
</g>
<g transform="translate(-42.239 -17.524)" stroke="#000" stroke-linejoin="round" stroke-width=".165">
<path d="m105.8 145.2 7.3612 4.25v8.5l-7.3612-4.25z" fill="#69802f"/>
<path d="m113.16 149.45 7.3612-4.25v8.5l-7.3612 4.25z" fill="#9ebf49"/>
<path d="m105.8 145.2 7.3612-4.25 7.3612 4.25-7.3612 4.25z" fill="#cfff6a"/>
</g>
<g transform="translate(-12.795 -34.524)" stroke="#000" stroke-linejoin="round" stroke-width=".165">
<path d="m105.8 145.2 7.3612 4.25v8.5l-7.3612-4.25z" fill="#69802f"/>
<path d="m113.16 149.45 7.3612-4.25v8.5l-7.3612 4.25z" fill="#9ebf49"/>
<path d="m105.8 145.2 7.3612-4.25 7.3612 4.25-7.3612 4.25z" fill="#cfff6a"/>
</g>
<g transform="translate(1.9278 -60.024)" stroke="#000" stroke-linejoin="round" stroke-width=".165">
<path d="m105.8 145.2 7.3612 4.25v8.5l-7.3612-4.25z" fill="#69802f"/>
<path d="m113.16 149.45 7.3612-4.25v8.5l-7.3612 4.25z" fill="#9ebf49"/>
<path d="m105.8 145.2 7.3612-4.25 7.3612 4.25-7.3612 4.25z" fill="#cfff6a"/>
</g>
<g transform="translate(-46.656 -30.474)" stroke="#000" stroke-width=".02">
<path d="m116.35 105 0.86603 0.5v1l-0.86603-0.5z" fill="#6e1204"/>
<path d="m117.21 105.5 0.86602-0.5v1l-0.86602 0.5z" fill="#ba1901"/>
<path d="m116.35 105 0.86603-0.5 0.86602 0.5-0.86602 0.5z" fill="#fc1d05" stroke-linejoin="round"/>
</g>
<g transform="translate(-46.656 -31.474)" stroke="#000" stroke-width=".02">
<path d="m116.35 105 0.86603 0.5v1l-0.86603-0.5z" fill="#6e1204"/>
<path d="m117.21 105.5 0.86602-0.5v1l-0.86602 0.5z" fill="#ba1901"/>
<path d="m116.35 105 0.86603-0.5 0.86602 0.5-0.86602 0.5z" fill="#fc1d05" stroke-linejoin="round"/>
</g>
<g transform="translate(-46.656 -32.474)" stroke="#000" stroke-width=".02">
<path d="m116.35 105 0.86603 0.5v1l-0.86603-0.5z" fill="#6e1204"/>
<path d="m117.21 105.5 0.86602-0.5v1l-0.86602 0.5z" fill="#ba1901"/>
<path d="m116.35 105 0.86603-0.5 0.86602 0.5-0.86602 0.5z" fill="#fc1d05" stroke-linejoin="round"/>
</g>
<g transform="translate(-46.656 -33.474)" stroke="#000" stroke-width=".02">
<path d="m116.35 105 0.86603 0.5v1l-0.86603-0.5z" fill="#6e1204"/>
<path d="m117.21 105.5 0.86602-0.5v1l-0.86602 0.5z" fill="#ba1901"/>
<path d="m116.35 105 0.86603-0.5 0.86602 0.5-0.86602 0.5z" fill="#fc1d05" stroke-linejoin="round"/>
</g>
<g transform="translate(-46.656 -34.474)" stroke="#000" stroke-width=".02">
<path d="m116.35 105 0.86603 0.5v1l-0.86603-0.5z" fill="#6e1204"/>
<path d="m117.21 105.5 0.86602-0.5v1l-0.86602 0.5z" fill="#ba1901"/>
<path d="m116.35 105 0.86603-0.5 0.86602 0.5-0.86602 0.5z" fill="#fc1d05" stroke-linejoin="round"/>
</g>
<g transform="translate(-46.656 -35.474)" stroke="#000" stroke-width=".02">
<path d="m116.35 105 0.86603 0.5v1l-0.86603-0.5z" fill="#6e1204"/>
<path d="m117.21 105.5 0.86602-0.5v1l-0.86602 0.5z" fill="#ba1901"/>
<path d="m116.35 105 0.86603-0.5 0.86602 0.5-0.86602 0.5z" fill="#fc1d05" stroke-linejoin="round"/>
</g>
<g transform="translate(-46.656 -36.474)" stroke="#000" stroke-width=".02">
<path d="m116.35 105 0.86603 0.5v1l-0.86603-0.5z" fill="#6e1204"/>
<path d="m117.21 105.5 0.86602-0.5v1l-0.86602 0.5z" fill="#ba1901"/>
<path d="m116.35 105 0.86603-0.5 0.86602 0.5-0.86602 0.5z" fill="#fc1d05" stroke-linejoin="round"/>
</g>
<g transform="translate(-46.656 -37.474)" stroke="#000" stroke-width=".02">
<path d="m116.35 105 0.86603 0.5v1l-0.86603-0.5z" fill="#6e1204"/>
<path d="m117.21 105.5 0.86602-0.5v1l-0.86602 0.5z" fill="#ba1901"/>
<path d="m116.35 105 0.86603-0.5 0.86602 0.5-0.86602 0.5z" fill="#fc1d05" stroke-linejoin="round"/>
</g>
<g transform="translate(-46.656 -38.474)" stroke="#000" stroke-width=".02">
<path d="m116.35 105 0.86603 0.5v1l-0.86603-0.5z" fill="#6e1204"/>
<path d="m117.21 105.5 0.86602-0.5v1l-0.86602 0.5z" fill="#ba1901"/>
<path d="m116.35 105 0.86603-0.5 0.86602 0.5-0.86602 0.5z" fill="#fc1d05" stroke-linejoin="round"/>
</g>
<g transform="translate(-46.656 -40.474)" stroke="#000" stroke-width=".02">
<path d="m116.35 105 0.86603 0.5v1l-0.86603-0.5z" fill="#6e1204"/>
<path d="m117.21 105.5 0.86602-0.5v1l-0.86602 0.5z" fill="#ba1901"/>
<path d="m116.35 105 0.86603-0.5 0.86602 0.5-0.86602 0.5z" fill="#fc1d05" stroke-linejoin="round"/>
</g>
<g transform="translate(-45.79 -36.974)" stroke="#000" stroke-width=".02">
<path d="m116.35 105 0.86603 0.5v1l-0.86603-0.5z" fill="#6e1204"/>
<path d="m117.21 105.5 0.86602-0.5v1l-0.86602 0.5z" fill="#ba1901"/>
<path d="m116.35 105 0.86603-0.5 0.86602 0.5-0.86602 0.5z" fill="#fc1d05" stroke-linejoin="round"/>
</g>
<g transform="translate(-45.79 -37.974)" stroke="#000" stroke-width=".02">
<path d="m116.35 105 0.86603 0.5v1l-0.86603-0.5z" fill="#6e1204"/>
<path d="m117.21 105.5 0.86602-0.5v1l-0.86602 0.5z" fill="#ba1901"/>
<path d="m116.35 105 0.86603-0.5 0.86602 0.5-0.86602 0.5z" fill="#fc1d05" stroke-linejoin="round"/>
</g>
<g transform="translate(-45.79 -38.974)" stroke="#000" stroke-width=".02">
<path d="m116.35 105 0.86603 0.5v1l-0.86603-0.5z" fill="#6e1204"/>
<path d="m117.21 105.5 0.86602-0.5v1l-0.86602 0.5z" fill="#ba1901"/>
<path d="m116.35 105 0.86603-0.5 0.86602 0.5-0.86602 0.5z" fill="#fc1d05" stroke-linejoin="round"/>
</g>
<g transform="translate(-44.924 -36.474)" stroke="#000" stroke-width=".02">
<path d="m116.35 105 0.86603 0.5v1l-0.86603-0.5z" fill="#6e1204"/>
<path d="m117.21 105.5 0.86602-0.5v1l-0.86602 0.5z" fill="#ba1901"/>
<path d="m116.35 105 0.86603-0.5 0.86602 0.5-0.86602 0.5z" fill="#fc1d05" stroke-linejoin="round"/>
</g>
<g transform="translate(-44.924 -37.474)" stroke="#000" stroke-width=".02">
<path d="m116.35 105 0.86603 0.5v1l-0.86603-0.5z" fill="#6e1204"/>
<path d="m117.21 105.5 0.86602-0.5v1l-0.86602 0.5z" fill="#ba1901"/>
<path d="m116.35 105 0.86603-0.5 0.86602 0.5-0.86602 0.5z" fill="#fc1d05" stroke-linejoin="round"/>
</g>
<g transform="translate(-47.522 -36.974)" stroke="#000" stroke-width=".02">
<path d="m116.35 105 0.86603 0.5v1l-0.86603-0.5z" fill="#6e1204"/>
<path d="m117.21 105.5 0.86602-0.5v1l-0.86602 0.5z" fill="#ba1901"/>
<path d="m116.35 105 0.86603-0.5 0.86602 0.5-0.86602 0.5z" fill="#fc1d05" stroke-linejoin="round"/>
</g>
<g transform="translate(-47.522 -37.974)" stroke="#000" stroke-width=".02">
<path d="m116.35 105 0.86603 0.5v1l-0.86603-0.5z" fill="#6e1204"/>
<path d="m117.21 105.5 0.86602-0.5v1l-0.86602 0.5z" fill="#ba1901"/>
<path d="m116.35 105 0.86603-0.5 0.86602 0.5-0.86602 0.5z" fill="#fc1d05" stroke-linejoin="round"/>
</g>
<g transform="translate(-47.522 -38.974)" stroke="#000" stroke-width=".02">
<path d="m116.35 105 0.86603 0.5v1l-0.86603-0.5z" fill="#6e1204"/>
<path d="m117.21 105.5 0.86602-0.5v1l-0.86602 0.5z" fill="#ba1901"/>
<path d="m116.35 105 0.86603-0.5 0.86602 0.5-0.86602 0.5z" fill="#fc1d05" stroke-linejoin="round"/>
</g>
<g transform="translate(-48.388 -36.474)" stroke="#000" stroke-width=".02">
<path d="m116.35 105 0.86603 0.5v1l-0.86603-0.5z" fill="#6e1204"/>
<path d="m117.21 105.5 0.86602-0.5v1l-0.86602 0.5z" fill="#ba1901"/>
<path d="m116.35 105 0.86603-0.5 0.86602 0.5-0.86602 0.5z" fill="#fc1d05" stroke-linejoin="round"/>
</g>
<g transform="translate(-48.388 -37.474)" stroke="#000" stroke-width=".02">
<path d="m116.35 105 0.86603 0.5v1l-0.86603-0.5z" fill="#6e1204"/>
<path d="m117.21 105.5 0.86602-0.5v1l-0.86602 0.5z" fill="#ba1901"/>
<path d="m116.35 105 0.86603-0.5 0.86602 0.5-0.86602 0.5z" fill="#fc1d05" stroke-linejoin="round"/>
</g>
<g transform="translate(-69.519 -59.174)" stroke="#000" stroke-linejoin="round" stroke-width=".09">
<path d="m135.42 94.45 4.7631 2.75v5.5l-4.7631-2.75z" fill="#7b687a"/>
<path d="m140.18 97.2 4.7631-2.75v5.5l-4.7631 2.75z" fill="#b593ac"/>
<path d="m135.42 94.45 4.7631-2.75 4.7631 2.75-4.7631 2.75z" fill="#ffc2e1"/>
</g>
<g transform="translate(-64.756 -56.424)" stroke="#000" stroke-linejoin="round" stroke-width=".09">
<path d="m135.42 94.45 4.7631 2.75v5.5l-4.7631-2.75z" fill="#7b687a"/>
<path d="m140.18 97.2 4.7631-2.75v5.5l-4.7631 2.75z" fill="#b593ac"/>
<path d="m135.42 94.45 4.7631-2.75 4.7631 2.75-4.7631 2.75z" fill="#ffc2e1"/>
</g>
<g transform="translate(-59.993 -53.674)" stroke="#000" stroke-linejoin="round" stroke-width=".09">
<path d="m135.42 94.45 4.7631 2.75v5.5l-4.7631-2.75z" fill="#7b687a"/>
<path d="m140.18 97.2 4.7631-2.75v5.5l-4.7631 2.75z" fill="#b593ac"/>
<path d="m135.42 94.45 4.7631-2.75 4.7631 2.75-4.7631 2.75z" fill="#ffc2e1"/>
</g>
<g transform="translate(-55.23 -50.924)" stroke="#000" stroke-linejoin="round" stroke-width=".09">
<path d="m135.42 94.45 4.7631 2.75v5.5l-4.7631-2.75z" fill="#7b687a"/>
<path d="m140.18 97.2 4.7631-2.75v5.5l-4.7631 2.75z" fill="#b593ac"/>
<path d="m135.42 94.45 4.7631-2.75 4.7631 2.75-4.7631 2.75z" fill="#ffc2e1"/>
</g>
<g transform="translate(-74.282 -56.424)" stroke="#000" stroke-linejoin="round" stroke-width=".09">
<path d="m135.42 94.45 4.7631 2.75v5.5l-4.7631-2.75z" fill="#7b687a"/>
<path d="m140.18 97.2 4.7631-2.75v5.5l-4.7631 2.75z" fill="#b593ac"/>
<path d="m135.42 94.45 4.7631-2.75 4.7631 2.75-4.7631 2.75z" fill="#ffc2e1"/>
</g>
<g transform="translate(-79.046 -53.674)" stroke="#000" stroke-linejoin="round" stroke-width=".09">
<path d="m135.42 94.45 4.7631 2.75v5.5l-4.7631-2.75z" fill="#7b687a"/>
<path d="m140.18 97.2 4.7631-2.75v5.5l-4.7631 2.75z" fill="#b593ac"/>
<path d="m135.42 94.45 4.7631-2.75 4.7631 2.75-4.7631 2.75z" fill="#ffc2e1"/>
</g>
<g transform="translate(-83.809 -50.924)" stroke="#000" stroke-linejoin="round" stroke-width=".09">
<path d="m135.42 94.45 4.7631 2.75v5.5l-4.7631-2.75z" fill="#7b687a"/>
<path d="m140.18 97.2 4.7631-2.75v5.5l-4.7631 2.75z" fill="#b593ac"/>
<path d="m135.42 94.45 4.7631-2.75 4.7631 2.75-4.7631 2.75z" fill="#ffc2e1"/>
</g>
<g transform="translate(-46.656 -51.474)" stroke="#000" stroke-linejoin="round" stroke-width=".09">
<path d="m112.55 92.25 4.7631 2.75v5.5l-4.7631-2.75z" fill="#4b7f89"/>
<path d="m117.32 95 4.7631-2.75v5.5l-4.7631 2.75z" fill="#79b9c5"/>
<path d="m112.55 92.25 4.7631-2.75 4.7631 2.75-4.7631 2.75z" fill="#9ff2ff"/>
</g>
<g transform="translate(-41.893 -48.724)" stroke="#000" stroke-linejoin="round" stroke-width=".09">
<path d="m112.55 92.25 4.7631 2.75v5.5l-4.7631-2.75z" fill="#4b7f89"/>
<path d="m117.32 95 4.7631-2.75v5.5l-4.7631 2.75z" fill="#79b9c5"/>
<path d="m112.55 92.25 4.7631-2.75 4.7631 2.75-4.7631 2.75z" fill="#9ff2ff"/>
</g>
<g transform="translate(-37.13 -45.974)" stroke="#000" stroke-linejoin="round" stroke-width=".09">
<path d="m112.55 92.25 4.7631 2.75v5.5l-4.7631-2.75z" fill="#4b7f89"/>
<path d="m117.32 95 4.7631-2.75v5.5l-4.7631 2.75z" fill="#79b9c5"/>
<path d="m112.55 92.25 4.7631-2.75 4.7631 2.75-4.7631 2.75z" fill="#9ff2ff"/>
</g>
<g transform="translate(-51.419 -48.724)" stroke="#000" stroke-linejoin="round" stroke-width=".09">
<path d="m112.55 92.25 4.7631 2.75v5.5l-4.7631-2.75z" fill="#4b7f89"/>
<path d="m117.32 95 4.7631-2.75v5.5l-4.7631 2.75z" fill="#79b9c5"/>
<path d="m112.55 92.25 4.7631-2.75 4.7631 2.75-4.7631 2.75z" fill="#9ff2ff"/>
</g>
<g transform="translate(-46.656 -45.974)" stroke="#000" stroke-linejoin="round" stroke-width=".09">
<path d="m112.55 92.25 4.7631 2.75v5.5l-4.7631-2.75z" fill="#4b7f89"/>
<path d="m117.32 95 4.7631-2.75v5.5l-4.7631 2.75z" fill="#79b9c5"/>
<path d="m112.55 92.25 4.7631-2.75 4.7631 2.75-4.7631 2.75z" fill="#9ff2ff"/>
</g>
<g transform="translate(-41.893 -43.224)" stroke="#000" stroke-linejoin="round" stroke-width=".09">
<path d="m112.55 92.25 4.7631 2.75v5.5l-4.7631-2.75z" fill="#4b7f89"/>
<path d="m117.32 95 4.7631-2.75v5.5l-4.7631 2.75z" fill="#79b9c5"/>
<path d="m112.55 92.25 4.7631-2.75 4.7631 2.75-4.7631 2.75z" fill="#9ff2ff"/>
</g>
<g transform="translate(-56.182 -45.974)" stroke="#000" stroke-linejoin="round" stroke-width=".09">
<path d="m112.55 92.25 4.7631 2.75v5.5l-4.7631-2.75z" fill="#4b7f89"/>
<path d="m117.32 95 4.7631-2.75v5.5l-4.7631 2.75z" fill="#79b9c5"/>
<path d="m112.55 92.25 4.7631-2.75 4.7631 2.75-4.7631 2.75z" fill="#9ff2ff"/>
</g>
<g transform="translate(-51.419 -43.224)" stroke="#000" stroke-linejoin="round" stroke-width=".09">
<path d="m112.55 92.25 4.7631 2.75v5.5l-4.7631-2.75z" fill="#4b7f89"/>
<path d="m117.32 95 4.7631-2.75v5.5l-4.7631 2.75z" fill="#79b9c5"/>
<path d="m112.55 92.25 4.7631-2.75 4.7631 2.75-4.7631 2.75z" fill="#9ff2ff"/>
</g>
<g transform="translate(-46.656 -40.474)" stroke="#000" stroke-linejoin="round" stroke-width=".09">
<path d="m112.55 92.25 4.7631 2.75v5.5l-4.7631-2.75z" fill="#4b7f89"/>
<path d="m117.32 95 4.7631-2.75v5.5l-4.7631 2.75z" fill="#79b9c5"/>
<path d="m112.55 92.25 4.7631-2.75 4.7631 2.75-4.7631 2.75z" fill="#9ff2ff"/>
</g>
<g transform="translate(-44.058 -35.974)" stroke="#000" stroke-width=".02">
<path d="m116.35 105 0.86603 0.5v1l-0.86603-0.5z" fill="#6e1204"/>
<path d="m117.21 105.5 0.86602-0.5v1l-0.86602 0.5z" fill="#ba1901"/>
<path d="m116.35 105 0.86603-0.5 0.86602 0.5-0.86602 0.5z" fill="#fc1d05" stroke-linejoin="round"/>
</g>
<g transform="translate(-49.254 -35.974)" stroke="#000" stroke-width=".02">
<path d="m116.35 105 0.86603 0.5v1l-0.86603-0.5z" fill="#6e1204"/>
<path d="m117.21 105.5 0.86602-0.5v1l-0.86602 0.5z" fill="#ba1901"/>
<path d="m116.35 105 0.86603-0.5 0.86602 0.5-0.86602 0.5z" fill="#fc1d05" stroke-linejoin="round"/>
</g>
<g transform="rotate(-29.878)" fill="#d2ff64" stroke-width=".26458" aria-label="https://r-rudra.github.io/tidycells/">
<path d="m-15.337 166.06 0.92278-0.0459v1.5199q0.21086-0.25888 0.38832-0.35283 0.17746-0.096 0.38832-0.096 0.29228 0 0.44677 0.17745 0.17537 0.2046 0.17537 0.57831v0.92695q0 0.096 0.04384 0.14196 0.04384 0.0438 0.12735 0.0438h0.1357v0.19416h-1.1796v-0.19416h0.12735q0.10648 0 0.14405-0.0397 0.05219-0.0522 0.05219-0.14614v-0.91025q0-0.19625-0.10647-0.31107-0.10439-0.11692-0.26305-0.11692-0.19625 0-0.33821 0.16493-0.14196 0.16493-0.14196 0.44887v0.72444q0 0.0939 0.04384 0.13987 0.04593 0.0459 0.12944 0.0459h0.14197v0.19416h-1.2151v-0.19416h0.16911q0.08977 0 0.1357-0.048 0.04593-0.048 0.04593-0.13779v-2.2986q0-0.10021-0.06472-0.15658-0.06263-0.0585-0.16911-0.0585h-0.13988z"/>
<path d="m-11.752 166.39h0.1879v0.80378h0.64511v0.22547h-0.64511v1.2422q0 0.12318 0.06263 0.19207 0.06263 0.0668 0.16493 0.0668 0.29228 0 0.30898-0.5449h0.1879q-0.0063 0.2902-0.09186 0.46765-0.0856 0.17537-0.24635 0.27141-0.15867 0.096-0.35909 0.096-0.17537 0-0.30481-0.071-0.12735-0.071-0.2046-0.21086-0.07516-0.14196-0.07516-0.30689v-1.2025h-0.34656v-0.19207q0.31734-0.0418 0.49479-0.24426 0.17746-0.20251 0.2213-0.59292z"/>
<path d="m-9.932 166.39h0.1879v0.80378h0.64511v0.22547h-0.64511v1.2422q0 0.12318 0.062632 0.19207 0.062632 0.0668 0.16493 0.0668 0.29228 0 0.30898-0.5449h0.1879q-0.00626 0.2902-0.09186 0.46765-0.085597 0.17537-0.24635 0.27141-0.15867 0.096-0.35909 0.096-0.17537 0-0.30481-0.071-0.12735-0.071-0.2046-0.21086-0.07516-0.14196-0.07516-0.30689v-1.2025h-0.34656v-0.19207q0.31734-0.0418 0.49479-0.24426 0.17746-0.20251 0.2213-0.59292z"/>
<path d="m-8.7148 167.2 0.79542-0.0501q0.048018 0.19207 0.056369 0.38206 0.12318-0.19834 0.31525-0.3069 0.19416-0.11065 0.43007-0.11065 0.37788 0 0.6117 0.26932 0.23383 0.26932 0.23383 0.76202 0 0.34239-0.11274 0.58039t-0.31525 0.35909q-0.20042 0.12108-0.46974 0.12108-0.21504 0-0.38205-0.096-0.16702-0.0981-0.31107-0.31316v0.69939q0 0.13779 0.020877 0.17537 0.020877 0.0397 0.077246 0.0584 0.058456 0.0209 0.22965 0.023v0.20042h-1.1796v-0.20042h0.062632q0.11065 0 0.14823-0.0209 0.037579-0.0188 0.058456-0.0668 0.014614-0.0334 0.014614-0.16911v-1.8497q0-0.1357-0.020877-0.17954-0.020877-0.0459-0.06472-0.0647-0.041755-0.0209-0.19833-0.0271zm1.3361 0.20668q-0.20251 0-0.34448 0.19416t-0.14197 0.56786q0 0.36953 0.14823 0.56578 0.15032 0.19624 0.34239 0.19624 0.1879 0 0.30272-0.1691 0.15032-0.22339 0.15032-0.60127 0-0.34656-0.12109-0.54907-0.12109-0.2046-0.33612-0.2046z"/>
<path d="m-4.5143 167.25 0.13779-0.16493h0.12735l0.041755 0.66807h-0.16911q-0.13361-0.26514-0.29437-0.37162-0.15867-0.10856-0.38623-0.10856-0.19625 0-0.29854 0.0752-0.1023 0.0752-0.1023 0.18998 0 0.11274 0.079334 0.1712 0.079334 0.0605 0.43425 0.13152 0.32151 0.0647 0.42798 0.10857 0.20251 0.0814 0.31525 0.24217 0.11482 0.16076 0.11482 0.37579 0 0.27141-0.21921 0.45721-0.21712 0.18372-0.57204 0.18372-0.17119 0-0.31107-0.0418-0.13779-0.0397-0.28811-0.14197l-0.14823 0.17537h-0.15867l-0.037579-0.73905h0.17328q0.2213 0.55951 0.75993 0.55951 0.2213 0 0.33821-0.0856 0.11691-0.0856 0.11691-0.20459 0-0.10857-0.073071-0.16494-0.073071-0.0564-0.38832-0.12108-0.3403-0.0689-0.46348-0.119-0.21086-0.0814-0.31733-0.22548-0.10647-0.14614-0.10647-0.35074 0-0.29228 0.19416-0.47809 0.19416-0.18789 0.51984-0.18789 0.15867 0 0.28393 0.0376 0.12735 0.0376 0.26932 0.12944z"/>
<path d="m-3.3097 167.12q0.14823 0 0.25053 0.10439 0.10439 0.1023 0.10439 0.25053 0 0.14614-0.10439 0.25052-0.1023 0.10439-0.25053 0.10439t-0.25262-0.1023q-0.1023-0.10439-0.1023-0.25261 0-0.14823 0.1023-0.25053 0.10439-0.10439 0.25262-0.10439zm0 1.3654q0.14823 0 0.25053 0.10438 0.10439 0.10439 0.10439 0.25471 0 0.15031-0.10439 0.2547-0.1023 0.10438-0.25053 0.10438-0.14614 0-0.25053-0.10438-0.10439-0.10439-0.10439-0.2547 0-0.15032 0.10439-0.25471 0.10439-0.10438 0.25053-0.10438z"/>
<path d="m-1.4746 166.06-0.94574 3.0878h-0.39458l0.94574-3.0878z"/>
<path d="m-0.28877 166.06-0.94574 3.0878h-0.39458l0.94574-3.0878z"/>
<path d="m1.1789 168.95v0.19416h-1.3654v-0.19416h0.16911q0.10439 0 0.1524-0.0397 0.048018-0.0418 0.048018-0.11065v-1.1566q0-0.13988-0.06472-0.2046-0.062632-0.0647-0.17746-0.0647h-0.11065v-0.18372l0.83509-0.0438v0.63675q0.07307-0.31942 0.2547-0.49061 0.18163-0.1712 0.40919-0.1712 0.19416 0 0.3069 0.10439 0.11274 0.1023 0.11274 0.26514 0 0.13988-0.079334 0.22757-0.077246 0.0856-0.18998 0.0856-0.10021 0-0.17328-0.0752-0.070983-0.0752-0.070983-0.19207 0-0.0647 0.035491-0.1357 0.01879-0.0397 0.01879-0.0564 0-0.0292-0.014614-0.0418-0.012526-0.0146-0.041755-0.0146-0.075158 0-0.16493 0.0877-0.13779 0.1357-0.23174 0.42381-0.093948 0.28602-0.093948 0.5783v0.42172q0 0.0731 0.039667 0.11274 0.039667 0.0376 0.11065 0.0376z"/>
<path d="m1.918 167.96h1.3069v0.39458h-1.3069z"/>
<path d="m4.8283 168.95v0.19416h-1.3654v-0.19416h0.16911q0.10439 0 0.1524-0.0397 0.048018-0.0418 0.048018-0.11065v-1.1566q0-0.13988-0.06472-0.2046-0.062632-0.0647-0.17746-0.0647h-0.11065v-0.18372l0.83509-0.0438v0.63675q0.07307-0.31942 0.2547-0.49061 0.18163-0.1712 0.40919-0.1712 0.19416 0 0.3069 0.10439 0.11274 0.1023 0.11274 0.26514 0 0.13988-0.079334 0.22757-0.077246 0.0856-0.18998 0.0856-0.10021 0-0.17328-0.0752-0.070983-0.0752-0.070983-0.19207 0-0.0647 0.035491-0.1357 0.01879-0.0397 0.01879-0.0564 0-0.0292-0.014614-0.0418-0.012526-0.0146-0.041755-0.0146-0.075158 0-0.16493 0.0877-0.13779 0.1357-0.23174 0.42381-0.093948 0.28602-0.093948 0.5783v0.42172q0 0.0731 0.039667 0.11274 0.039667 0.0376 0.11065 0.0376z"/>
<path d="m5.6738 167.19 0.87267-0.0501v1.3028q0 0.18163 0.098123 0.2881 0.098123 0.10439 0.2547 0.10439 0.2213 0 0.35283-0.17537 0.13361-0.17537 0.13361-0.41128v-0.63885q0-0.11273-0.062632-0.17119-0.062632-0.0585-0.17119-0.0585h-0.096036v-0.18998l0.88102-0.0501v1.5825q0 0.10648 0.064719 0.16702 0.066807 0.0605 0.17537 0.0605h0.089772v0.19416l-0.80795 0.0251q-0.050106-0.20878-0.058456-0.44678-0.20251 0.25679-0.39041 0.36118t-0.39041 0.10439q-0.20042 0-0.33821-0.0835-0.1357-0.0835-0.21712-0.26515-0.081421-0.18163-0.081421-0.44051v-0.77663q0-0.12735-0.064719-0.18163-0.06472-0.0564-0.24426-0.0606z"/>
<path d="m9.8263 166.05 0.97079-0.0376v2.5554q0 0.19625 0.02505 0.26514 0.02714 0.0668 0.08142 0.0981 0.05428 0.0292 0.20877 0.0292v0.1858l-0.80378 0.0251-0.05846-0.37997q-0.18372 0.24009-0.33404 0.31942-0.14823 0.0793-0.37162 0.0793-0.40084 0-0.65346-0.26932-0.25262-0.26932-0.25262-0.73071 0-0.5094 0.26723-0.80795 0.26723-0.29854 0.6639-0.29854 0.21295 0 0.37788 0.094 0.16702 0.0919 0.30272 0.30063v-0.88937q0-0.15867-0.02923-0.22757t-0.07933-0.0939q-0.04802-0.0271-0.20042-0.0271h-0.11482zm-0.066807 1.3027q-0.24218 0-0.36118 0.21295-0.098123 0.17328-0.098123 0.55116 0 0.31525 0.054281 0.47183 0.054281 0.15449 0.15449 0.23174 0.1023 0.0752 0.23174 0.0752 0.21295 0 0.34239-0.18164 0.17328-0.238 0.17328-0.60961 0-0.34448-0.15032-0.54699-0.15032-0.2046-0.34656-0.2046z"/>
<path d="m12.837 168.95v0.19416h-1.3654v-0.19416h0.16911q0.10439 0 0.1524-0.0397 0.04802-0.0418 0.04802-0.11065v-1.1566q0-0.13988-0.06472-0.2046-0.06263-0.0647-0.17746-0.0647h-0.11065v-0.18372l0.83509-0.0438v0.63675q0.07307-0.31942 0.2547-0.49061 0.18163-0.1712 0.4092-0.1712 0.19416 0 0.3069 0.10439 0.11274 0.1023 0.11274 0.26514 0 0.13988-0.07933 0.22757-0.07725 0.0856-0.18998 0.0856-0.10021 0-0.17328-0.0752-0.07098-0.0752-0.07098-0.19207 0-0.0647 0.03549-0.1357 0.01879-0.0397 0.01879-0.0564 0-0.0292-0.01461-0.0418-0.01253-0.0146-0.04176-0.0146-0.07516 0-0.16493 0.0877-0.13779 0.1357-0.23174 0.42381-0.09395 0.28602-0.09395 0.5783v0.42172q0 0.0731 0.03967 0.11274 0.03967 0.0376 0.11065 0.0376z"/>
<path d="m15.966 168.9 0.08769 0.15031q-0.12735 0.0877-0.22965 0.12109-0.10021 0.0334-0.2213 0.0334-0.17954 0-0.29019-0.0752-0.11065-0.0772-0.20251-0.28811-0.21295 0.21086-0.38206 0.28811-0.16911 0.0752-0.38205 0.0752-0.29437 0-0.4593-0.1357-0.16493-0.1357-0.16493-0.34447 0-0.31525 0.30481-0.50523 0.24426-0.15032 1.071-0.30064v-0.28184q0-0.16702-0.11065-0.2714-0.11065-0.10648-0.29646-0.10648-0.14196 0-0.25053 0.0606-0.07307 0.0397-0.07307 0.0793 0 0.0209 0.02714 0.0626 0.05846 0.094 0.05846 0.18581 0 0.11691-0.07725 0.18998-0.07725 0.071-0.20668 0.071-0.13779 0-0.2213-0.0773-0.08351-0.0793-0.08351-0.20251 0-0.20251 0.21921-0.357 0.27349-0.19207 0.6806-0.19207 0.3069 0 0.5449 0.096 0.1524 0.0605 0.24635 0.21295 0.09603 0.15032 0.09603 0.37162v0.99167q0 0.11274 0.04176 0.16284 0.04175 0.0501 0.11482 0.0501 0.06054 0 0.15867-0.0647zm-0.8685-0.7996q-0.44677 0.0605-0.60544 0.18789-0.15658 0.12527-0.15658 0.33195 0 0.14614 0.07307 0.22548 0.07516 0.0772 0.20877 0.0772 0.20668 0 0.34239-0.14823 0.13779-0.14823 0.13779-0.40502z"/>
<path d="m16.718 168.5q0.14614 0 0.24844 0.10439 0.10439 0.10438 0.10439 0.25052 0 0.14823-0.10439 0.25262-0.1023 0.10438-0.24844 0.10438-0.14405 0-0.24844-0.10438-0.1023-0.10439-0.1023-0.25262 0-0.14614 0.1023-0.25052 0.10439-0.10439 0.24844-0.10439z"/>
<path d="m19.127 167.19q0.25053-0.29855 0.49688-0.29855 0.12526 0 0.20042 0.0731 0.07516 0.0731 0.07516 0.18789 0 0.1023-0.05846 0.16493-0.05637 0.0606-0.14405 0.0606-0.12318 0-0.17746-0.13153-0.0334-0.0793-0.07933-0.0793-0.05846 0-0.15867 0.12318 0.22547 0.22756 0.22547 0.48018 0 0.19624-0.10647 0.35491t-0.3236 0.25262q-0.21504 0.0939-0.53863 0.0939l-0.22339-4e-3q-0.24844 0-0.33612 0.0501-0.08977 0.0501-0.08977 0.12944 0 0.0689 0.05637 0.1023 0.07307 0.0459 0.23382 0.0459l0.19207-6e-3q0.31107-0.0167 0.45721-0.0167 0.48644 0 0.67642 0.13779 0.18998 0.13779 0.18998 0.38205 0 0.29228-0.21921 0.46974-0.26723 0.21712-0.93321 0.21712-0.56786 0-0.79751-0.13152-0.22965-0.13153-0.22965-0.30899 0-0.11065 0.09812-0.19415t0.41546-0.15658q-0.20668-0.0418-0.31107-0.14197-0.10439-0.10021-0.10439-0.25888 0-0.14405 0.07725-0.24426 0.07933-0.10021 0.28184-0.17746-0.19207-0.10439-0.29019-0.24844-0.09603-0.14405-0.09603-0.32777 0-0.19834 0.10647-0.357 0.10647-0.16076 0.32777-0.25471 0.2213-0.096 0.53863-0.096 0.15032 0 0.29228 0.0271 0.14196 0.0271 0.27558 0.0814zm-0.58039 0.0752q-0.14405 0-0.24844 0.1357-0.1023 0.13361-0.1023 0.38623 0 0.24426 0.1023 0.3737t0.25053 0.12944q0.14614 0 0.25053-0.13361 0.10439-0.13362 0.10439-0.37579 0-0.24427-0.10439-0.37997-0.10439-0.1357-0.25262-0.1357zm0.81839 2.2192q0-0.12317-0.13779-0.17954-0.09395-0.0397-0.41755-0.0397-0.58456 0-0.75367 0.0793-0.1691 0.0793-0.1691 0.19833 0 0.11274 0.13153 0.18789 0.13153 0.0773 0.49897 0.0773 0.47809 0 0.68895-0.11065 0.15867-0.0856 0.15867-0.21295z"/>
<path d="m20.699 166.06q0.13988 0 0.24009 0.10021 0.10021 0.0981 0.10021 0.24009 0 0.14196-0.10021 0.24217-0.10021 0.0981-0.24009 0.0981-0.14197 0-0.24218-0.10021-0.10021-0.10022-0.10021-0.24009 0-0.14197 0.10021-0.24009 0.10021-0.10021 0.24218-0.10021zm-0.53655 1.1274 0.8685-0.0397v1.6598q0 0.0668 0.04175 0.10438 0.04384 0.0355 0.13153 0.0355h0.13153v0.19416h-1.1733v-0.19416h0.12944q0.10439 0 0.14614-0.048 0.04384-0.048 0.04384-0.16702v-1.1316q0-0.10647-0.06263-0.16493-0.06054-0.0585-0.16911-0.0585h-0.08768z"/>
<path d="m22.319 166.39h0.1879v0.80378h0.64511v0.22547h-0.64511v1.2422q0 0.12318 0.06263 0.19207 0.06263 0.0668 0.16493 0.0668 0.29228 0 0.30898-0.5449h0.1879q-0.0063 0.2902-0.09186 0.46765-0.0856 0.17537-0.24635 0.27141-0.15867 0.096-0.35909 0.096-0.17537 0-0.30481-0.071-0.12735-0.071-0.2046-0.21086-0.07516-0.14196-0.07516-0.30689v-1.2025h-0.34656v-0.19207q0.31733-0.0418 0.49479-0.24426 0.17746-0.20251 0.2213-0.59292z"/>
<path d="m23.486 166.06 0.92278-0.0459v1.5199q0.21086-0.25888 0.38832-0.35283 0.17746-0.096 0.38832-0.096 0.29228 0 0.44677 0.17745 0.17537 0.2046 0.17537 0.57831v0.92695q0 0.096 0.04384 0.14196 0.04384 0.0438 0.12735 0.0438h0.1357v0.19416h-1.1796v-0.19416h0.12735q0.10647 0 0.14405-0.0397 0.05219-0.0522 0.05219-0.14614v-0.91025q0-0.19625-0.10647-0.31107-0.10439-0.11692-0.26305-0.11692-0.19625 0-0.33821 0.16493-0.14196 0.16493-0.14196 0.44887v0.72444q0 0.0939 0.04384 0.13987 0.04593 0.0459 0.12944 0.0459h0.14197v0.19416h-1.2151v-0.19416h0.16911q0.08977 0 0.1357-0.048 0.04593-0.048 0.04593-0.13779v-2.2986q0-0.10021-0.06472-0.15658-0.06263-0.0585-0.16911-0.0585h-0.13988z"/>
<path d="m26.434 167.19 0.87267-0.0501v1.3028q0 0.18163 0.09812 0.2881 0.09812 0.10439 0.2547 0.10439 0.2213 0 0.35283-0.17537 0.13361-0.17537 0.13361-0.41128v-0.63885q0-0.11273-0.06263-0.17119-0.06263-0.0585-0.17119-0.0585h-0.09604v-0.18998l0.88102-0.0501v1.5825q0 0.10648 0.06472 0.16702 0.06681 0.0605 0.17537 0.0605h0.08977v0.19416l-0.80795 0.0251q-0.05011-0.20878-0.05846-0.44678-0.20251 0.25679-0.3904 0.36118-0.1879 0.10439-0.3904 0.10439-0.20042 0-0.33821-0.0835-0.1357-0.0835-0.21712-0.26515-0.08142-0.18163-0.08142-0.44051v-0.77663q0-0.12735-0.06472-0.18163-0.06472-0.0564-0.24426-0.0606z"/>
<path d="m29.309 166.06 0.89772-0.0438v1.4468q0.15658-0.20251 0.3236-0.28811 0.16911-0.0877 0.36953-0.0877 0.36744 0 0.60962 0.27975 0.24426 0.27976 0.24426 0.75576 0 0.50314-0.28184 0.80795-0.27976 0.30272-0.71192 0.30272-0.22756 0-0.41128-0.0898-0.18163-0.0898-0.32151-0.26723-0.09812 0.14614-0.33612 0.357l-0.119-0.0647q0.07933-0.38414 0.07933-0.77872v-1.8038q0-0.15866-0.0334-0.22547-0.03132-0.0668-0.0856-0.0919-0.03967-0.0188-0.22339-0.0188zm1.3382 1.3257q-0.12109 0-0.22756 0.0835-0.10439 0.0835-0.15867 0.24218-0.05428 0.15867-0.05428 0.49479 0 0.45721 0.119 0.64302 0.119 0.18372 0.3069 0.18372 0.19416 0 0.33404-0.2046 0.13988-0.20459 0.13988-0.6284t-0.13362-0.61797q-0.13153-0.19625-0.32568-0.19625z"/>
<path d="m32.56 168.5q0.14614 0 0.24844 0.10439 0.10439 0.10438 0.10439 0.25052 0 0.14823-0.10439 0.25262-0.1023 0.10438-0.24844 0.10438-0.14405 0-0.24844-0.10438-0.1023-0.10439-0.1023-0.25262 0-0.14614 0.1023-0.25052 0.10439-0.10439 0.24844-0.10439z"/>
<path d="m33.927 166.06q0.13988 0 0.24009 0.10021 0.10021 0.0981 0.10021 0.24009 0 0.14196-0.10021 0.24217-0.10021 0.0981-0.24009 0.0981-0.14196 0-0.24218-0.10021-0.10021-0.10022-0.10021-0.24009 0-0.14197 0.10021-0.24009 0.10021-0.10021 0.24218-0.10021zm-0.53655 1.1274 0.8685-0.0397v1.6598q0 0.0668 0.04175 0.10438 0.04384 0.0355 0.13153 0.0355h0.13153v0.19416h-1.1733v-0.19416h0.12944q0.10439 0 0.14614-0.048 0.04384-0.048 0.04384-0.16702v-1.1316q0-0.10647-0.06263-0.16493-0.06054-0.0585-0.16911-0.0585h-0.08769z"/>
<path d="m36.027 167.08q0.32777 0 0.60127 0.14196 0.27558 0.14197 0.40919 0.37162 0.13362 0.22756 0.13362 0.54907 0 0.51358-0.35074 0.78916-0.34865 0.27349-0.79125 0.27349-0.31316 0-0.57412-0.13987-0.25888-0.14197-0.39876-0.37997-0.13988-0.24009-0.13988-0.54072 0-0.45304 0.31525-0.75785 0.31733-0.30689 0.79542-0.30689zm0.01253 0.19833q-0.21712 0-0.34656 0.19207-0.12735 0.18999-0.12735 0.67016 0 0.49897 0.12735 0.68895 0.12735 0.1879 0.34448 0.1879 0.2213 0 0.357-0.19416 0.1357-0.19416 0.1357-0.67016 0-0.48853-0.13362-0.6806-0.13362-0.19416-0.357-0.19416z"/>
<path d="m38.618 166.06-0.94574 3.0878h-0.39458l0.94574-3.0878z"/>
<path d="m39.347 166.39h0.1879v0.80378h0.64511v0.22547h-0.64511v1.2422q0 0.12318 0.06263 0.19207 0.06263 0.0668 0.16493 0.0668 0.29228 0 0.30898-0.5449h0.1879q-0.0063 0.2902-0.09186 0.46765-0.0856 0.17537-0.24635 0.27141-0.15867 0.096-0.35909 0.096-0.17537 0-0.30481-0.071-0.12735-0.071-0.2046-0.21086-0.07516-0.14196-0.07516-0.30689v-1.2025h-0.34656v-0.19207q0.31734-0.0418 0.49479-0.24426 0.17746-0.20251 0.2213-0.59292z"/>
<path d="m41.134 166.06q0.13988 0 0.24009 0.10021 0.10021 0.0981 0.10021 0.24009 0 0.14196-0.10021 0.24217-0.10021 0.0981-0.24009 0.0981-0.14197 0-0.24218-0.10021-0.10021-0.10022-0.10021-0.24009 0-0.14197 0.10021-0.24009 0.10021-0.10021 0.24218-0.10021zm-0.53655 1.1274 0.8685-0.0397v1.6598q0 0.0668 0.04175 0.10438 0.04384 0.0355 0.13153 0.0355h0.13153v0.19416h-1.1733v-0.19416h0.12944q0.10439 0 0.14614-0.048 0.04384-0.048 0.04384-0.16702v-1.1316q0-0.10647-0.06263-0.16493-0.06054-0.0585-0.16911-0.0585h-0.08768z"/>
<path d="m43.338 166.05 0.97079-0.0376v2.5554q0 0.19625 0.02505 0.26514 0.02714 0.0668 0.08142 0.0981 0.05428 0.0292 0.20877 0.0292v0.1858l-0.80378 0.0251-0.05846-0.37997q-0.18372 0.24009-0.33404 0.31942-0.14823 0.0793-0.37162 0.0793-0.40084 0-0.65346-0.26932t-0.25262-0.73071q0-0.5094 0.26723-0.80795 0.26723-0.29854 0.6639-0.29854 0.21295 0 0.37788 0.094 0.16702 0.0919 0.30272 0.30063v-0.88937q0-0.15867-0.02923-0.22757t-0.07933-0.0939q-0.04802-0.0271-0.20042-0.0271h-0.11482zm-0.06681 1.3027q-0.24218 0-0.36118 0.21295-0.09812 0.17328-0.09812 0.55116 0 0.31525 0.05428 0.47183 0.05428 0.15449 0.15449 0.23174 0.1023 0.0752 0.23174 0.0752 0.21295 0 0.34239-0.18164 0.17328-0.238 0.17328-0.60961 0-0.34448-0.15032-0.54699-0.15032-0.2046-0.34656-0.2046z"/>
<path d="m44.944 167.19h1.1545v0.17954h-0.11065q-0.10021 0-0.14196 0.0292-0.04176 0.0292-0.04176 0.0752 0 0.0522 0.03549 0.119l0.48644 0.94783 0.4092-0.85806q0.0334-0.071 0.0334-0.12944 0-0.0835-0.06263-0.13361-0.06263-0.0501-0.18372-0.0501h-0.06054v-0.17954h0.8497v0.17954q-0.12526 4e-3 -0.19833 0.0564-0.07307 0.0501-0.12944 0.16702l-0.77872 1.6305q-0.19833 0.41754-0.41963 0.60753-0.16911 0.14196-0.37997 0.14196-0.21921 0-0.34656-0.10647-0.12735-0.10648-0.12735-0.26306 0-0.11691 0.07307-0.19207 0.07516-0.0731 0.1879-0.0731 0.11482 0 0.1879 0.071 0.07307 0.0731 0.07307 0.18164 0 0.0355-0.01461 0.0898-0.0084 0.0313-0.0084 0.048 0 0.0501 0.05428 0.0501 0.09604 0 0.24009-0.15658 0.14405-0.15449 0.31525-0.49479l-0.833-1.6034q-0.04593-0.0898-0.09395-0.12109-0.04802-0.0334-0.11482-0.0334h-0.05428z"/>
<path d="m49.522 168.44 0.16284 0.0772q-0.12735 0.32986-0.39249 0.51149-0.26514 0.17954-0.63049 0.17954-0.49479 0-0.77246-0.26931-0.27767-0.27141-0.27767-0.72862 0-0.4927 0.32777-0.81004 0.32986-0.31733 0.87267-0.31733 0.3904 0 0.59709 0.15867 0.20669 0.15657 0.20669 0.37996 0 0.16284-0.09186 0.25888-0.08977 0.094-0.238 0.094-0.12944 0-0.20668-0.0731-0.07516-0.0752-0.07516-0.19416 0-0.1023 0.08351-0.238 0.03549-0.0564 0.03549-0.0793 0-0.0418-0.06472-0.0752-0.09186-0.0522-0.24009-0.0522-0.27558 0-0.39876 0.17537-0.16493 0.23174-0.16493 0.70148t0.16284 0.66181q0.16493 0.18998 0.42381 0.18998 0.2046 0 0.38414-0.1357 0.18163-0.13779 0.29646-0.41546z"/>
<path d="m52.023 168.18h-1.3716q0.0063 0.41129 0.16493 0.60753 0.16076 0.19416 0.41128 0.19416 0.17954 0 0.3403-0.10021t0.32986-0.36327l0.1524 0.094q-0.17746 0.31316-0.40711 0.44886-0.22756 0.13362-0.55742 0.13362-0.48018 0-0.77664-0.29228-0.29646-0.29229-0.29646-0.7495t0.29854-0.76411q0.29854-0.30689 0.73279-0.30689 0.30063 0 0.51567 0.12317 0.21712 0.12318 0.33612 0.36118 0.12109 0.23591 0.12735 0.61379zm-1.3716-0.18789h0.65346q0.09186 0 0.13153-0.0459 0.03967-0.0459 0.03967-0.16702 0-0.24218-0.11065-0.3737-0.11065-0.13362-0.28184-0.13362-0.20251 0-0.31107 0.17955-0.10647 0.17954-0.12109 0.54072z"/>
<path d="m52.403 166.06 0.91442-0.0459v2.7788q0 0.0752 0.04802 0.119 0.04802 0.0417 0.13779 0.0417h0.12318v0.19416h-1.1754v-0.19416h0.13361q0.09186 0 0.1357-0.048 0.04593-0.0501 0.04593-0.15032v-2.2819q0-0.10647-0.05846-0.16284-0.05846-0.0585-0.15867-0.0585h-0.14614z"/>
<path d="m53.907 166.06 0.91442-0.0459v2.7788q0 0.0752 0.04802 0.119 0.04802 0.0417 0.13779 0.0417h0.12318v0.19416h-1.1754v-0.19416h0.13362q0.09186 0 0.1357-0.048 0.04593-0.0501 0.04593-0.15032v-2.2819q0-0.10647-0.05846-0.16284-0.05846-0.0585-0.15867-0.0585h-0.14614z"/>
<path d="m56.806 167.25 0.13779-0.16493h0.12735l0.04175 0.66807h-0.16911q-0.13361-0.26514-0.29437-0.37162-0.15867-0.10856-0.38623-0.10856-0.19625 0-0.29854 0.0752t-0.1023 0.18998q0 0.11274 0.07933 0.1712 0.07933 0.0605 0.43425 0.13152 0.32151 0.0647 0.42798 0.10857 0.20251 0.0814 0.31525 0.24217 0.11482 0.16076 0.11482 0.37579 0 0.27141-0.21921 0.45721-0.21712 0.18372-0.57204 0.18372-0.17119 0-0.31107-0.0418-0.13779-0.0397-0.28811-0.14197l-0.14823 0.17537h-0.15867l-0.03758-0.73905h0.17328q0.2213 0.55951 0.75993 0.55951 0.2213 0 0.33821-0.0856t0.11691-0.20459q0-0.10857-0.07307-0.16494-0.07307-0.0564-0.38832-0.12108-0.3403-0.0689-0.46348-0.119-0.21086-0.0814-0.31733-0.22548-0.10647-0.14614-0.10647-0.35074 0-0.29228 0.19416-0.47809 0.19416-0.18789 0.51984-0.18789 0.15867 0 0.28393 0.0376 0.12735 0.0376 0.26932 0.12944z"/>
<path d="m58.66 166.06-0.94574 3.0878h-0.39458l0.94574-3.0878z"/>
</g>
<g transform="translate(-46.656 -40.474)" stroke="#000" stroke-linejoin="round" stroke-width=".165">
<path d="m147.02 112.9 7.3612 4.25v8.5l-7.3612-4.25z" fill="#80623c"/>
<path d="m154.39 117.15 7.3612-4.25v8.5l-7.3612 4.25z" fill="#c0935c"/>
<path d="m147.02 112.9 7.3612-4.25 7.3612 4.25-7.3612 4.25z" fill="#ffc37a"/>
</g>
<g transform="matrix(1 -.57735 .86603 .5 0 0)" fill="#fc1d05" fill-opacity=".99608" stroke-width=".22622" aria-label="xlsx">
<path d="m-26.597 91.336h0.81592v0.12813h-0.05891q-0.05449 0-0.07511 0.01326-0.01915 0.01326-0.01915 0.03682 0 0.02209 0.01473 0.03977l0.21503 0.27394 0.17968-0.19146q0.05007-0.05155 0.05007-0.09131 0-0.03682-0.02945-0.05597-0.03829-0.02504-0.11488-0.02504h-0.03093v-0.12813h0.63329v0.12813q-0.09426 0.0074-0.15317 0.03535-0.05744 0.02798-0.13402 0.10751l-0.31517 0.32548 0.41974 0.53167q0.05597 0.07069 0.1193 0.0972 0.04124 0.0162 0.13402 0.0162v0.13697h-0.87188v-0.13697h0.081q0.05155 0 0.07364-0.01326 0.02209-0.01473 0.02209-0.0324 0-0.02209-0.02209-0.05155l-0.22239-0.28572-0.20913 0.2165q-0.03093 0.0324-0.03093 0.06922 0 0.04271 0.03093 0.07069 0.0324 0.02651 0.08247 0.02651h0.06628v0.13697h-0.6657v-0.13697h0.05302q0.11635 0 0.23859-0.12519l0.35199-0.36083-0.40501-0.50664q-0.0648-0.081-0.10015-0.09868-0.03535-0.01915-0.12371-0.02209z"/>
<path d="m-24.762 90.536 0.64508-0.0324v1.9603q0 0.05302 0.03387 0.08395 0.03387 0.02946 0.0972 0.02946h0.08689v0.13697h-0.82917v-0.13697h0.09426q0.0648 0 0.09573-0.03387 0.0324-0.03535 0.0324-0.10604v-1.6097q0-0.07511-0.04124-0.11488-0.04124-0.04124-0.11193-0.04124h-0.10309z"/>
<path d="m-22.716 91.377 0.0972-0.11635h0.08984l0.02945 0.47129h-0.1193q-0.09426-0.18704-0.20766-0.26215-0.11193-0.07658-0.27246-0.07658-0.13844 0-0.21061 0.05302-0.07217 0.05302-0.07217 0.13402 0 0.07953 0.05597 0.12077 0.05597 0.04271 0.30634 0.09278 0.22681 0.04566 0.30192 0.07658 0.14286 0.05744 0.22239 0.17084 0.081 0.1134 0.081 0.2651 0 0.19146-0.15464 0.32254-0.15317 0.1296-0.40354 0.1296-0.12077 0-0.21944-0.02946-0.0972-0.02798-0.20324-0.10015l-0.10457 0.12371h-0.11193l-0.02651-0.52136h0.12224q0.15612 0.3947 0.53609 0.3947 0.15611 0 0.23859-0.06038 0.08247-0.06038 0.08247-0.14433 0-0.07658-0.05155-0.11635-0.05155-0.03977-0.27394-0.08542-0.24006-0.0486-0.32696-0.08395-0.14875-0.05744-0.22386-0.15906-0.07511-0.10309-0.07511-0.24743 0-0.20619 0.13697-0.33727 0.13697-0.13255 0.36672-0.13255 0.11193 0 0.2003 0.02651 0.08984 0.02651 0.18999 0.09131z"/>
<path d="m-22.184 91.336h0.81592v0.12813h-0.05891q-0.05449 0-0.07511 0.01326-0.01915 0.01326-0.01915 0.03682 0 0.02209 0.01473 0.03977l0.21502 0.27394 0.17968-0.19146q0.05007-0.05155 0.05007-0.09131 0-0.03682-0.02946-0.05597-0.03829-0.02504-0.11488-0.02504h-0.03093v-0.12813h0.6333v0.12813q-0.09426 0.0074-0.15317 0.03535-0.05744 0.02798-0.13402 0.10751l-0.31517 0.32548 0.41974 0.53167q0.05597 0.07069 0.1193 0.0972 0.04124 0.0162 0.13402 0.0162v0.13697h-0.87188v-0.13697h0.081q0.05155 0 0.07364-0.01326 0.02209-0.01473 0.02209-0.0324 0-0.02209-0.02209-0.05155l-0.22239-0.28572-0.20914 0.2165q-0.03093 0.0324-0.03093 0.06922 0 0.04271 0.03093 0.07069 0.0324 0.02651 0.08248 0.02651h0.06628v0.13697h-0.6657v-0.13697h0.05302q0.11635 0 0.23859-0.12519l0.35199-0.36083-0.40501-0.50664q-0.0648-0.081-0.10015-0.09868-0.03535-0.01915-0.12371-0.02209z"/>
</g>
<g transform="matrix(1 -.57735 .86603 .5 0 0)" fill="#fc1d05" fill-opacity=".99608" stroke-width=".22622" aria-label="docx">
<path d="m-18.933 149.93 0.68484-0.0265v1.8027q0 0.13844 0.01767 0.18704 0.01915 0.0471 0.05744 0.0692 0.03829 0.0206 0.14728 0.0206v0.13108l-0.56702 0.0177-0.04124-0.26804q-0.1296 0.16937-0.23564 0.22533-0.10457 0.056-0.26215 0.056-0.28277 0-0.46098-0.18999t-0.17821-0.51547q0-0.35936 0.18852-0.56997 0.18852-0.2106 0.46834-0.2106 0.15022 0 0.26657 0.0663 0.11782 0.0648 0.21355 0.21208v-0.6274q0-0.11193-0.02062-0.16054-0.02062-0.0486-0.05597-0.0663-0.03387-0.0191-0.14139-0.0191h-0.081zm-0.04713 0.91901q-0.17084 0-0.25479 0.15023-0.06922 0.12224-0.06922 0.38881 0 0.22239 0.03829 0.33285 0.03829 0.10898 0.10898 0.16348 0.07217 0.053 0.16348 0.053 0.15022 0 0.24154-0.12813 0.12224-0.1679 0.12224-0.43006 0-0.243-0.10604-0.38586-0.10604-0.14434-0.24448-0.14434z"/>
<path d="m-16.992 150.66q0.23123 0 0.42416 0.10015 0.19441 0.10014 0.28866 0.26215 0.09426 0.16053 0.09426 0.38734 0 0.3623-0.24743 0.55671-0.24595 0.19293-0.55818 0.19293-0.22092 0-0.40501-0.0987-0.18262-0.10015-0.2813-0.26805-0.09868-0.16937-0.09868-0.38145 0-0.31959 0.22239-0.53462 0.22386-0.21649 0.56113-0.21649zm0.0088 0.13991q-0.15317 0-0.24448 0.1355-0.08984 0.13402-0.08984 0.47276 0 0.35199 0.08984 0.48601 0.08984 0.13255 0.24301 0.13255 0.15612 0 0.25185-0.13696 0.09573-0.13697 0.09573-0.47277 0-0.34463-0.09426-0.48012-0.09426-0.13697-0.25184-0.13697z"/>
<path d="m-14.57 151.61 0.11488 0.0545q-0.08984 0.2327-0.27688 0.36084-0.18704 0.12665-0.44478 0.12665-0.34905 0-0.54493-0.18998-0.19588-0.19147-0.19588-0.514 0-0.34758 0.23123-0.57144 0.2327-0.22386 0.61562-0.22386 0.27541 0 0.42121 0.11193 0.1458 0.11046 0.1458 0.26804 0 0.11488-0.0648 0.18263-0.06333 0.0663-0.1679 0.0663-0.09131 0-0.1458-0.0515-0.05302-0.053-0.05302-0.13697 0-0.0722 0.05891-0.1679 0.02504-0.0398 0.02504-0.056 0-0.0294-0.04566-0.053-0.0648-0.0368-0.16937-0.0368-0.19441 0-0.2813 0.12371-0.11635 0.16348-0.11635 0.49485 0 0.33138 0.11488 0.46687 0.11635 0.13403 0.29897 0.13403 0.14433 0 0.27099-0.0957 0.12813-0.0972 0.20913-0.29308z"/>
<path d="m-14.261 150.73h0.81592v0.12813h-0.05891q-0.05449 0-0.07511 0.0133-0.01915 0.0132-0.01915 0.0368 0 0.0221 0.01473 0.0398l0.21503 0.27394 0.17968-0.19146q0.05007-0.0515 0.05007-0.0913 0-0.0368-0.02946-0.056-0.03829-0.025-0.11488-0.025h-0.03093v-0.12813h0.63329v0.12813q-0.09426 7e-3 -0.15317 0.0353-0.05744 0.028-0.13402 0.10751l-0.31518 0.32549 0.41974 0.53167q0.05597 0.0707 0.1193 0.0972 0.04124 0.0162 0.13402 0.0162v0.13697h-0.87188v-0.13697h0.081q0.05155 0 0.07364-0.0132 0.02209-0.0147 0.02209-0.0324 0-0.0221-0.02209-0.0515l-0.22239-0.28572-0.20913 0.2165q-0.03093 0.0324-0.03093 0.0692 0 0.0427 0.03093 0.0707 0.0324 0.0265 0.08247 0.0265h0.06628v0.13697h-0.6657v-0.13697h0.05302q0.11635 0 0.23859-0.12518l0.35199-0.36083-0.40501-0.50664q-0.0648-0.081-0.10015-0.0987-0.03535-0.0191-0.12371-0.0221z"/>
</g>
<g transform="matrix(1 -.57735 .86603 .5 0 0)" fill="#fc1d05" fill-opacity=".99608" stroke-width=".22622" aria-label="csv">
<path d="m-46.616 168.63 0.11488 0.0545q-0.08984 0.2327-0.27688 0.36083-0.18704 0.12666-0.44478 0.12666-0.34905 0-0.54493-0.18999-0.19588-0.19146-0.19588-0.514 0-0.34758 0.23123-0.57144 0.2327-0.22386 0.61562-0.22386 0.27541 0 0.42122 0.11193 0.1458 0.11046 0.1458 0.26805 0 0.11487-0.0648 0.18262-0.06333 0.0663-0.1679 0.0663-0.09131 0-0.1458-0.0516-0.05302-0.053-0.05302-0.13697 0-0.0722 0.05891-0.1679 0.02504-0.0398 0.02504-0.056 0-0.0295-0.04566-0.053-0.0648-0.0368-0.16937-0.0368-0.19441 0-0.2813 0.12371-0.11635 0.16348-0.11635 0.49485 0 0.33138 0.11488 0.46688 0.11635 0.13402 0.29897 0.13402 0.14433 0 0.27099-0.0957 0.12813-0.0972 0.20914-0.29309z"/>
<path d="m-45.331 167.79 0.0972-0.11635h0.08984l0.02946 0.47129h-0.1193q-0.09426-0.18704-0.20766-0.26215-0.11193-0.0766-0.27246-0.0766-0.13844 0-0.21061 0.053-0.07217 0.053-0.07217 0.13402 0 0.0795 0.05597 0.12077 0.05597 0.0427 0.30634 0.0928 0.22681 0.0456 0.30192 0.0766 0.14286 0.0574 0.22239 0.17084 0.081 0.11341 0.081 0.2651 0 0.19147-0.15464 0.32254-0.15317 0.12961-0.40354 0.12961-0.12077 0-0.21944-0.0295-0.0972-0.028-0.20324-0.10015l-0.10457 0.12372h-0.11193l-0.02651-0.52137h0.12224q0.15611 0.39471 0.53609 0.39471 0.15611 0 0.23859-0.0604 0.08248-0.0604 0.08248-0.14433 0-0.0766-0.05155-0.11635-0.05155-0.0398-0.27394-0.0854-0.24006-0.0486-0.32696-0.084-0.14875-0.0574-0.22386-0.15906-0.07511-0.10309-0.07511-0.24742 0-0.20619 0.13697-0.33727 0.13697-0.13255 0.36672-0.13255 0.11193 0 0.2003 0.0265 0.08984 0.0265 0.18999 0.0913z"/>
<path d="m-44.852 167.75h0.82328v0.13108h-0.06775q-0.081 0-0.11046 0.0206-0.02945 0.0206-0.02945 0.0589 0 0.0412 0.0324 0.10015l0.35347 0.65539 0.30781-0.61268q0.02356-0.0457 0.02356-0.0913 0-0.12519-0.20914-0.13108v-0.13108h0.60237v0.13108q-0.08247 9e-3 -0.12666 0.0398-0.04418 0.0294-0.07953 0.0987l-0.57733 1.1576h-0.10604l-0.63624-1.1709q-0.04271-0.0781-0.07658-0.10162-0.0324-0.0236-0.08689-0.0236h-0.03682z"/>
</g>
<g transform="matrix(1 -.57735 .86603 .5 0 0)" fill="#fc1d05" fill-opacity=".99608" stroke-width=".22622" aria-label="html">
<path d="m-78.537 166.84 0.65097-0.0324v1.0722q0.14875-0.18262 0.27394-0.2489 0.12519-0.0677 0.27394-0.0677 0.20619 0 0.31517 0.12519 0.12371 0.14433 0.12371 0.40796v0.65391q0 0.0677 0.03093 0.10015 0.03093 0.0309 0.08984 0.0309h0.09573v0.13697h-0.83212v-0.13697h0.08984q0.07511 0 0.10162-0.028 0.03682-0.0368 0.03682-0.1031v-0.64213q0-0.13844-0.07511-0.21944-0.07364-0.0825-0.18557-0.0825-0.13844 0-0.23859 0.11635t-0.10015 0.31665v0.51105q0 0.0663 0.03093 0.0987 0.0324 0.0324 0.09131 0.0324h0.10015v0.13697h-0.85716v-0.13697h0.1193q0.06333 0 0.09573-0.0339t0.0324-0.0972v-1.6215q0-0.0707-0.04566-0.11045-0.04418-0.0412-0.1193-0.0412h-0.09868z"/>
<path d="m-76.008 167.07h0.13255v0.56702h0.45509v0.15906h-0.45509v0.8763q0 0.0869 0.04418 0.1355 0.04418 0.0471 0.11635 0.0471 0.20619 0 0.21797-0.3844h0.13255q-0.0044 0.20472-0.0648 0.3299-0.06038 0.12372-0.17379 0.19146-0.11193 0.0678-0.25332 0.0678-0.12371 0-0.21503-0.0501-0.08984-0.0501-0.14433-0.14875-0.05302-0.10015-0.05302-0.2165v-0.84832h-0.24448v-0.1355q0.22386-0.0294 0.34905-0.17231 0.12519-0.14286 0.15612-0.41827z"/>
<path d="m-72.397 168.88v0.13697h-0.82917v-0.13697h0.08542q0.07806 0 0.10898-0.0309 0.0324-0.0309 0.0324-0.0957v-0.59942q0-0.16642-0.06922-0.24595-0.06775-0.0795-0.18999-0.0795-0.10015 0-0.17232 0.0456-0.07069 0.0442-0.12224 0.15023-0.05155 0.10456-0.05155 0.20619v0.5405q0 0.053 0.02945 0.081 0.02946 0.028 0.07953 0.028h0.1134v0.13697h-0.84685v-0.13697h0.09426q0.07658 0 0.10309-0.025 0.03387-0.0324 0.03387-0.0928v-0.62151q0-0.14875-0.07364-0.23123-0.07364-0.0825-0.18704-0.0825-0.08837 0-0.16495 0.0457-0.07511 0.0457-0.1296 0.14139-0.05302 0.0957-0.05302 0.17526v0.54051q0 0.0825 0.02946 0.11193 0.03977 0.0383 0.11193 0.0383h0.081v0.13697h-0.85127v-0.13697h0.0972q0.07806 0 0.10751-0.028 0.03093-0.0295 0.03093-0.0987v-0.82917q0-0.056-0.02209-0.0884-0.02062-0.0339-0.06628-0.0515-0.03387-0.0132-0.13844-0.0132v-0.13255l0.56849-0.0309q0.0324 0.14139 0.04271 0.30486 0.14139-0.17967 0.27099-0.25037 0.13108-0.0722 0.28425-0.0722 0.16495 0 0.27246 0.0839 0.10899 0.0825 0.16053 0.25038 0.13991-0.1841 0.27688-0.26068 0.13844-0.0766 0.28866-0.0766 0.20913 0 0.3299 0.13108 0.12077 0.13255 0.12077 0.37556v0.6598q0 0.0678 0.02946 0.0972 0.03093 0.0295 0.09426 0.0295z"/>
<path d="m-72.282 166.84 0.64508-0.0324v1.9603q0 0.053 0.03387 0.0839 0.03387 0.0295 0.0972 0.0295h0.08689v0.13697h-0.82917v-0.13697h0.09426q0.0648 0 0.09573-0.0339 0.0324-0.0353 0.0324-0.10604v-1.6098q0-0.0751-0.04124-0.11488-0.04124-0.0412-0.11193-0.0412h-0.1031z"/>
</g>
<g transform="matrix(1 -.57735 .86603 .5 0 0)" fill="#fc1d05" fill-opacity=".99608" stroke-width=".22622" aria-label="pdf">
<path d="m-77.843 142.23 0.56113-0.0353q0.03387 0.13549 0.03977 0.26951 0.08689-0.13991 0.22239-0.21649 0.13697-0.0781 0.30339-0.0781 0.26657 0 0.43152 0.18999t0.16495 0.53756q0 0.24154-0.07953 0.40943-0.07953 0.1679-0.22239 0.25332-0.14139 0.0854-0.33138 0.0854-0.1517 0-0.26952-0.0677-0.11782-0.0692-0.21944-0.22091v0.49338q0 0.0972 0.01473 0.12371 0.01473 0.028 0.05449 0.0412 0.04124 0.0147 0.162 0.0162v0.14139h-0.83212v-0.14139h0.04418q0.07806 0 0.10457-0.0147 0.02651-0.0132 0.04124-0.0471 0.01031-0.0236 0.01031-0.11929v-1.3049q0-0.0957-0.01473-0.12666-0.01473-0.0324-0.04566-0.0457-0.02946-0.0147-0.13991-0.0191zm0.94258 0.14581q-0.14286 0-0.24301 0.13697-0.10015 0.13696-0.10015 0.40059 0 0.26068 0.10457 0.39912 0.10604 0.13845 0.24154 0.13845 0.13255 0 0.21355-0.1193 0.10604-0.15759 0.10604-0.42416 0-0.24448-0.08542-0.38734-0.08542-0.14433-0.23712-0.14433z"/>
<path d="m-74.991 141.41 0.68484-0.0265v1.8027q0 0.13844 0.01767 0.18704 0.01915 0.0471 0.05744 0.0692 0.03829 0.0206 0.14728 0.0206v0.13108l-0.56702 0.0177-0.04124-0.26804q-0.1296 0.16937-0.23564 0.22533-0.10457 0.056-0.26216 0.056-0.28277 0-0.46098-0.18999-0.17821-0.18999-0.17821-0.51547 0-0.35936 0.18852-0.56997t0.46834-0.21061q0.15022 0 0.26657 0.0663 0.11782 0.0648 0.21355 0.21208v-0.6274q0-0.11194-0.02062-0.16054t-0.05597-0.0663q-0.03387-0.0191-0.14139-0.0191h-0.081zm-0.04713 0.91901q-0.17084 0-0.25479 0.15023-0.06922 0.12224-0.06922 0.38881 0 0.22239 0.03829 0.33285 0.03829 0.10898 0.10899 0.16348 0.07217 0.053 0.16348 0.053 0.15022 0 0.24154-0.12814 0.12224-0.16789 0.12224-0.43005 0-0.24301-0.10604-0.38587-0.10604-0.14433-0.24448-0.14433z"/>
<path d="m-73.195 142.22h0.35347v0.15906h-0.35347v0.98087q0 0.0574 0.02209 0.0795t0.07953 0.0221h0.24301v0.13697h-0.9956v-0.13697h0.14286q0.0648 0 0.08984-0.0236t0.02504-0.0781v-0.98087h-0.23712v-0.15906h0.23712v-0.056q0-0.27688 0.07953-0.45214 0.081-0.17673 0.22534-0.26215 0.1458-0.0854 0.35788-0.0854 0.19735 0 0.30486 0.0957 0.10899 0.0957 0.10899 0.23859 0 0.1134-0.06775 0.18704-0.06627 0.0722-0.15906 0.0722-0.08689 0-0.1458-0.056-0.05891-0.0574-0.05891-0.14139 0-0.0869 0.08837-0.15169 0.04271-0.0324 0.04271-0.056 0-0.0206-0.02209-0.0339-0.03387-0.0206-0.08984-0.0206-0.07364 0-0.13697 0.0456-0.06186 0.0457-0.09131 0.12814-0.04271 0.12224-0.04271 0.2592z"/>
</g>
<g transform="rotate(-29.878)" enable-background="new" fill="#d2ff64" stroke-width=".26458" aria-label="tidy">
<path d="m10.203 43.2h0.99219v4.2444h3.4065v1.1906h-3.4065v6.5595q0 0.65043 0.33073 1.0142 0.33073 0.35278 0.87092 0.35278 1.5434 0 1.6316-2.8773h0.99219q-0.03307 1.5324-0.48507 2.4694-0.452 0.92604-1.3009 1.4332-0.83785 0.50712-1.8962 0.50712-0.92604 0-1.6095-0.37483-0.67248-0.37483-1.0804-1.1135-0.39688-0.74965-0.39688-1.6206v-6.35h-1.83v-1.0142q1.6757-0.22049 2.6128-1.2898 0.93707-1.0694 1.1686-3.1309z"/>
<path d="m19.64 41.491q0.73863 0 1.2678 0.52917 0.52917 0.51814 0.52917 1.2678 0 0.74965-0.52917 1.2788-0.52917 0.51814-1.2678 0.51814-0.74965 0-1.2788-0.52917-0.52917-0.52917-0.52917-1.2678 0-0.74965 0.52917-1.2678 0.52917-0.52917 1.2788-0.52917zm-2.8332 5.9531 4.5861-0.20946v8.7643q0 0.35278 0.22049 0.55122 0.23151 0.18741 0.69453 0.18741h0.69453v1.0253h-6.1957v-1.0253h0.68351q0.55122 0 0.7717-0.25356 0.23151-0.25356 0.23151-0.88194v-5.9752q0-0.56224-0.33073-0.87092-0.3197-0.30868-0.89297-0.30868h-0.46302z"/>
<path d="m31.281 41.414 5.1263-0.19844v13.494q0 1.0363 0.13229 1.4001 0.14332 0.35278 0.42995 0.51814 0.28663 0.15434 1.1024 0.15434v0.98116l-4.2444 0.13229-0.30868-2.0064q-0.97014 1.2678-1.7639 1.6867-0.78273 0.41892-1.9623 0.41892-2.1167 0-3.4506-1.4221-1.3339-1.4221-1.3339-3.8585 0-2.6899 1.4111-4.2664 1.4111-1.5765 3.5057-1.5765 1.1245 0 1.9954 0.49609 0.88194 0.48507 1.5985 1.5875v-4.6964q0-0.83785-0.15434-1.2016-0.15434-0.3638-0.41892-0.49609-0.25356-0.14332-1.0583-0.14332h-0.60634zm-0.35278 6.8792q-1.2788 0-1.9072 1.1245-0.51814 0.91502-0.51814 2.9104 0 1.6647 0.28663 2.4915 0.28663 0.8158 0.8158 1.2237 0.54019 0.39688 1.2237 0.39688 1.1245 0 1.808-0.95912 0.91502-1.2568 0.91502-3.2191 0-1.819-0.79375-2.8884-0.79375-1.0804-1.83-1.0804z"/>
<path d="m39.759 47.445h6.0964v0.94809h-0.58429q-0.52917 0-0.74965 0.15434t-0.22049 0.39688q0 0.27561 0.18741 0.62839l2.5687 5.005 2.1608-4.531q0.17639-0.37483 0.17639-0.68351 0-0.44097-0.33073-0.70556-0.33073-0.26458-0.97014-0.26458h-0.3197v-0.94809h4.4869v0.94809q-0.66146 0.02205-1.0473 0.29766-0.38585 0.26458-0.68351 0.88194l-4.1121 8.61q-1.0473 2.2049-2.2159 3.2081-0.89297 0.74965-2.0064 0.74965-1.1576 0-1.83-0.56224-0.67248-0.56224-0.67248-1.3891 0-0.61736 0.38585-1.0142 0.39688-0.38585 0.99219-0.38585 0.60634 0 0.99219 0.37483 0.38585 0.38585 0.38585 0.95912 0 0.18741-0.07717 0.47404-0.0441 0.16536-0.0441 0.25356 0 0.26458 0.28663 0.26458 0.50712 0 1.2678-0.82682 0.76068-0.8158 1.6647-2.6128l-4.3987-8.4667q-0.24253-0.47404-0.49609-0.63941-0.25356-0.17639-0.60634-0.17639h-0.28663z"/>
</g>
<g transform="rotate(31.109)" enable-background="new" fill="#d2ff64" stroke-width=".26458" aria-label="cells">
<path d="m82.433-18.109 0.8599 0.4079q-0.67248 1.7418-2.0726 2.701-1.4001 0.94809-3.3293 0.94809-2.6128 0-4.079-1.4221-1.4662-1.4332-1.4662-3.8475 0-2.6017 1.7308-4.2774 1.7418-1.6757 4.6082-1.6757 2.0615 0 3.153 0.83785 1.0914 0.82682 1.0914 2.0064 0 0.8599-0.48507 1.367-0.47404 0.49609-1.2568 0.49609-0.68351 0-1.0914-0.38585-0.39688-0.39688-0.39688-1.0253 0-0.54019 0.44097-1.2568 0.18741-0.29766 0.18741-0.41892 0-0.22049-0.34175-0.39688-0.48507-0.27561-1.2678-0.27561-1.4552 0-2.1056 0.92604-0.87092 1.2237-0.87092 3.7042t0.8599 3.4947q0.87092 1.0032 2.2379 1.0032 1.0804 0 2.0285-0.71658 0.95912-0.7276 1.5655-2.1938z"/>
<path d="m95.64-19.476h-7.243q0.03307 2.1718 0.87092 3.2081 0.84887 1.0253 2.1718 1.0253 0.94809 0 1.797-0.52917t1.7418-1.9182l0.80478 0.49609q-0.93707 1.6536-2.1497 2.3702-1.2016 0.70556-2.9435 0.70556-2.5356 0-4.101-1.5434-1.5655-1.5434-1.5655-3.9577t1.5765-4.0349 3.8695-1.6206q1.5875 0 2.723 0.65043 1.1465 0.65043 1.7749 1.9072 0.63941 1.2457 0.67248 3.2411zm-7.243-0.99219h3.4506q0.48507 0 0.69453-0.24254t0.20946-0.88194q0-1.2788-0.58429-1.9734-0.58429-0.70556-1.4883-0.70556-1.0694 0-1.6426 0.94809-0.56224 0.94809-0.63941 2.8553z"/>
<path d="m97.646-30.687 4.8286-0.24253v14.673q0 0.39688 0.25356 0.62839 0.25356 0.22049 0.7276 0.22049h0.65044v1.0253h-6.2067v-1.0253h0.70556q0.48507 0 0.71658-0.25356 0.24253-0.26458 0.24253-0.79375v-12.05q0-0.56224-0.30868-0.8599-0.30868-0.30868-0.83785-0.30868h-0.7717z"/>
<path d="m105.58-30.687 4.8286-0.24253v14.673q0 0.39688 0.25356 0.62839 0.25356 0.22049 0.7276 0.22049h0.65044v1.0253h-6.2067v-1.0253h0.70556q0.48507 0 0.71658-0.25356 0.24253-0.26458 0.24253-0.79375v-12.05q0-0.56224-0.30868-0.8599-0.30868-0.30868-0.83785-0.30868h-0.7717z"/>
<path d="m120.9-24.392 0.72761-0.87092h0.67248l0.22049 3.5278h-0.89297q-0.70556-1.4001-1.5544-1.9623-0.83785-0.57326-2.0395-0.57326-1.0363 0-1.5765 0.39688t-0.54019 1.0032q0 0.59531 0.41892 0.90399 0.41892 0.3197 2.2931 0.69453 1.6977 0.34175 2.26 0.57326 1.0694 0.42995 1.6647 1.2788 0.60634 0.84887 0.60634 1.9844 0 1.4332-1.1576 2.4143-1.1465 0.97014-3.0207 0.97014-0.90399 0-1.6426-0.22049-0.7276-0.20946-1.5214-0.74965l-0.78273 0.92604h-0.83784l-0.19844-3.9026h0.91502q1.1686 2.9545 4.0128 2.9545 1.1686 0 1.7859-0.452 0.61736-0.452 0.61736-1.0804 0-0.57326-0.38585-0.87092-0.38585-0.29766-2.0505-0.63941-1.797-0.3638-2.4474-0.62839-1.1134-0.42995-1.6757-1.1906-0.56224-0.7717-0.56224-1.8521 0-1.5434 1.0253-2.5246 1.0253-0.99219 2.745-0.99219 0.83785 0 1.4993 0.19844 0.67248 0.19844 1.4221 0.68351z"/>
</g>
</g>
</svg>
